<?xml version="1.0" standalone="no"?>
<!DOCTYPE svg PUBLIC "-//W3C//DTD SVG 1.1//EN" "http://www.w3.org/Graphics/SVG/1.1/DTD/svg11.dtd" >
<svg xmlns="http://www.w3.org/2000/svg" xmlns:xlink="http://www.w3.org/1999/xlink" version="1.1">
<metadata>
Created by FontForge 20170910 at Mon Jan 16 18:43:03 2017
 By Jimmy Wärting
Copyright (c) 2016 Schick Toikka. Unauthorized copying or modification of any of its data is illegal. FOR EXCLUSIVE USE BY FUTURICE COMPANY AND ITS AFFILIATES ONLY.
</metadata>
<defs>
<font id="Futurice-Bold" horiz-adv-x="610" >
  <font-face 
    font-family="Futurice Bold"
    font-weight="400"
    font-stretch="normal"
    units-per-em="1000"
    panose-1="0 0 5 0 0 0 0 0 0 0"
    ascent="750"
    descent="-250"
    x-height="510"
    cap-height="666"
    bbox="-115 -311 931 936"
    underline-thickness="50"
    underline-position="-100"
    stemh="111"
    stemv="132"
    unicode-range="U+0020-FB02"
  />
<missing-glyph 
d="M532 -142h-454v872h454v-872zM305 263l-185 -379h370zM290 294l-185 380v-758zM320 294l185 -378v758zM490 704h-370l185 -379z" />
    <glyph glyph-name="fi" unicode="fi" horiz-adv-x="715" 
d="M120 0v399h-79v111h79v62c0 100 62 168 176 168c51 0 101 -16 134 -41l-52 -92c-16 13 -39 22 -66 22c-43 0 -60 -27 -60 -72v-47h153v-111h-153v-399h-132zM505 510h132v-510h-132v510zM491 659c0 45 36 81 81 81s81 -36 81 -81s-36 -81 -81 -81s-81 36 -81 81z" />
    <glyph glyph-name="fl" unicode="fl" horiz-adv-x="715" 
d="M120 0v399h-79v111h79v62c0 100 62 168 176 168c51 0 101 -16 134 -41l-52 -92c-16 13 -39 22 -66 22c-43 0 -60 -27 -60 -72v-47h153v-111h-153v-399h-132zM506 0v730h132v-730h-132z" />
    <glyph glyph-name=".notdef" 
d="M532 -142h-454v872h454v-872zM305 263l-185 -379h370zM290 294l-185 380v-758zM320 294l185 -378v758zM490 704h-370l185 -379z" />
    <glyph glyph-name="exclam" unicode="!" horiz-adv-x="359" 
d="M105 394v272h148v-272l-39 -140h-66zM80 89c0 55 44 100 99 100s100 -45 100 -100s-45 -99 -100 -99s-99 44 -99 99z" />
    <glyph glyph-name="question" unicode="?" horiz-adv-x="491" 
d="M140 480l-113 48c16 65 85 148 229 148c126 0 205 -61 205 -165c0 -49 -24 -99 -97 -150s-78 -75 -87 -107h-66c-4 13 -10 33 -10 49c0 38 14 71 50 104c46 42 75 64 75 97c0 31 -19 58 -72 58c-55 0 -91 -25 -114 -82zM146 89c0 55 44 100 99 100s100 -45 100 -100
s-45 -99 -100 -99s-99 44 -99 99z" />
    <glyph glyph-name="questiondown" unicode="&#xbf;" horiz-adv-x="491" 
d="M348 26l113 -48c-16 -65 -85 -148 -229 -148c-126 0 -205 61 -205 165c0 49 24 99 97 150s78 75 87 107h66c4 -13 10 -33 10 -49c0 -38 -14 -71 -50 -104c-46 -42 -75 -64 -75 -97c0 -31 19 -58 72 -58c55 0 91 25 114 82zM342 417c0 -55 -44 -100 -99 -100
s-100 45 -100 100s45 99 100 99s99 -44 99 -99z" />
    <glyph glyph-name="exclamdown" unicode="&#xa1;" horiz-adv-x="359" 
d="M105 -160v272l43 140h66l39 -140v-272h-148zM80 417c0 55 44 99 99 99s100 -44 100 -99s-45 -100 -100 -100s-99 45 -99 100z" />
    <glyph glyph-name="quotesingle" unicode="'" horiz-adv-x="255" 
d="M55 730h145l-18 -265h-109z" />
    <glyph glyph-name="quotedbl" unicode="&#x22;" horiz-adv-x="465" 
d="M55 730h145l-18 -265h-109zM265 730h145l-18 -265h-109z" />
    <glyph glyph-name="plus" unicode="+" 
d="M87 237v111h156v162h121v-162h158v-111h-158v-162h-121v162h-156z" />
    <glyph glyph-name="ellipsis" unicode="&#x2026;" horiz-adv-x="947" 
d="M65 89c0 55 44 100 99 100s100 -45 100 -100s-45 -99 -100 -99s-99 44 -99 99zM374 89c0 55 44 100 99 100s100 -45 100 -100s-45 -99 -100 -99s-99 44 -99 99zM683 89c0 55 44 100 99 100s100 -45 100 -100s-45 -99 -100 -99s-99 44 -99 99z" />
    <glyph glyph-name="period" unicode="." horiz-adv-x="329" 
d="M65 89c0 55 44 100 99 100s100 -45 100 -100s-45 -99 -100 -99s-99 44 -99 99z" />
    <glyph glyph-name="comma" unicode="," horiz-adv-x="329" 
d="M65 88c0 56 44 100 99 100c56 0 100 -44 100 -114c0 -49 -16 -92 -47 -144l-80 -134l-67 38l82 137v24c-56 0 -87 48 -87 93z" />
    <glyph glyph-name="colon" unicode=":" horiz-adv-x="339" 
d="M70 89c0 55 44 100 99 100s100 -45 100 -100s-45 -99 -100 -99s-99 44 -99 99zM70 420c0 55 44 100 99 100s100 -45 100 -100s-45 -99 -100 -99s-99 44 -99 99z" />
    <glyph glyph-name="semicolon" unicode=";" horiz-adv-x="339" 
d="M70 420c0 55 44 100 99 100s100 -45 100 -100s-45 -99 -100 -99s-99 44 -99 99zM70 88c0 56 44 100 99 100c56 0 100 -44 100 -114c0 -49 -16 -92 -47 -144l-80 -134l-67 38l82 137v24c-56 0 -87 48 -87 93z" />
    <glyph glyph-name="hyphen" unicode="-" horiz-adv-x="471" 
d="M90 224v135h291v-135h-291z" />
    <glyph glyph-name="endash" unicode="&#x2013;" horiz-adv-x="521" 
d="M55 227v117h411v-117h-411z" />
    <glyph glyph-name="underscore" unicode="_" horiz-adv-x="521" 
d="M55 -117v117h411v-117h-411z" />
    <glyph glyph-name="emdash" unicode="&#x2014;" horiz-adv-x="781" 
d="M55 227v117h671v-117h-671z" />
    <glyph glyph-name="bar" unicode="|" horiz-adv-x="270" 
d="M80 -132v882h110v-882h-110z" />
    <glyph glyph-name="brokenbar" unicode="&#xa6;" horiz-adv-x="270" 
d="M80 -132v340h110v-340h-110zM80 410v340h110v-340h-110z" />
    <glyph glyph-name="backslash" unicode="\" horiz-adv-x="555" 
d="M134 750l386 -852v-30h-100l-385 852v30h99z" />
    <glyph glyph-name="slash" unicode="/" horiz-adv-x="555" 
d="M35 -102l386 852h99v-30l-385 -852h-100v30z" />
    <glyph glyph-name="numbersign" unicode="#" horiz-adv-x="648" 
d="M75 393v102h84v171h106v-171h118v171h106v-171h84v-102h-84v-120h82v-102h-82v-171h-106v171h-118v-171h-106v171h-84v102h84v120h-84zM265 393v-120h118v120h-118z" />
    <glyph glyph-name="perthousand" unicode="&#x2030;" horiz-adv-x="675" 
d="M299 541c0 -80 -40 -135 -121 -135s-121 55 -121 135s40 135 121 135s121 -55 121 -135zM139 541c0 -30 8 -56 39 -56c26 0 37 26 37 56c0 29 -11 56 -37 56c-31 0 -39 -27 -39 -56zM81 216h-26v69l376 211h26v-69zM376 127c0 -80 -40 -135 -121 -135s-121 55 -121 135
s40 135 121 135s121 -55 121 -135zM216 127c0 -30 8 -56 39 -56c26 0 37 26 37 56c0 29 -11 56 -37 56c-31 0 -39 -27 -39 -56zM646 127c0 -80 -40 -135 -121 -135s-121 55 -121 135s40 135 121 135s121 -55 121 -135zM486 127c0 -30 8 -56 39 -56c26 0 37 26 37 56
c0 29 -11 56 -37 56c-31 0 -39 -27 -39 -56z" />
    <glyph glyph-name="percent" unicode="%" horiz-adv-x="775" 
d="M205 344c-97 0 -150 69 -150 164s53 165 150 165c96 0 149 -70 149 -165s-53 -164 -149 -164zM205 427c36 0 48 38 48 81c0 44 -12 81 -48 81c-37 0 -49 -37 -49 -81c0 -43 12 -81 49 -81zM565 666h91v-25l-445 -641h-91v25zM571 -8c-97 0 -150 69 -150 164
s53 165 150 165c96 0 149 -70 149 -165s-53 -164 -149 -164zM571 75c36 0 48 38 48 81c0 44 -12 81 -48 81c-37 0 -49 -37 -49 -81c0 -43 12 -81 49 -81z" />
    <glyph glyph-name="ampersand" unicode="&#x26;" horiz-adv-x="665" 
d="M281 121h105v155h-84c-65 0 -112 -18 -112 -78s36 -77 91 -77zM91 490c0 98 90 186 223 186c127 0 201 -42 234 -147l-134 -36c-13 48 -45 69 -95 69c-51 0 -91 -35 -91 -84c0 -63 54 -81 123 -81h269v-121h-103v-276h-238c-135 0 -227 41 -227 175c0 98 85 144 133 147
v25c-46 8 -94 51 -94 143z" />
    <glyph glyph-name="at" unicode="@" horiz-adv-x="660" 
d="M495 125h-25c-13 -44 -60 -62 -88 -62c-99 0 -158 89 -158 233s59 233 158 233c28 0 75 -18 88 -62h25c-6 116 -42 178 -143 178c-109 0 -192 -88 -192 -359c0 -247 63 -343 204 -343c43 0 79 15 99 24l37 -91c-27 -15 -73 -30 -133 -30c-202 0 -312 117 -312 440
c0 324 118 454 298 454c169 0 252 -104 252 -286v-387h-110v58zM494 296c0 85 -20 133 -78 133s-77 -48 -77 -133s19 -133 77 -133s78 48 78 133z" />
    <glyph glyph-name="zero" unicode="0" horiz-adv-x="613" 
d="M306 676c162 0 257 -91 257 -346s-95 -340 -257 -340s-256 85 -256 340s94 346 256 346zM306 565c-85 0 -118 -86 -118 -235s33 -229 118 -229s119 80 119 229s-34 235 -119 235z" />
    <glyph glyph-name="one" unicode="1" horiz-adv-x="455" 
d="M210 487h-25l-94 -68l-66 92l199 155h126v-666h-140v487z" />
    <glyph glyph-name="two" unicode="2" horiz-adv-x="560" 
d="M183 479l-134 36c30 103 107 161 234 161c133 0 213 -70 213 -176c0 -77 -32 -139 -108 -213l-143 -141v-25h255v-121h-441v128l235 235c48 48 65 86 65 125c0 49 -32 74 -81 74c-50 0 -82 -35 -95 -83z" />
    <glyph glyph-name="three" unicode="3" horiz-adv-x="568" 
d="M42 153l134 36c11 -48 41 -87 101 -87c63 0 102 35 102 99c0 59 -44 86 -125 86h-20v110h21c75 0 104 40 104 90s-33 77 -81 77c-58 0 -84 -35 -97 -81l-134 36c29 104 109 157 232 157c122 0 216 -67 216 -169c0 -84 -45 -132 -96 -145v-25c63 -8 117 -59 117 -144
c0 -109 -84 -203 -240 -203c-124 0 -209 62 -234 163z" />
    <glyph glyph-name="four" unicode="4" horiz-adv-x="604" 
d="M171 258v-25h182v282h-25zM40 239l262 427h170v-433h105v-111h-105v-122h-122v122h-310v117z" />
    <glyph glyph-name="five" unicode="5" horiz-adv-x="568" 
d="M46 153l134 36c13 -58 48 -86 105 -86c61 0 100 30 100 123c0 79 -47 112 -92 112s-73 -19 -96 -55h-117l34 383h359v-121h-249l-16 -142h25c28 26 61 35 100 35c99 0 190 -77 190 -209c0 -131 -84 -239 -231 -239c-128 0 -216 50 -246 163z" />
    <glyph glyph-name="six" unicode="6" horiz-adv-x="573" 
d="M297 338c-50 0 -96 -36 -96 -120c0 -85 52 -119 96 -119c53 0 93 31 93 122c0 93 -55 117 -93 117zM517 554l-127 -49c-16 46 -53 58 -89 58c-73 0 -114 -67 -114 -180h25c31 39 70 55 126 55c102 0 190 -80 190 -211c0 -151 -112 -238 -221 -238
c-171 0 -257 104 -257 349c0 226 85 338 259 338c96 0 174 -40 208 -122z" />
    <glyph glyph-name="seven" unicode="7" horiz-adv-x="527" 
d="M40 480v186h461v-121c-145 -94 -207 -322 -209 -545h-138c0 246 91 440 199 530v25h-187v-75h-126z" />
    <glyph glyph-name="eight" unicode="8" horiz-adv-x="588" 
d="M294 297c-57 0 -100 -34 -100 -94c0 -79 50 -104 100 -104s100 25 100 104c0 60 -43 94 -100 94zM294 570c-49 0 -81 -30 -81 -83s30 -90 81 -90s81 37 81 90s-32 83 -81 83zM294 -10c-143 0 -242 65 -242 197c0 86 59 142 124 150v25c-47 13 -97 61 -97 145
c0 115 107 170 215 170s215 -55 215 -170c0 -84 -50 -132 -97 -145v-25c65 -8 124 -64 124 -150c0 -132 -99 -197 -242 -197z" />
    <glyph glyph-name="nine" unicode="9" horiz-adv-x="573" 
d="M276 329c50 0 96 36 96 120c0 85 -52 117 -96 117c-53 0 -93 -29 -93 -120c0 -93 55 -117 93 -117zM56 113l127 49c16 -46 53 -59 89 -59c73 0 114 68 114 181h-25c-31 -39 -70 -55 -126 -55c-102 0 -190 80 -190 211c0 151 112 236 221 236c171 0 257 -102 257 -347
c0 -226 -85 -339 -259 -339c-96 0 -174 41 -208 123z" />
    <glyph glyph-name="A" unicode="A" horiz-adv-x="687" 
d="M519 0l-45 142h-263l-46 -142h-135v25l222 641h184l221 -641v-25h-138zM331 515l-84 -260h191l-82 260h-25z" />
    <glyph glyph-name="B" unicode="B" horiz-adv-x="653" 
d="M475 360v-25c63 -3 126 -59 126 -148c0 -111 -84 -187 -213 -187h-308v666h291c120 0 215 -55 215 -173c0 -80 -58 -126 -111 -133zM441 476c0 48 -33 84 -89 84h-129v-168h129c56 0 89 36 89 84zM453 198c0 57 -37 92 -95 92h-135v-183h135c58 0 95 35 95 91z" />
    <glyph glyph-name="C" unicode="C" horiz-adv-x="674" 
d="M195 333c0 -137 49 -222 162 -222c80 0 120 50 134 109l141 -37c-20 -113 -124 -193 -276 -193c-195 0 -311 123 -311 343s116 343 311 343c152 0 256 -80 276 -193l-141 -37c-14 59 -54 109 -134 109c-113 0 -162 -85 -162 -222z" />
    <glyph glyph-name="D" unicode="D" horiz-adv-x="696" 
d="M80 666h279c187 0 290 -132 290 -333s-103 -333 -290 -333h-279v666zM332 545h-108v-424h108c128 0 167 78 167 212s-39 212 -167 212z" />
    <glyph glyph-name="E" unicode="E" horiz-adv-x="601" 
d="M80 0v666h454v-121h-311v-147h272v-113h-272v-164h318v-121h-461z" />
    <glyph glyph-name="F" unicode="F" horiz-adv-x="552" 
d="M80 0v666h432v-121h-289v-169h251v-113h-251v-263h-143z" />
    <glyph glyph-name="G" unicode="G" horiz-adv-x="713" 
d="M358 257v121h282v-378h-141v84h-25c-13 -49 -70 -94 -157 -94c-167 0 -272 135 -272 343c0 220 116 343 311 343c152 0 248 -77 273 -177l-141 -39c-16 46 -51 95 -131 95c-113 0 -162 -85 -162 -222c0 -146 43 -226 163 -226c89 0 141 61 141 129v21h-141z" />
    <glyph glyph-name="H" unicode="H" horiz-adv-x="713" 
d="M80 0v666h143v-269h269v269h141v-666h-141v276h-270v-276h-142z" />
    <glyph glyph-name="I" unicode="I" horiz-adv-x="303" 
d="M80 0v666h143v-666h-143z" />
    <glyph glyph-name="J" unicode="J" horiz-adv-x="499" 
d="M10 77l91 89c21 -29 56 -55 98 -55c65 0 88 45 88 108v447h142v-448c0 -132 -59 -228 -231 -228c-73 0 -150 31 -188 87z" />
    <glyph glyph-name="K" unicode="K" horiz-adv-x="656" 
d="M623 25v-25h-149l-182 304l-68 -77v-227h-144v666h144v-257h26l222 257h144v-25l-212 -244z" />
    <glyph glyph-name="L" unicode="L" horiz-adv-x="546" 
d="M80 0v666h143v-550h291v-116h-434z" />
    <glyph glyph-name="M" unicode="M" horiz-adv-x="794" 
d="M387 395h25l135 271h167v-666h-129v446h-25l-123 -248h-77l-128 248h-25v-446h-127v666h169z" />
    <glyph glyph-name="N" unicode="N" horiz-adv-x="731" 
d="M499 220h25v446h127v-666h-159l-260 446h-25v-446h-127v666h163z" />
    <glyph glyph-name="O" unicode="O" horiz-adv-x="714" 
d="M195 333c0 -137 49 -222 162 -222s162 85 162 222s-49 222 -162 222s-162 -85 -162 -222zM669 333c0 -220 -117 -343 -312 -343s-312 123 -312 343s117 343 312 343s312 -123 312 -343z" />
    <glyph glyph-name="P" unicode="P" horiz-adv-x="618" 
d="M588 449c0 -132 -86 -218 -250 -218h-115v-231h-143v666h258c164 0 250 -85 250 -217zM443 449c0 76 -41 110 -106 110h-114v-221h114c65 0 106 35 106 111z" />
    <glyph glyph-name="Q" unicode="Q" horiz-adv-x="714" 
d="M669 333c0 -123 -37 -215 -103 -273l74 -91v-25h-112l-53 64c-35 -12 -75 -18 -118 -18c-195 0 -312 123 -312 343s117 343 312 343s312 -123 312 -343zM195 333c0 -140 49 -227 162 -227c12 0 24 1 35 3l-81 99v25h116l55 -69c29 40 42 97 42 169
c0 137 -51 222 -167 222c-113 0 -162 -85 -162 -222z" />
    <glyph glyph-name="R" unicode="R" horiz-adv-x="667" 
d="M470 331v-25c87 0 106 -55 106 -118v-67c0 -39 13 -73 34 -96v-25h-151c-23 24 -32 62 -32 102v70c0 72 -29 95 -84 95h-120v-267h-143v666h275c153 0 233 -80 233 -189c0 -78 -45 -136 -118 -146zM444 465c0 57 -33 94 -105 94h-116v-187h116c72 0 105 36 105 93z" />
    <glyph glyph-name="S" unicode="S" horiz-adv-x="624" 
d="M36 140l129 58c20 -52 74 -94 146 -94c82 0 122 32 122 77c0 50 -27 63 -103 83l-92 24c-113 29 -175 98 -175 193c0 116 96 195 242 195c163 0 234 -71 255 -143l-130 -48c-14 44 -57 77 -118 77c-65 0 -106 -28 -106 -76c0 -33 15 -58 77 -74l107 -28
c124 -32 186 -94 186 -191c0 -126 -112 -203 -264 -203c-165 0 -243 61 -276 150z" />
    <glyph glyph-name="T" unicode="T" horiz-adv-x="588" 
d="M28 545v121h532v-121h-194v-545h-146v545h-192z" />
    <glyph glyph-name="U" unicode="U" horiz-adv-x="671" 
d="M335 -10c-196 0 -265 114 -265 267v409h143v-410c0 -92 31 -145 122 -145s123 53 123 145v410h143v-409c0 -153 -70 -267 -266 -267z" />
    <glyph glyph-name="V" unicode="V" horiz-adv-x="670" 
d="M30 641v25h139l151 -476h25l158 476h137v-25l-226 -641h-164z" />
    <glyph glyph-name="W" unicode="W" horiz-adv-x="947" 
d="M907 666v-25l-150 -641h-163l-102 450h-25l-103 -450h-164l-160 641v25h135l105 -466h25l100 466h148l103 -470h26l91 470h134z" />
    <glyph glyph-name="X" unicode="X" horiz-adv-x="676" 
d="M626 666v-25l-211 -297l228 -319v-25h-144l-153 219h-25l-150 -219h-136v25l220 314l-222 302v25h142l145 -195h25l145 195h136z" />
    <glyph glyph-name="Y" unicode="Y" horiz-adv-x="639" 
d="M622 666v-25l-232 -392v-249h-143v250l-230 391v25h144l146 -251h25l147 251h143z" />
    <glyph glyph-name="Z" unicode="Z" horiz-adv-x="614" 
d="M248 142v-25h314v-117h-512v90l316 434v25h-291v117h489v-93z" />
    <glyph glyph-name="a" unicode="a" horiz-adv-x="551" 
d="M355 169v74l-74 -10c-60 -8 -99 -38 -99 -84c0 -40 29 -61 73 -61c38 0 100 30 100 81zM184 348l-113 41c18 72 87 131 213 131c118 0 200 -52 200 -188v-332h-124v70h-25c-21 -46 -58 -80 -132 -80c-89 0 -156 61 -156 145c0 109 82 162 223 180l85 11v8
c0 66 -29 83 -77 83c-47 0 -79 -32 -94 -69z" />
    <glyph glyph-name="b" unicode="b" horiz-adv-x="617" 
d="M567 255c0 -168 -73 -265 -187 -265c-75 0 -124 39 -146 89h-25v-79h-132v730h132v-299h25c22 50 71 89 146 89c114 0 187 -97 187 -265zM211 255c0 -103 38 -154 109 -154s109 51 109 154s-38 154 -109 154s-109 -51 -109 -154z" />
    <glyph glyph-name="c" unicode="c" horiz-adv-x="553" 
d="M185 255c0 -103 37 -154 113 -154c48 0 83 32 95 82l123 -35c-17 -97 -110 -158 -222 -158c-154 0 -247 100 -247 265s93 265 247 265c112 0 205 -61 222 -158l-123 -35c-12 50 -47 82 -95 82c-76 0 -113 -51 -113 -154z" />
    <glyph glyph-name="d" unicode="d" horiz-adv-x="617" 
d="M50 255c0 168 73 265 187 265c75 0 124 -39 146 -89h25v299h132v-730h-132v79h-25c-22 -50 -71 -89 -146 -89c-114 0 -187 97 -187 265zM406 255c0 103 -38 154 -109 154s-109 -51 -109 -154s38 -154 109 -154s109 51 109 154z" />
    <glyph glyph-name="e" unicode="e" horiz-adv-x="578" 
d="M183 310h214c0 52 -24 105 -105 105c-70 0 -103 -52 -109 -105zM414 176l107 -57c-45 -79 -124 -129 -226 -129c-164 0 -248 104 -248 268c0 163 96 262 242 262c140 0 237 -75 237 -238v-60h-345c3 -83 51 -125 112 -125c56 0 98 30 121 79z" />
    <glyph glyph-name="f" unicode="f" horiz-adv-x="430" 
d="M120 0v399h-79v111h79v62c0 100 62 168 176 168c51 0 101 -16 134 -41l-52 -92c-16 13 -39 22 -66 22c-43 0 -60 -27 -60 -72v-47h153v-111h-153v-399h-132z" />
    <glyph glyph-name="g" unicode="g" horiz-adv-x="601" 
d="M501 348c0 -83 -59 -172 -216 -172h-63c-37 0 -63 -15 -63 -38c0 -20 16 -36 53 -36h158c123 0 193 -42 193 -142c0 -128 -122 -170 -286 -170c-201 0 -250 52 -250 111c0 61 59 86 108 90v27c-47 5 -84 26 -84 84c0 48 53 83 97 86v25c-50 30 -79 76 -79 135
c0 83 59 172 216 172c65 0 110 -16 139 -34h25c0 73 35 112 99 112h53v-112h-77c-33 0 -48 -20 -50 -46c20 -30 27 -59 27 -92zM297 -114c107 0 146 29 146 64c0 29 -22 51 -98 51h-85c-81 0 -105 -24 -105 -58c0 -35 32 -57 142 -57zM367 348c0 54 -34 82 -82 82
s-82 -28 -82 -82s34 -82 82 -82s82 28 82 82z" />
    <glyph glyph-name="h" unicode="h" horiz-adv-x="600" 
d="M77 0v730h132v-294h25c24 53 69 84 141 84c97 0 155 -64 155 -190v-330h-132v305c0 77 -33 104 -84 104c-65 0 -105 -39 -105 -119v-290h-132z" />
    <glyph glyph-name="i" unicode="i" horiz-adv-x="286" 
d="M76 510h132v-510h-132v510zM62 659c0 45 36 81 81 81s81 -36 81 -81s-36 -81 -81 -81s-81 36 -81 81z" />
    <glyph glyph-name="j" unicode="j" horiz-adv-x="286" 
d="M-47 -198l28 106c9 -3 23 -6 36 -6c34 0 59 26 59 71v537h132v-552c0 -98 -62 -168 -176 -168c-27 0 -57 2 -79 12zM62 659c0 45 36 81 81 81s81 -36 81 -81s-36 -81 -81 -81s-81 36 -81 81z" />
    <glyph glyph-name="k" unicode="k" horiz-adv-x="579" 
d="M209 0h-132v730h132v-388h25l171 168h142v-25l-171 -179l164 -281v-25h-138c-7 11 -135 235 -139 239l-54 -56v-183z" />
    <glyph glyph-name="l" unicode="l" horiz-adv-x="286" 
d="M77 0v730h132v-730h-132z" />
    <glyph glyph-name="m" unicode="m" horiz-adv-x="881" 
d="M77 0v510h132v-74h24c21 49 66 84 132 84c63 0 108 -35 130 -91h25c27 65 75 91 141 91c91 0 150 -64 150 -175v-345h-132v318c0 65 -29 92 -79 92c-53 0 -90 -42 -90 -121v-289h-132v327c0 59 -32 83 -79 83c-54 0 -90 -44 -90 -127v-283h-132z" />
    <glyph glyph-name="n" unicode="n" horiz-adv-x="600" 
d="M77 0v510h132v-74h25c24 53 69 84 141 84c97 0 155 -64 155 -190v-330h-132v305c0 77 -33 104 -84 104c-65 0 -105 -39 -105 -119v-290h-132z" />
    <glyph glyph-name="o" unicode="o" horiz-adv-x="588" 
d="M185 255c0 -103 38 -154 109 -154s109 51 109 154s-38 154 -109 154s-109 -51 -109 -154zM541 255c0 -165 -93 -265 -247 -265s-247 100 -247 265s93 265 247 265s247 -100 247 -265z" />
    <glyph glyph-name="p" unicode="p" horiz-adv-x="617" 
d="M567 255c0 -168 -73 -265 -187 -265c-75 0 -124 39 -146 89h-25v-279h-132v710h132v-79h25c22 50 71 89 146 89c114 0 187 -97 187 -265zM211 255c0 -103 38 -154 109 -154s109 51 109 154s-38 154 -109 154s-109 -51 -109 -154z" />
    <glyph glyph-name="q" unicode="q" horiz-adv-x="617" 
d="M50 255c0 168 73 265 187 265c75 0 124 -39 146 -89h25v79h132v-710h-132v279h-25c-22 -50 -71 -89 -146 -89c-114 0 -187 97 -187 265zM406 255c0 103 -38 154 -109 154s-109 -51 -109 -154s38 -154 109 -154s109 51 109 154z" />
    <glyph glyph-name="r" unicode="r" horiz-adv-x="479" 
d="M474 396l-124 -46c-12 38 -28 55 -59 55c-52 0 -82 -48 -82 -137v-268h-132v510h132v-79h25c13 57 64 89 118 89c73 0 108 -51 122 -124z" />
    <glyph glyph-name="s" unicode="s" horiz-adv-x="521" 
d="M241 320l107 -25c76 -18 125 -62 125 -137c0 -92 -78 -168 -215 -168c-108 0 -181 40 -216 123l108 51c21 -48 62 -71 110 -71c52 0 86 18 86 52c0 21 -15 35 -50 43l-107 25c-78 18 -124 72 -124 149c0 90 79 158 203 158c87 0 168 -37 197 -119l-100 -46
c-20 38 -52 62 -100 62c-45 0 -74 -18 -74 -48c0 -24 15 -41 50 -49z" />
    <glyph glyph-name="t" unicode="t" horiz-adv-x="453" 
d="M111 157v242h-79v111h79v190h132v-190h163v-111h-163v-226c0 -55 29 -72 67 -72c30 0 52 12 71 26l48 -90c-34 -26 -81 -47 -142 -47c-114 0 -176 62 -176 167z" />
    <glyph glyph-name="u" unicode="u" horiz-adv-x="590" 
d="M513 510v-510h-132v74h-25c-20 -48 -67 -84 -136 -84c-94 0 -150 64 -150 190v330h132v-305c0 -77 31 -104 79 -104c62 0 100 39 100 119v290h132z" />
    <glyph glyph-name="v" unicode="v" horiz-adv-x="552" 
d="M527 510v-25l-166 -485h-178l-158 485v25h133l104 -352h25l109 352h131z" />
    <glyph glyph-name="w" unicode="w" horiz-adv-x="784" 
d="M752 510v-25l-123 -485h-142l-81 329h-25l-83 -329h-143l-123 485v25h122l72 -333h25l78 333h126l83 -337h25l68 337h121z" />
    <glyph glyph-name="x" unicode="x" horiz-adv-x="554" 
d="M30 0v25l165 234l-155 226v25h132l93 -144h25l92 144h129v-25l-152 -225l165 -235v-25h-132l-102 152h-25l-104 -152h-131z" />
    <glyph glyph-name="y" unicode="y" horiz-adv-x="552" 
d="M8 -182l43 103c22 -13 41 -19 65 -19c32 0 72 20 84 55l-175 528v25h133l104 -352h25l109 352h131v-25l-169 -484c-45 -127 -88 -211 -234 -211c-51 0 -87 12 -116 28z" />
    <glyph glyph-name="z" unicode="z" horiz-adv-x="532" 
d="M247 137v-25h235v-112h-434v88l227 286v25h-220v111h423v-91z" />
    <glyph glyph-name="asciitilde" unicode="~" 
d="M196 210l-95 20c10 103 56 143 117 143c62 0 119 -50 162 -50c21 0 29 27 34 57l94 -20c-10 -105 -55 -145 -116 -145c-62 0 -120 52 -162 52c-22 0 -29 -28 -34 -57z" />
    <glyph glyph-name="asciicircum" unicode="^" horiz-adv-x="488" 
d="M428 441v-20h-94l-80 148h-20l-80 -148h-94v20l119 225h130z" />
    <glyph glyph-name="dagger" unicode="&#x2020;" horiz-adv-x="509" 
d="M296 196h-83v273h-128v80h128v117h83v-117h128v-80h-128v-273z" />
    <glyph glyph-name="daggerdbl" unicode="&#x2021;" horiz-adv-x="509" 
d="M296 216h-83v117h-128v80h128v56h-128v80h128v117h83v-117h128v-80h-128v-56h128v-80h-128v-117z" />
    <glyph glyph-name="dollar" unicode="$" horiz-adv-x="608" 
d="M36 146l120 54c16 -43 57 -76 107 -89v173l-31 8c-110 28 -170 93 -170 185c0 103 78 176 201 188v85h83v-86c123 -13 180 -75 199 -137l-123 -45c-11 32 -40 59 -76 71v-164l34 -9c120 -32 180 -90 180 -183c0 -110 -89 -183 -214 -196v-85h-83v84
c-132 10 -198 67 -227 146zM429 185c0 44 -25 61 -83 77v-153c53 10 83 39 83 76zM193 482c0 -31 14 -55 70 -72v145c-43 -10 -70 -36 -70 -73z" />
    <glyph glyph-name="Euro" unicode="&#x20ac;" horiz-adv-x="662" 
d="M40 361v86h75c30 148 121 229 265 229c142 0 220 -77 238 -170l-127 -39c-16 54 -45 94 -110 94c-70 0 -110 -42 -127 -114h142v-86h-153v-56h153v-86h-142c17 -72 57 -114 127 -114c65 0 94 40 110 94l127 -39c-18 -93 -96 -170 -238 -170c-144 0 -235 81 -265 229h-75
v86h65v56h-65z" />
    <glyph glyph-name="cent" unicode="&#xa2;" horiz-adv-x="553" 
d="M243 -97v91c-124 20 -196 115 -196 261s72 241 196 261v91h83v-89c97 -11 174 -69 190 -156l-122 -35c-10 41 -33 70 -68 80v-304c35 10 58 39 68 80l122 -35c-16 -88 -93 -146 -190 -156v-89h-83zM181 255c0 -76 20 -124 62 -144v288c-41 -20 -62 -69 -62 -144z" />
    <glyph glyph-name="sterling" unicode="&#xa3;" horiz-adv-x="573" 
d="M84 485c0 108 79 191 218 191c150 0 211 -78 236 -161l-133 -41c-12 46 -43 88 -99 88c-57 0 -86 -39 -86 -85c0 -40 18 -82 36 -124h142v-86h-124c1 -8 2 -16 2 -24c0 -43 -15 -78 -50 -97v-25h294v-121h-475v112c60 21 102 63 102 124c0 10 -1 21 -3 31h-84v86h63
c-20 44 -39 86 -39 132z" />
    <glyph glyph-name="parenleft" unicode="(" horiz-adv-x="356" 
d="M194 307c0 -158 44 -295 119 -398l-90 -56c-74 101 -153 249 -153 454s79 353 153 454l90 -56c-75 -103 -119 -240 -119 -398z" />
    <glyph glyph-name="parenright" unicode=")" horiz-adv-x="356" 
d="M162 307c0 158 -44 295 -119 398l90 56c74 -101 153 -249 153 -454s-79 -353 -153 -454l-90 56c75 103 119 240 119 398z" />
    <glyph glyph-name="bracketleft" unicode="[" horiz-adv-x="334" 
d="M65 750h229v-96h-111v-692h111v-96h-229v884z" />
    <glyph glyph-name="bracketright" unicode="]" horiz-adv-x="334" 
d="M40 750h229v-884h-229v96h111v692h-111v96z" />
    <glyph glyph-name="braceleft" unicode="{" horiz-adv-x="351" 
d="M259 -48c12 0 25 1 36 3l19 -87c-18 -5 -54 -11 -82 -11c-84 0 -132 41 -132 117c0 71 36 170 36 222c0 54 -31 58 -86 58v104c55 0 86 4 86 58c0 52 -36 151 -36 222c0 76 48 117 132 117c28 0 64 -6 82 -11l-19 -87c-11 2 -24 3 -36 3c-25 0 -43 -17 -43 -42
c0 -59 34 -142 34 -212c0 -46 -23 -77 -64 -90v-20c41 -13 64 -44 64 -90c0 -70 -34 -153 -34 -212c0 -25 18 -42 43 -42z" />
    <glyph glyph-name="braceright" unicode="}" horiz-adv-x="351" 
d="M92 658c-12 0 -25 -1 -36 -3l-19 87c18 5 54 11 82 11c84 0 132 -41 132 -117c0 -71 -36 -170 -36 -222c0 -54 31 -58 86 -58v-104c-55 0 -86 -4 -86 -58c0 -52 36 -151 36 -222c0 -76 -48 -117 -132 -117c-28 0 -64 6 -82 11l19 87c11 -2 24 -3 36 -3c25 0 43 17 43 42
c0 59 -34 142 -34 212c0 46 23 77 64 90v20c-41 13 -64 44 -64 90c0 70 34 153 34 212c0 25 -18 42 -43 42z" />
    <glyph glyph-name="yen" unicode="&#xa5;" horiz-adv-x="605" 
d="M509 247h-136v-56h136v-86h-136v-105h-143v105h-137v86h137v56h-137v86h80v25l-153 283v25h144l126 -259h25l127 259h143v-25l-154 -283v-25h78v-86z" />
    <glyph glyph-name="section" unicode="&#xa7;" horiz-adv-x="588" 
d="M522 264c0 -49 -27 -95 -66 -125c16 -22 26 -49 26 -83c0 -90 -84 -148 -196 -148c-101 0 -176 29 -212 119l111 46c13 -39 42 -71 101 -71c38 0 61 20 61 50c0 25 -15 40 -43 53l-138 64c-70 32 -111 72 -111 151c0 49 26 95 66 125c-16 22 -26 48 -26 83
c0 90 84 148 196 148c101 0 176 -29 212 -119l-111 -46c-13 39 -42 71 -101 71c-38 0 -61 -20 -61 -50c0 -25 15 -40 43 -53l138 -64c70 -32 111 -72 111 -151zM221 371c-12 6 -25 12 -36 19c-12 -12 -19 -26 -19 -42c0 -36 27 -53 62 -70l128 -65c12 -6 24 -12 36 -19
c12 12 19 26 19 42c0 36 -27 53 -62 70z" />
    <glyph glyph-name="partialdiff" unicode="&#x2202;" 
d="M360 461h25c-24 88 -143 170 -216 194l44 98c188 -68 331 -224 331 -468c0 -163 -75 -295 -246 -295c-158 0 -251 100 -251 267c0 160 88 250 206 250c34 0 77 -11 107 -46zM403 255c0 103 -38 154 -109 154s-109 -51 -109 -154s38 -154 109 -154s109 51 109 154z" />
    <glyph glyph-name="periodcentered" unicode="&#xb7;" horiz-adv-x="329" 
d="M65 316c0 55 44 100 99 100s100 -45 100 -100s-45 -99 -100 -99s-99 44 -99 99z" />
    <glyph glyph-name="bullet" unicode="&#x2022;" horiz-adv-x="371" 
d="M55 312c0 72 58 130 131 130c72 0 130 -58 130 -130c0 -73 -58 -131 -130 -131c-73 0 -131 58 -131 131z" />
    <glyph glyph-name="paragraph" unicode="&#xb6;" horiz-adv-x="649" 
d="M40 454c0 130 77 212 224 212h123v-666h-103v242h-20c-147 0 -224 82 -224 212zM466 666h103v-666h-103v666z" />
    <glyph glyph-name="germandbls" unicode="&#xdf;" horiz-adv-x="655" 
d="M619 205c0 -136 -91 -212 -223 -212c-36 0 -72 10 -98 20l32 102c27 -11 43 -15 66 -15c42 0 86 34 86 102c0 84 -44 117 -144 117v121c72 17 83 70 83 118c0 42 -30 80 -78 80c-71 0 -91 -50 -91 -125v-513h-132v400h-79v110h79v29c0 107 56 202 227 202
c127 0 208 -72 208 -169c0 -96 -59 -136 -99 -152v-25c93 -8 163 -72 163 -190z" />
    <glyph glyph-name="copyright" unicode="&#xa9;" 
d="M255 351c0 -77 13 -126 53 -126c26 0 35 32 35 60l87 -10c-2 -68 -42 -124 -122 -124c-92 0 -140 71 -140 200s48 200 140 200c80 0 120 -56 122 -124l-87 -10c0 28 -9 60 -35 60c-40 0 -53 -49 -53 -126zM305 42c130 0 201 105 201 309s-71 309 -201 309
s-201 -105 -201 -309s71 -309 201 -309zM305 -12c-164 0 -260 129 -260 363s96 363 260 363s260 -129 260 -363s-96 -363 -260 -363z" />
    <glyph glyph-name="registered" unicode="&#xae;" horiz-adv-x="497" 
d="M452 510c0 -114 -89 -203 -203 -203c-115 0 -204 89 -204 203c0 115 89 204 204 204c114 0 203 -89 203 -204zM412 510c0 95 -72 170 -163 170c-93 0 -164 -75 -164 -170s71 -169 164 -169c91 0 163 74 163 169zM248 575h-21v-48h18c19 0 34 4 34 25c0 19 -14 23 -31 23z
M295 512v-20c34 -1 39 -19 39 -44v-1c0 -11 3 -16 11 -17v-25h-58c-11 6 -14 21 -14 35v7c0 26 -7 37 -28 37h-18v-79h-60v214h86c60 0 84 -22 84 -60c0 -24 -16 -44 -42 -47z" />
    <glyph glyph-name="trademark" unicode="&#x2122;" horiz-adv-x="707" 
d="M20 597v69h249v-69h-87v-226h-76v226h-86zM597 371v215h-25l-38 -215h-100l-38 215h-25v-215h-69v295h130l41 -219h25l40 219h129v-295h-70z" />
    <glyph glyph-name="degree" unicode="&#xb0;" horiz-adv-x="420" 
d="M49 521c0 91 70 161 161 161s161 -70 161 -161s-70 -161 -161 -161s-161 70 -161 161zM133 521c0 -47 33 -82 77 -82s77 35 77 82s-33 82 -77 82s-77 -35 -77 -82z" />
    <glyph glyph-name="asterisk" unicode="*" horiz-adv-x="524" 
d="M325 730l-35 -128l18 -12l110 71l41 -121l-131 -7l-6 -22l102 -80l-104 -76l-44 119h-23l-46 -121l-105 76l101 80l-7 22l-131 9l40 120l110 -71l18 12l-35 129h127z" />
    <glyph glyph-name="equal" unicode="=" 
d="M112 123v111h387v-111h-387zM112 351v111h387v-111h-387z" />
    <glyph glyph-name="notequal" unicode="&#x2260;" 
d="M111 351v111h241l64 112l75 -42l-40 -70h47v-111h-110l-67 -117h177v-111h-240l-64 -113l-76 43l40 70h-47v111h110l67 117h-177z" />
    <glyph glyph-name="plusminus" unicode="&#xb1;" 
d="M87 327v111h156v132h121v-132h158v-111h-158v-132h-121v132h-156zM87 0v111h435v-111h-435z" />
    <glyph glyph-name="lessequal" unicode="&#x2264;" 
d="M111 0v111h397v-111h-397zM508 489l-243 -95v-26l243 -95v-111h-26l-376 159v120l376 159h26v-111z" />
    <glyph glyph-name="greaterequal" unicode="&#x2265;" 
d="M503 111v-111h-397v111h397zM349 394l-243 95v111h26l376 -159v-120l-376 -159h-26v111l243 95v26z" />
    <glyph glyph-name="less" unicode="&#x3c;" 
d="M506 404l-243 -95v-26l243 -95v-111h-26l-376 159v120l376 159h26v-111z" />
    <glyph glyph-name="greater" unicode="&#x3e;" 
d="M347 309l-243 95v111h26l376 -159v-120l-376 -159h-26v111l243 95v26z" />
    <glyph glyph-name="minus" unicode="&#x2212;" 
d="M111 237v111h387v-111h-387z" />
    <glyph glyph-name="multiply" unicode="&#xd7;" 
d="M187 97l-78 79l116 116l-117 117l79 78l116 -117l118 118l78 -79l-117 -117l117 -117l-79 -78l-117 116z" />
    <glyph glyph-name="divide" unicode="&#xf7;" 
d="M111 237v111h387v-111h-387zM216 89c0 50 40 90 89 90c50 0 90 -40 90 -90c0 -49 -40 -89 -90 -89c-49 0 -89 40 -89 89zM216 496c0 49 40 90 89 90c50 0 90 -41 90 -90c0 -50 -40 -89 -90 -89c-49 0 -89 39 -89 89z" />
    <glyph glyph-name="approxequal" unicode="&#x2248;" 
d="M196 108l-95 20c10 103 56 143 117 143c62 0 119 -50 162 -50c21 0 29 27 34 57l94 -20c-10 -105 -55 -145 -116 -145c-62 0 -120 52 -162 52c-22 0 -29 -28 -34 -57zM196 312l-95 20c10 103 56 143 117 143c62 0 119 -50 162 -50c21 0 29 27 34 57l94 -20
c-10 -105 -55 -145 -116 -145c-62 0 -120 52 -162 52c-22 0 -29 -28 -34 -57z" />
    <glyph glyph-name="Delta" unicode="&#x2206;" horiz-adv-x="687" 
d="M30 0v25l222 641h184l221 -641v-25h-627zM331 515l-130 -402h282l-127 402h-25z" />
    <glyph glyph-name="guillemotleft" unicode="&#xab;" horiz-adv-x="541" 
d="M187 248l90 -178v-20h-100l-122 198l122 198h100v-20zM396 248l90 -178v-20h-100l-122 198l122 198h100v-20z" />
    <glyph glyph-name="guillemotright" unicode="&#xbb;" horiz-adv-x="541" 
d="M264 70l90 178l-90 178v20h100l122 -198l-122 -198h-100v20zM55 70l90 178l-90 178v20h100l122 -198l-122 -198h-100v20z" />
    <glyph glyph-name="quotedblleft" unicode="&#x201c;" horiz-adv-x="516" 
d="M226 494c0 -48 -36 -85 -83 -85c-48 0 -88 37 -88 104s31 113 102 230l58 -34l-69 -108v-23c47 0 80 -37 80 -84zM461 494c0 -48 -36 -85 -83 -85c-48 0 -88 37 -88 104s31 113 102 230l58 -34l-69 -108v-23c47 0 80 -37 80 -84z" />
    <glyph glyph-name="quotedblright" unicode="&#x201d;" horiz-adv-x="515" 
d="M55 658c0 48 36 85 83 85c48 0 88 -37 88 -104s-31 -113 -102 -230l-58 34l69 108v23c-47 0 -80 37 -80 84zM289 658c0 48 36 85 83 85c48 0 88 -37 88 -104s-31 -113 -102 -230l-58 34l69 108v23c-47 0 -80 37 -80 84z" />
    <glyph glyph-name="quoteleft" unicode="&#x2018;" horiz-adv-x="281" 
d="M226 494c0 -48 -36 -85 -83 -85c-48 0 -88 37 -88 104s31 113 102 230l58 -34l-69 -108v-23c47 0 80 -37 80 -84z" />
    <glyph glyph-name="quoteright" unicode="&#x2019;" horiz-adv-x="281" 
d="M55 658c0 48 36 85 83 85c48 0 88 -37 88 -104s-31 -113 -102 -230l-58 34l69 108v23c-47 0 -80 37 -80 84z" />
    <glyph glyph-name="quotesinglbase" unicode="&#x201a;" horiz-adv-x="281" 
d="M55 78c0 48 36 85 83 85c48 0 88 -37 88 -104s-31 -113 -102 -230l-58 34l69 108v23c-47 0 -80 37 -80 84z" />
    <glyph glyph-name="quotedblbase" unicode="&#x201e;" horiz-adv-x="515" 
d="M55 78c0 48 36 85 83 85c48 0 88 -37 88 -104s-31 -113 -102 -230l-58 34l69 108v23c-47 0 -80 37 -80 84zM289 78c0 48 36 85 83 85c48 0 88 -37 88 -104s-31 -113 -102 -230l-58 34l69 108v23c-47 0 -80 37 -80 84z" />
    <glyph glyph-name="guilsinglleft" unicode="&#x2039;" horiz-adv-x="322" 
d="M177 248l90 -178v-20h-100l-122 198l122 198h100v-20z" />
    <glyph glyph-name="guilsinglright" unicode="&#x203a;" horiz-adv-x="322" 
d="M55 70l90 178l-90 178v20h100l122 -198l-122 -198h-100v20z" />
    <glyph glyph-name="circumflex" unicode="&#x2c6;" 
d="M468 598v-25h-83l-69 75h-24l-70 -75h-82v25l102 148h124z" />
    <glyph glyph-name="acute" unicode="&#xb4;" 
d="M225 573v25l45 148h133v-25l-98 -148h-80z" />
    <glyph glyph-name="grave" unicode="`" 
d="M403 598v-25h-80l-98 148v25h133z" />
    <glyph glyph-name="dieresis" unicode="&#xa8;" horiz-adv-x="558" 
d="M104 665c0 43 33 77 76 77s78 -34 78 -77c0 -42 -35 -77 -78 -77s-76 35 -76 77zM330 665c0 43 35 77 77 77c43 0 77 -34 77 -77c0 -42 -34 -77 -77 -77c-42 0 -77 35 -77 77z" />
    <glyph glyph-name="tilde" unicode="&#x2dc;" 
d="M365 582c-48 0 -80 46 -117 46c-18 0 -26 -18 -31 -46l-89 15c10 89 44 135 112 135c48 0 80 -46 117 -46c18 0 23 18 28 46l89 -15c-10 -89 -41 -135 -109 -135z" />
    <glyph glyph-name="macron" unicode="&#xaf;" 
d="M172 590v95h266v-95h-266z" />
    <glyph glyph-name="breve" unicode="&#x2d8;" 
d="M305 577c-77 0 -151 36 -159 154l95 13c5 -41 20 -74 64 -74s59 33 64 74l95 -13c-8 -117 -82 -154 -159 -154z" />
    <glyph glyph-name="dotaccent" unicode="&#x2d9;" 
d="M222 659c0 45 36 81 81 81s81 -36 81 -81s-36 -81 -81 -81s-81 36 -81 81z" />
    <glyph glyph-name="ring" unicode="&#x2da;" 
d="M182 688c0 68 52 118 123 118s123 -50 123 -118c0 -69 -52 -119 -123 -119s-123 50 -123 119zM252 688c0 -32 24 -57 53 -57s53 25 53 57s-24 56 -53 56s-53 -24 -53 -56z" />
    <glyph glyph-name="cedilla" unicode="&#xb8;" 
d="M349 19l-46 -62c9 4 24 6 38 6c38 0 78 -27 78 -75c0 -54 -45 -95 -121 -95c-52 0 -95 23 -114 38l41 58c16 -15 42 -28 72 -28c33 0 41 16 41 28c0 13 -12 22 -36 22c-12 0 -34 -5 -45 -12l-35 29l64 91h63z" />
    <glyph glyph-name="hungarumlaut" unicode="&#x2dd;" 
d="M139 563v25l53 148h116v-25l-83 -148h-86zM302 563v25l53 148h116v-25l-83 -148h-86z" />
    <glyph glyph-name="ogonek" unicode="&#x2db;" 
d="M380 -102l30 -79c-21 -13 -62 -26 -103 -26c-69 0 -111 35 -111 86c0 56 54 104 91 121h90c-50 -21 -85 -52 -85 -83c0 -23 20 -32 38 -32c20 0 36 6 50 13z" />
    <glyph glyph-name="caron" unicode="&#x2c7;" 
d="M468 746v-25l-102 -148h-124l-102 148v25h82l70 -75h24l69 75h83z" />
    <glyph glyph-name="Acircumflex" unicode="&#xc2;" horiz-adv-x="687" 
d="M519 0l-45 142h-263l-46 -142h-135v25l222 641h184l221 -641v-25h-138zM331 515l-84 -260h191l-82 260h-25zM507 728v-25h-83l-69 75h-24l-70 -75h-82v25l102 148h124z" />
    <glyph glyph-name="Adieresis" unicode="&#xc4;" horiz-adv-x="687" 
d="M519 0l-45 142h-263l-46 -142h-135v25l222 641h184l221 -641v-25h-138zM331 515l-84 -260h191l-82 260h-25zM156 791c0 43 33 77 76 77s78 -34 78 -77c0 -42 -35 -77 -78 -77s-76 35 -76 77zM382 791c0 43 35 77 77 77c43 0 77 -34 77 -77c0 -42 -34 -77 -77 -77
c-42 0 -77 35 -77 77z" />
    <glyph glyph-name="Aring" unicode="&#xc5;" horiz-adv-x="687" 
d="M222 723c0 68 52 118 123 118s123 -50 123 -118c0 -30 -9 -56 -26 -76l215 -622v-25h-138l-45 142h-263l-46 -142h-135v25l216 624c-16 20 -24 45 -24 74zM331 515l-84 -260h191l-82 260h-25zM292 723c0 -31 21 -55 48 -57h9c27 2 49 26 49 57c0 32 -24 56 -53 56
s-53 -24 -53 -56z" />
    <glyph glyph-name="Agrave" unicode="&#xc0;" horiz-adv-x="687" 
d="M519 0l-45 142h-263l-46 -142h-135v25l222 641h184l221 -641v-25h-138zM331 515l-84 -260h191l-82 260h-25zM393 728v-25h-80l-98 148v25h133z" />
    <glyph glyph-name="Atilde" unicode="&#xc3;" horiz-adv-x="687" 
d="M519 0l-45 142h-263l-46 -142h-135v25l222 641h184l221 -641v-25h-138zM331 515l-84 -260h191l-82 260h-25zM408 712c-48 0 -80 46 -117 46c-18 0 -26 -18 -31 -46l-89 15c10 89 44 135 112 135c48 0 80 -46 117 -46c18 0 23 18 28 46l89 -15c-10 -89 -41 -135 -109 -135
z" />
    <glyph glyph-name="Aacute" unicode="&#xc1;" horiz-adv-x="687" 
d="M519 0l-45 142h-263l-46 -142h-135v25l222 641h184l221 -641v-25h-138zM331 515l-84 -260h191l-82 260h-25zM296 703v25l45 148h133v-25l-98 -148h-80z" />
    <glyph glyph-name="AE" unicode="&#xc6;" horiz-adv-x="979" 
d="M458 0v142h-247l-46 -142h-135v25l222 641h660v-121h-311v-147h272v-113h-272v-164h318v-121h-461zM341 545l-94 -290h211v290h-117z" />
    <glyph glyph-name="Ecircumflex" unicode="&#xca;" horiz-adv-x="601" 
d="M80 0v666h454v-121h-311v-147h272v-113h-272v-164h318v-121h-461zM469 728v-25h-83l-69 75h-24l-70 -75h-82v25l102 148h124z" />
    <glyph glyph-name="Edieresis" unicode="&#xcb;" horiz-adv-x="601" 
d="M80 0v666h454v-121h-311v-147h272v-113h-272v-164h318v-121h-461zM118 791c0 43 33 77 76 77s78 -34 78 -77c0 -42 -35 -77 -78 -77s-76 35 -76 77zM344 791c0 43 35 77 77 77c43 0 77 -34 77 -77c0 -42 -34 -77 -77 -77c-42 0 -77 35 -77 77z" />
    <glyph glyph-name="Egrave" unicode="&#xc8;" horiz-adv-x="601" 
d="M80 0v666h454v-121h-311v-147h272v-113h-272v-164h318v-121h-461zM358 728v-25h-80l-98 148v25h133z" />
    <glyph glyph-name="Eacute" unicode="&#xc9;" horiz-adv-x="601" 
d="M80 0v666h454v-121h-311v-147h272v-113h-272v-164h318v-121h-461zM274 703v25l45 148h133v-25l-98 -148h-80z" />
    <glyph glyph-name="Iacute" unicode="&#xcd;" horiz-adv-x="303" 
d="M80 0v666h143v-666h-143zM109 703v25l45 148h133v-25l-98 -148h-80z" />
    <glyph glyph-name="Icircumflex" unicode="&#xce;" horiz-adv-x="303" 
d="M80 0v666h143v-666h-143zM314 728v-25h-83l-69 75h-24l-70 -75h-82v25l102 148h124z" />
    <glyph glyph-name="Idieresis" unicode="&#xcf;" horiz-adv-x="303" 
d="M80 0v666h143v-666h-143zM-37 791c0 43 33 77 76 77s78 -34 78 -77c0 -42 -35 -77 -78 -77s-76 35 -76 77zM189 791c0 43 35 77 77 77c43 0 77 -34 77 -77c0 -42 -34 -77 -77 -77c-42 0 -77 35 -77 77z" />
    <glyph glyph-name="Igrave" unicode="&#xcc;" horiz-adv-x="303" 
d="M80 0v666h143v-666h-143zM193 728v-25h-80l-98 148v25h133z" />
    <glyph glyph-name="Oacute" unicode="&#xd3;" horiz-adv-x="714" 
d="M195 333c0 -137 49 -222 162 -222s162 85 162 222s-49 222 -162 222s-162 -85 -162 -222zM669 333c0 -220 -117 -343 -312 -343s-312 123 -312 343s117 343 312 343s312 -123 312 -343zM324 703v25l45 148h133v-25l-98 -148h-80z" />
    <glyph glyph-name="Odieresis" unicode="&#xd6;" horiz-adv-x="714" 
d="M195 333c0 -137 49 -222 162 -222s162 85 162 222s-49 222 -162 222s-162 -85 -162 -222zM669 333c0 -220 -117 -343 -312 -343s-312 123 -312 343s117 343 312 343s312 -123 312 -343zM168 791c0 43 33 77 76 77s78 -34 78 -77c0 -42 -35 -77 -78 -77s-76 35 -76 77z
M394 791c0 43 35 77 77 77c43 0 77 -34 77 -77c0 -42 -34 -77 -77 -77c-42 0 -77 35 -77 77z" />
    <glyph glyph-name="Ocircumflex" unicode="&#xd4;" horiz-adv-x="714" 
d="M195 333c0 -137 49 -222 162 -222s162 85 162 222s-49 222 -162 222s-162 -85 -162 -222zM669 333c0 -220 -117 -343 -312 -343s-312 123 -312 343s117 343 312 343s312 -123 312 -343zM519 728v-25h-83l-69 75h-24l-70 -75h-82v25l102 148h124z" />
    <glyph glyph-name="Otilde" unicode="&#xd5;" horiz-adv-x="714" 
d="M195 333c0 -137 49 -222 162 -222s162 85 162 222s-49 222 -162 222s-162 -85 -162 -222zM669 333c0 -220 -117 -343 -312 -343s-312 123 -312 343s117 343 312 343s312 -123 312 -343zM420 712c-48 0 -80 46 -117 46c-18 0 -26 -18 -31 -46l-89 15c10 89 44 135 112 135
c48 0 80 -46 117 -46c18 0 23 18 28 46l89 -15c-10 -89 -41 -135 -109 -135z" />
    <glyph glyph-name="Oslash" unicode="&#xd8;" horiz-adv-x="714" 
d="M669 333c0 -220 -117 -343 -312 -343c-65 0 -121 13 -167 39l-44 -59h-101v25l71 97c-46 57 -71 139 -71 241c0 220 117 343 312 343c62 0 117 -13 162 -37l50 67h100v-25l-76 -103c49 -58 76 -140 76 -245zM523 333c0 48 -6 90 -19 124l-238 -325c24 -16 54 -25 91 -25
c115 0 166 87 166 226zM191 333c0 -45 5 -85 16 -118l237 321c-24 15 -52 23 -87 23c-115 0 -166 -87 -166 -226z" />
    <glyph glyph-name="Ograve" unicode="&#xd2;" horiz-adv-x="714" 
d="M195 333c0 -137 49 -222 162 -222s162 85 162 222s-49 222 -162 222s-162 -85 -162 -222zM669 333c0 -220 -117 -343 -312 -343s-312 123 -312 343s117 343 312 343s312 -123 312 -343zM408 728v-25h-80l-98 148v25h133z" />
    <glyph glyph-name="OE" unicode="&#x152;" horiz-adv-x="991" 
d="M335 666h589v-121h-310v-147h271v-113h-271v-164h317v-121h-596c-187 0 -290 132 -290 333s103 333 290 333zM470 545h-108c-128 0 -167 -78 -167 -212s39 -212 167 -212h108v424z" />
    <glyph glyph-name="Aringacute" unicode="&#x1fa;" horiz-adv-x="687" 
d="M376 861v-25c53 -13 89 -57 89 -113c0 -28 -9 -54 -24 -73l216 -625v-25h-138l-45 142h-263l-46 -142h-135v25l215 621c-17 20 -26 47 -26 77c0 26 7 48 20 67l94 140h134v-25zM331 515l-84 -260h191l-82 260h-25zM289 723c0 -32 24 -57 53 -57h4c27 2 49 26 49 57
c0 32 -24 56 -53 56s-53 -24 -53 -56z" />
    <glyph glyph-name="Abreve" unicode="&#x102;" horiz-adv-x="687" 
d="M519 0l-45 142h-263l-46 -142h-135v25l222 641h184l221 -641v-25h-138zM331 515l-84 -260h191l-82 260h-25zM345 707c-77 0 -151 36 -159 154l95 13c5 -41 20 -74 64 -74s59 33 64 74l95 -13c-8 -117 -82 -154 -159 -154z" />
    <glyph glyph-name="Amacron" unicode="&#x100;" horiz-adv-x="687" 
d="M519 0l-45 142h-263l-46 -142h-135v25l222 641h184l221 -641v-25h-138zM331 515l-84 -260h191l-82 260h-25zM217 720v95h266v-95h-266z" />
    <glyph glyph-name="Aogonek" unicode="&#x104;" horiz-adv-x="687" 
d="M660 -102l30 -79c-21 -13 -62 -26 -103 -26c-69 0 -111 35 -111 86c0 39 25 73 53 97l-55 166h-263l-46 -142h-135v25l222 641h184l221 -641v-25l-17 -7c-41 -21 -68 -48 -68 -76c0 -23 20 -32 38 -32c20 0 36 6 50 13zM331 515l-84 -260h191l-82 260h-25z" />
    <glyph glyph-name="Cdotaccent" unicode="&#x10a;" horiz-adv-x="674" 
d="M195 333c0 -137 49 -222 162 -222c80 0 120 50 134 109l141 -37c-20 -113 -124 -193 -276 -193c-195 0 -311 123 -311 343s116 343 311 343c152 0 256 -80 276 -193l-141 -37c-14 59 -54 109 -134 109c-113 0 -162 -85 -162 -222zM274 789c0 45 36 81 81 81
s81 -36 81 -81s-36 -81 -81 -81s-81 36 -81 81z" />
    <glyph glyph-name="Cacute" unicode="&#x106;" horiz-adv-x="674" 
d="M195 333c0 -137 49 -222 162 -222c80 0 120 50 134 109l141 -37c-20 -113 -124 -193 -276 -193c-195 0 -311 123 -311 343s116 343 311 343c152 0 256 -80 276 -193l-141 -37c-14 59 -54 109 -134 109c-113 0 -162 -85 -162 -222zM322 703v25l45 148h133v-25l-98 -148
h-80z" />
    <glyph glyph-name="Ccaron" unicode="&#x10c;" horiz-adv-x="674" 
d="M195 333c0 -137 49 -222 162 -222c80 0 120 50 134 109l141 -37c-20 -113 -124 -193 -276 -193c-195 0 -311 123 -311 343s116 343 311 343c152 0 256 -80 276 -193l-141 -37c-14 59 -54 109 -134 109c-113 0 -162 -85 -162 -222zM518 876v-25l-102 -148h-124l-102 148
v25h82l70 -75h24l69 75h83z" />
    <glyph glyph-name="Ccedilla" unicode="&#xc7;" horiz-adv-x="674" 
d="M195 333c0 -137 49 -222 162 -222c80 0 120 50 134 109l141 -37c-19 -108 -115 -185 -255 -192l-25 -34c9 4 24 6 38 6c38 0 78 -27 78 -75c0 -54 -45 -95 -121 -95c-52 0 -95 23 -114 38l41 58c16 -15 42 -28 72 -28c33 0 41 16 41 28c0 13 -12 22 -36 22
c-12 0 -34 -5 -45 -12l-35 29l45 64c-171 16 -271 136 -271 341c0 220 116 343 311 343c152 0 256 -80 276 -193l-141 -37c-14 59 -54 109 -134 109c-113 0 -162 -85 -162 -222z" />
    <glyph glyph-name="Ccircumflex" unicode="&#x108;" horiz-adv-x="674" 
d="M195 333c0 -137 49 -222 162 -222c80 0 120 50 134 109l141 -37c-20 -113 -124 -193 -276 -193c-195 0 -311 123 -311 343s116 343 311 343c152 0 256 -80 276 -193l-141 -37c-14 59 -54 109 -134 109c-113 0 -162 -85 -162 -222zM517 728v-25h-83l-69 75h-24l-70 -75
h-82v25l102 148h124z" />
    <glyph glyph-name="Dcaron" unicode="&#x10e;" horiz-adv-x="696" 
d="M80 666h279c187 0 290 -132 290 -333s-103 -333 -290 -333h-279v666zM332 545h-108v-424h108c128 0 167 78 167 212s-39 212 -167 212zM489 876v-25l-102 -148h-124l-102 148v25h82l70 -75h24l69 75h83z" />
    <glyph glyph-name="Dcroat" unicode="&#x110;" horiz-adv-x="711" 
d="M30 282v105h65v279h279c187 0 290 -132 290 -333s-103 -333 -290 -333h-279v282h-65zM347 545h-108v-158h124v-105h-124v-161h108c128 0 167 78 167 212s-39 212 -167 212z" />
    <glyph glyph-name="Eth" unicode="&#xd0;" horiz-adv-x="711" 
d="M30 282v105h65v279h279c187 0 290 -132 290 -333s-103 -333 -290 -333h-279v282h-65zM347 545h-108v-158h124v-105h-124v-161h108c128 0 167 78 167 212s-39 212 -167 212z" />
    <glyph glyph-name="Ebreve" unicode="&#x114;" horiz-adv-x="601" 
d="M80 0v666h454v-121h-311v-147h272v-113h-272v-164h318v-121h-461zM307 707c-77 0 -151 36 -159 154l95 13c5 -41 20 -74 64 -74s59 33 64 74l95 -13c-8 -117 -82 -154 -159 -154z" />
    <glyph glyph-name="Ecaron" unicode="&#x11a;" horiz-adv-x="601" 
d="M80 0v666h454v-121h-311v-147h272v-113h-272v-164h318v-121h-461zM470 876v-25l-102 -148h-124l-102 148v25h82l70 -75h24l69 75h83z" />
    <glyph glyph-name="Edotaccent" unicode="&#x116;" horiz-adv-x="601" 
d="M80 0v666h454v-121h-311v-147h272v-113h-272v-164h318v-121h-461zM226 789c0 45 36 81 81 81s81 -36 81 -81s-36 -81 -81 -81s-81 36 -81 81z" />
    <glyph glyph-name="Emacron" unicode="&#x112;" horiz-adv-x="601" 
d="M80 0v666h454v-121h-311v-147h272v-113h-272v-164h318v-121h-461zM179 720v95h266v-95h-266z" />
    <glyph glyph-name="Eogonek" unicode="&#x118;" horiz-adv-x="601" 
d="M412 -25v25h-332v666h454v-121h-311v-147h272v-113h-272v-164h318v-121c-50 -21 -85 -52 -85 -83c0 -23 20 -32 38 -32c20 0 36 6 50 13l30 -79c-21 -13 -62 -26 -103 -26c-69 0 -111 35 -111 86c0 38 25 73 52 96z" />
    <glyph glyph-name="Gcircumflex" unicode="&#x11c;" horiz-adv-x="713" 
d="M358 257v121h282v-378h-141v84h-25c-13 -49 -70 -94 -157 -94c-167 0 -272 135 -272 343c0 220 116 343 311 343c152 0 248 -77 273 -177l-141 -39c-16 46 -51 95 -131 95c-113 0 -162 -85 -162 -222c0 -146 43 -226 163 -226c89 0 141 61 141 129v21h-141zM518 728v-25
h-83l-69 75h-24l-70 -75h-82v25l102 148h124z" />
    <glyph glyph-name="Gbreve" unicode="&#x11e;" horiz-adv-x="713" 
d="M358 257v121h282v-378h-141v84h-25c-13 -49 -70 -94 -157 -94c-167 0 -272 135 -272 343c0 220 116 343 311 343c152 0 248 -77 273 -177l-141 -39c-16 46 -51 95 -131 95c-113 0 -162 -85 -162 -222c0 -146 43 -226 163 -226c89 0 141 61 141 129v21h-141zM356 707
c-77 0 -151 36 -159 154l95 13c5 -41 20 -74 64 -74s59 33 64 74l95 -13c-8 -117 -82 -154 -159 -154z" />
    <glyph glyph-name="Gcommaaccent" unicode="&#x122;" horiz-adv-x="713" 
d="M358 257v121h282v-378h-141v84h-25c-13 -49 -70 -94 -157 -94c-167 0 -272 135 -272 343c0 220 116 343 311 343c152 0 248 -77 273 -177l-141 -39c-16 46 -51 95 -131 95c-113 0 -162 -85 -162 -222c0 -146 43 -226 163 -226c89 0 141 61 141 129v21h-141zM328 -311
l-48 26l47 75v25c-42 0 -71 33 -71 74c0 40 33 70 76 70c41 0 78 -30 78 -85c0 -68 -38 -116 -82 -185z" />
    <glyph glyph-name="Gdotaccent" unicode="&#x120;" horiz-adv-x="713" 
d="M358 257v121h282v-378h-141v84h-25c-13 -49 -70 -94 -157 -94c-167 0 -272 135 -272 343c0 220 116 343 311 343c152 0 248 -77 273 -177l-141 -39c-16 46 -51 95 -131 95c-113 0 -162 -85 -162 -222c0 -146 43 -226 163 -226c89 0 141 61 141 129v21h-141zM275 789
c0 45 36 81 81 81s81 -36 81 -81s-36 -81 -81 -81s-81 36 -81 81z" />
    <glyph glyph-name="Hcircumflex" unicode="&#x124;" horiz-adv-x="713" 
d="M80 0v666h143v-269h269v269h141v-666h-141v276h-270v-276h-142zM520 728v-25h-83l-69 75h-24l-70 -75h-82v25l102 148h124z" />
    <glyph glyph-name="Hbar" unicode="&#x126;" horiz-adv-x="743" 
d="M30 430v105h65v131h143v-131h269v131h141v-131h65v-105h-65v-430h-141v216h-270v-216h-142v430h-65zM238 337h269v93h-269v-93z" />
    <glyph glyph-name="Ibreve" unicode="&#x12c;" horiz-adv-x="303" 
d="M80 0v666h143v-666h-143zM152 707c-77 0 -151 36 -159 154l95 13c5 -41 20 -74 64 -74s59 33 64 74l95 -13c-8 -117 -82 -154 -159 -154z" />
    <glyph glyph-name="Idotaccent" unicode="&#x130;" horiz-adv-x="303" 
d="M80 0v666h143v-666h-143zM71 789c0 45 36 81 81 81s81 -36 81 -81s-36 -81 -81 -81s-81 36 -81 81z" />
    <glyph glyph-name="Imacron" unicode="&#x12a;" horiz-adv-x="303" 
d="M80 0v666h143v-666h-143zM24 720v95h266v-95h-266z" />
    <glyph glyph-name="Iogonek" unicode="&#x12e;" horiz-adv-x="303" 
d="M80 -36v702h143v-666c-50 -21 -85 -52 -85 -83c0 -23 20 -32 38 -32c20 0 36 6 50 13l30 -79c-21 -13 -62 -26 -103 -26c-69 0 -111 35 -111 86c0 33 15 60 38 85z" />
    <glyph glyph-name="Itilde" unicode="&#x128;" horiz-adv-x="303" 
d="M80 0v666h143v-666h-143zM215 712c-48 0 -80 46 -117 46c-18 0 -26 -18 -31 -46l-89 15c10 89 44 135 112 135c48 0 80 -46 117 -46c18 0 23 18 28 46l89 -15c-10 -89 -41 -135 -109 -135z" />
    <glyph glyph-name="Jacute" horiz-adv-x="499" 
d="M10 77l91 89c21 -29 56 -55 98 -55c65 0 88 45 88 108v447h142v-448c0 -132 -59 -228 -231 -228c-73 0 -150 31 -188 87zM306 703v25l45 148h133v-25l-98 -148h-80z" />
    <glyph glyph-name="IJ" unicode="&#x132;" horiz-adv-x="802" 
d="M80 0v666h143v-666h-143zM313 77l91 89c21 -29 56 -55 98 -55c65 0 88 45 88 108v447h142v-448c0 -132 -59 -228 -231 -228c-73 0 -150 31 -188 87z" />
    <glyph glyph-name="Jcircumflex" unicode="&#x134;" horiz-adv-x="499" 
d="M10 77l91 89c21 -29 56 -55 98 -55c65 0 88 45 88 108v447h142v-448c0 -132 -59 -228 -231 -228c-73 0 -150 31 -188 87zM520 728v-25h-83l-69 75h-24l-70 -75h-82v25l102 148h124z" />
    <glyph glyph-name="Kcommaaccent" unicode="&#x136;" horiz-adv-x="656" 
d="M623 25v-25h-149l-182 304l-68 -77v-227h-144v666h144v-257h26l222 257h144v-25l-212 -244zM337 -311l-48 26l47 75v25c-42 0 -71 33 -71 74c0 40 33 70 76 70c41 0 78 -30 78 -85c0 -68 -38 -116 -82 -185z" />
    <glyph glyph-name="Lacute" unicode="&#x139;" horiz-adv-x="546" 
d="M80 0v666h143v-550h291v-116h-434zM100 703v25l45 148h133v-25l-98 -148h-80z" />
    <glyph glyph-name="Lcaron" unicode="&#x13d;" horiz-adv-x="546" 
d="M80 0v666h143v-550h291v-116h-434zM468 666v-25l-60 -168h-72v193h132z" />
    <glyph glyph-name="Lslash" unicode="&#x141;" horiz-adv-x="561" 
d="M55 189h-25v102l65 36v339h143v-260l85 47h25v-102l-110 -61v-174h291v-116h-434v211z" />
    <glyph glyph-name="Lcommaaccent" unicode="&#x13b;" horiz-adv-x="546" 
d="M80 0v666h143v-550h291v-116h-434zM304 -311l-48 26l47 75v25c-42 0 -71 33 -71 74c0 40 33 70 76 70c41 0 78 -30 78 -85c0 -68 -38 -116 -82 -185z" />
    <glyph glyph-name="Ldot" unicode="&#x13f;" horiz-adv-x="554" 
d="M80 0v666h143v-550h291v-116h-434zM330 376c0 45 36 81 81 81s81 -36 81 -81s-36 -81 -81 -81s-81 36 -81 81z" />
    <glyph glyph-name="Nacute" unicode="&#x143;" horiz-adv-x="731" 
d="M499 220h25v446h127v-666h-159l-260 446h-25v-446h-127v666h163zM323 703v25l45 148h133v-25l-98 -148h-80z" />
    <glyph glyph-name="Ncaron" unicode="&#x147;" horiz-adv-x="731" 
d="M499 220h25v446h127v-666h-159l-260 446h-25v-446h-127v666h163zM539 876v-25l-102 -148h-124l-102 148v25h82l70 -75h24l69 75h83z" />
    <glyph glyph-name="Ncommaaccent" unicode="&#x145;" horiz-adv-x="731" 
d="M499 220h25v446h127v-666h-159l-260 446h-25v-446h-127v666h163zM360 -311l-48 26l47 75v25c-42 0 -71 33 -71 74c0 40 33 70 76 70c41 0 78 -30 78 -85c0 -68 -38 -116 -82 -185z" />
    <glyph glyph-name="Ntilde" unicode="&#xd1;" horiz-adv-x="731" 
d="M499 220h25v446h127v-666h-159l-260 446h-25v-446h-127v666h163zM439 712c-48 0 -80 46 -117 46c-18 0 -26 -18 -31 -46l-89 15c10 89 44 135 112 135c48 0 80 -46 117 -46c18 0 23 18 28 46l89 -15c-10 -89 -41 -135 -109 -135z" />
    <glyph glyph-name="Eng" unicode="&#x14a;" horiz-adv-x="731" 
d="M499 220h25v446h127v-708c0 -98 -62 -168 -176 -168c-27 0 -57 2 -79 12l28 106c9 -3 23 -6 36 -6c34 0 59 26 59 71v27h-27l-260 446h-25v-446h-127v666h163z" />
    <glyph glyph-name="Obreve" unicode="&#x14e;" horiz-adv-x="714" 
d="M195 333c0 -137 49 -222 162 -222s162 85 162 222s-49 222 -162 222s-162 -85 -162 -222zM669 333c0 -220 -117 -343 -312 -343s-312 123 -312 343s117 343 312 343s312 -123 312 -343zM357 707c-77 0 -151 36 -159 154l95 13c5 -41 20 -74 64 -74s59 33 64 74l95 -13
c-8 -117 -82 -154 -159 -154z" />
    <glyph glyph-name="Ohungarumlaut" unicode="&#x150;" horiz-adv-x="714" 
d="M195 333c0 -137 49 -222 162 -222s162 85 162 222s-49 222 -162 222s-162 -85 -162 -222zM669 333c0 -220 -117 -343 -312 -343s-312 123 -312 343s117 343 312 343s312 -123 312 -343zM235 693v25l53 148h116v-25l-83 -148h-86zM398 693v25l53 148h116v-25l-83 -148h-86
z" />
    <glyph glyph-name="Omacron" unicode="&#x14c;" horiz-adv-x="714" 
d="M195 333c0 -137 49 -222 162 -222s162 85 162 222s-49 222 -162 222s-162 -85 -162 -222zM669 333c0 -220 -117 -343 -312 -343s-312 123 -312 343s117 343 312 343s312 -123 312 -343zM229 720v95h266v-95h-266z" />
    <glyph glyph-name="Oslashacute" unicode="&#x1fe;" horiz-adv-x="714" 
d="M669 333c0 -220 -117 -343 -312 -343c-65 0 -121 13 -167 39l-44 -59h-101v25l71 97c-46 57 -71 139 -71 241c0 220 117 343 312 343c62 0 117 -13 162 -37l50 67h100v-25l-76 -103c49 -58 76 -140 76 -245zM523 333c0 48 -6 90 -19 124l-238 -325c24 -16 54 -25 91 -25
c115 0 166 87 166 226zM191 333c0 -45 5 -85 16 -118l237 321c-24 15 -52 23 -87 23c-115 0 -166 -87 -166 -226zM324 703v25l45 148h133v-25l-98 -148h-80z" />
    <glyph glyph-name="Thorn" unicode="&#xde;" horiz-adv-x="618" 
d="M223 666v-115h115c164 0 250 -85 250 -217s-86 -218 -250 -218h-115v-116h-143v666h143zM337 444h-114v-221h114c65 0 106 35 106 111s-41 110 -106 110z" />
    <glyph glyph-name="Racute" unicode="&#x154;" horiz-adv-x="667" 
d="M470 331v-25c87 0 106 -55 106 -118v-67c0 -39 13 -73 34 -96v-25h-151c-23 24 -32 62 -32 102v70c0 72 -29 95 -84 95h-120v-267h-143v666h275c153 0 233 -80 233 -189c0 -78 -45 -136 -118 -146zM444 465c0 57 -33 94 -105 94h-116v-187h116c72 0 105 36 105 93z
M273 703v25l45 148h133v-25l-98 -148h-80z" />
    <glyph glyph-name="Rcaron" unicode="&#x158;" horiz-adv-x="667" 
d="M470 331v-25c87 0 106 -55 106 -118v-67c0 -39 13 -73 34 -96v-25h-151c-23 24 -32 62 -32 102v70c0 72 -29 95 -84 95h-120v-267h-143v666h275c153 0 233 -80 233 -189c0 -78 -45 -136 -118 -146zM444 465c0 57 -33 94 -105 94h-116v-187h116c72 0 105 36 105 93z
M469 876v-25l-102 -148h-124l-102 148v25h82l70 -75h24l69 75h83z" />
    <glyph glyph-name="Rcommaaccent" unicode="&#x156;" horiz-adv-x="667" 
d="M470 331v-25c87 0 106 -55 106 -118v-67c0 -39 13 -73 34 -96v-25h-151c-23 24 -32 62 -32 102v70c0 72 -29 95 -84 95h-120v-267h-143v666h275c153 0 233 -80 233 -189c0 -78 -45 -136 -118 -146zM444 465c0 57 -33 94 -105 94h-116v-187h116c72 0 105 36 105 93z
M334 -311l-48 26l47 75v25c-42 0 -71 33 -71 74c0 40 33 70 76 70c41 0 78 -30 78 -85c0 -68 -38 -116 -82 -185z" />
    <glyph glyph-name="Sacute" unicode="&#x15a;" horiz-adv-x="624" 
d="M36 140l129 58c20 -52 74 -94 146 -94c82 0 122 32 122 77c0 50 -27 63 -103 83l-92 24c-113 29 -175 98 -175 193c0 116 96 195 242 195c163 0 234 -71 255 -143l-130 -48c-14 44 -57 77 -118 77c-65 0 -106 -28 -106 -76c0 -33 15 -58 77 -74l107 -28
c124 -32 186 -94 186 -191c0 -126 -112 -203 -264 -203c-165 0 -243 61 -276 150zM272 703v25l45 148h133v-25l-98 -148h-80z" />
    <glyph glyph-name="Scedilla" unicode="&#x15e;" horiz-adv-x="624" 
d="M36 140l129 58c20 -52 74 -94 146 -94c82 0 122 32 122 77c0 50 -27 63 -103 83l-92 24c-113 29 -175 98 -175 193c0 116 96 195 242 195c163 0 234 -71 255 -143l-130 -48c-14 44 -57 77 -118 77c-65 0 -106 -28 -106 -76c0 -33 15 -58 77 -74l107 -28
c124 -32 186 -94 186 -191c0 -120 -102 -195 -243 -202l-25 -34c9 4 24 6 38 6c38 0 78 -27 78 -75c0 -54 -45 -95 -121 -95c-52 0 -95 23 -114 38l41 58c16 -15 42 -28 72 -28c33 0 41 16 41 28c0 13 -12 22 -36 22c-12 0 -34 -5 -45 -12l-35 29l44 64
c-137 9 -205 66 -235 148z" />
    <glyph glyph-name="Scircumflex" unicode="&#x15c;" horiz-adv-x="624" 
d="M36 140l129 58c20 -52 74 -94 146 -94c82 0 122 32 122 77c0 50 -27 63 -103 83l-92 24c-113 29 -175 98 -175 193c0 116 96 195 242 195c163 0 234 -71 255 -143l-130 -48c-14 44 -57 77 -118 77c-65 0 -106 -28 -106 -76c0 -33 15 -58 77 -74l107 -28
c124 -32 186 -94 186 -191c0 -126 -112 -203 -264 -203c-165 0 -243 61 -276 150zM467 728v-25h-83l-69 75h-24l-70 -75h-82v25l102 148h124z" />
    <glyph glyph-name="Scaron" unicode="&#x160;" horiz-adv-x="624" 
d="M36 140l129 58c20 -52 74 -94 146 -94c82 0 122 32 122 77c0 50 -27 63 -103 83l-92 24c-113 29 -175 98 -175 193c0 116 96 195 242 195c163 0 234 -71 255 -143l-130 -48c-14 44 -57 77 -118 77c-65 0 -106 -28 -106 -76c0 -33 15 -58 77 -74l107 -28
c124 -32 186 -94 186 -191c0 -126 -112 -203 -264 -203c-165 0 -243 61 -276 150zM468 876v-25l-102 -148h-124l-102 148v25h82l70 -75h24l69 75h83z" />
    <glyph glyph-name="Scommaaccent" unicode="&#x218;" horiz-adv-x="624" 
d="M36 140l129 58c20 -52 74 -94 146 -94c82 0 122 32 122 77c0 50 -27 63 -103 83l-92 24c-113 29 -175 98 -175 193c0 116 96 195 242 195c163 0 234 -71 255 -143l-130 -48c-14 44 -57 77 -118 77c-65 0 -106 -28 -106 -76c0 -33 15 -58 77 -74l107 -28
c124 -32 186 -94 186 -191c0 -126 -112 -203 -264 -203c-165 0 -243 61 -276 150zM310 -311l-48 26l47 75v25c-42 0 -71 33 -71 74c0 40 33 70 76 70c41 0 78 -30 78 -85c0 -68 -38 -116 -82 -185z" />
    <glyph glyph-name="Tbar" unicode="&#x166;" horiz-adv-x="588" 
d="M28 545v121h532v-121h-194v-187h99v-105h-99v-253h-146v253h-99v105h99v187h-192z" />
    <glyph glyph-name="Tcaron" unicode="&#x164;" horiz-adv-x="588" 
d="M28 545v121h532v-121h-194v-545h-146v545h-192zM456 876v-25l-102 -148h-124l-102 148v25h82l70 -75h24l69 75h83z" />
    <glyph glyph-name="Tcommaaccent" unicode="&#x162;" horiz-adv-x="588" 
d="M28 545v121h532v-121h-194v-545h-41l-32 -43c9 4 24 6 38 6c38 0 78 -27 78 -75c0 -54 -45 -95 -121 -95c-52 0 -95 23 -114 38l41 58c16 -15 42 -28 72 -28c33 0 41 16 41 28c0 13 -12 22 -36 22c-12 0 -34 -5 -45 -12l-35 29l50 72h-42v545h-192z" />
    <glyph glyph-name="uni021A" unicode="&#x21a;" horiz-adv-x="588" 
d="M28 545v121h532v-121h-194v-545h-146v545h-192zM291 -311l-48 26l47 75v25c-42 0 -71 33 -71 74c0 40 33 70 76 70c41 0 78 -30 78 -85c0 -68 -38 -116 -82 -185z" />
    <glyph glyph-name="Ubreve" unicode="&#x16c;" horiz-adv-x="671" 
d="M335 -10c-196 0 -265 114 -265 267v409h143v-410c0 -92 31 -145 122 -145s123 53 123 145v410h143v-409c0 -153 -70 -267 -266 -267zM335 707c-77 0 -151 36 -159 154l95 13c5 -41 20 -74 64 -74s59 33 64 74l95 -13c-8 -117 -82 -154 -159 -154z" />
    <glyph glyph-name="Uhungarumlaut" unicode="&#x170;" horiz-adv-x="671" 
d="M335 -10c-196 0 -265 114 -265 267v409h143v-410c0 -92 31 -145 122 -145s123 53 123 145v410h143v-409c0 -153 -70 -267 -266 -267zM213 693v25l53 148h116v-25l-83 -148h-86zM376 693v25l53 148h116v-25l-83 -148h-86z" />
    <glyph glyph-name="Umacron" unicode="&#x16a;" horiz-adv-x="671" 
d="M335 -10c-196 0 -265 114 -265 267v409h143v-410c0 -92 31 -145 122 -145s123 53 123 145v410h143v-409c0 -153 -70 -267 -266 -267zM207 720v95h266v-95h-266z" />
    <glyph glyph-name="Uring" unicode="&#x16e;" horiz-adv-x="671" 
d="M335 -10c-196 0 -265 114 -265 267v409h143v-410c0 -92 31 -145 122 -145s123 53 123 145v410h143v-409c0 -153 -70 -267 -266 -267zM212 818c0 68 52 118 123 118s123 -50 123 -118c0 -69 -52 -119 -123 -119s-123 50 -123 119zM282 818c0 -32 24 -57 53 -57
s53 25 53 57s-24 56 -53 56s-53 -24 -53 -56z" />
    <glyph glyph-name="Uogonek" unicode="&#x172;" horiz-adv-x="671" 
d="M286 -32v25c-158 17 -216 125 -216 264v409h143v-410c0 -92 31 -145 122 -145s123 53 123 145v410h143v-409c0 -129 -50 -220 -178 -261c-50 -16 -85 -49 -85 -79c0 -23 20 -32 38 -32c20 0 36 6 50 13l30 -79c-21 -13 -62 -26 -103 -26c-69 0 -111 35 -111 86
c0 33 21 66 44 89z" />
    <glyph glyph-name="Utilde" unicode="&#x168;" horiz-adv-x="671" 
d="M335 -10c-196 0 -265 114 -265 267v409h143v-410c0 -92 31 -145 122 -145s123 53 123 145v410h143v-409c0 -153 -70 -267 -266 -267zM398 712c-48 0 -80 46 -117 46c-18 0 -26 -18 -31 -46l-89 15c10 89 44 135 112 135c48 0 80 -46 117 -46c18 0 23 18 28 46l89 -15
c-10 -89 -41 -135 -109 -135z" />
    <glyph glyph-name="Uacute" unicode="&#xda;" horiz-adv-x="671" 
d="M335 -10c-196 0 -265 114 -265 267v409h143v-410c0 -92 31 -145 122 -145s123 53 123 145v410h143v-409c0 -153 -70 -267 -266 -267zM280 703v25l45 148h133v-25l-98 -148h-80z" />
    <glyph glyph-name="Udieresis" unicode="&#xdc;" horiz-adv-x="671" 
d="M335 -10c-196 0 -265 114 -265 267v409h143v-410c0 -92 31 -145 122 -145s123 53 123 145v410h143v-409c0 -153 -70 -267 -266 -267zM146 791c0 43 33 77 76 77s78 -34 78 -77c0 -42 -35 -77 -78 -77s-76 35 -76 77zM372 791c0 43 35 77 77 77c43 0 77 -34 77 -77
c0 -42 -34 -77 -77 -77c-42 0 -77 35 -77 77z" />
    <glyph glyph-name="Ucircumflex" unicode="&#xdb;" horiz-adv-x="671" 
d="M335 -10c-196 0 -265 114 -265 267v409h143v-410c0 -92 31 -145 122 -145s123 53 123 145v410h143v-409c0 -153 -70 -267 -266 -267zM497 728v-25h-83l-69 75h-24l-70 -75h-82v25l102 148h124z" />
    <glyph glyph-name="Ugrave" unicode="&#xd9;" horiz-adv-x="671" 
d="M335 -10c-196 0 -265 114 -265 267v409h143v-410c0 -92 31 -145 122 -145s123 53 123 145v410h143v-409c0 -153 -70 -267 -266 -267zM391 728v-25h-80l-98 148v25h133z" />
    <glyph glyph-name="Wacute" unicode="&#x1e82;" horiz-adv-x="947" 
d="M907 666v-25l-150 -641h-163l-102 450h-25l-103 -450h-164l-160 641v25h135l105 -466h25l100 466h148l103 -470h26l91 470h134zM438 703v25l45 148h133v-25l-98 -148h-80z" />
    <glyph glyph-name="Wcircumflex" unicode="&#x174;" horiz-adv-x="947" 
d="M907 666v-25l-150 -641h-163l-102 450h-25l-103 -450h-164l-160 641v25h135l105 -466h25l100 466h148l103 -470h26l91 470h134zM643 728v-25h-83l-69 75h-24l-70 -75h-82v25l102 148h124z" />
    <glyph glyph-name="Wdieresis" unicode="&#x1e84;" horiz-adv-x="947" 
d="M907 666v-25l-150 -641h-163l-102 450h-25l-103 -450h-164l-160 641v25h135l105 -466h25l100 466h148l103 -470h26l91 470h134zM292 791c0 43 33 77 76 77s78 -34 78 -77c0 -42 -35 -77 -78 -77s-76 35 -76 77zM518 791c0 43 35 77 77 77c43 0 77 -34 77 -77
c0 -42 -34 -77 -77 -77c-42 0 -77 35 -77 77z" />
    <glyph glyph-name="Wgrave" unicode="&#x1e80;" horiz-adv-x="947" 
d="M907 666v-25l-150 -641h-163l-102 450h-25l-103 -450h-164l-160 641v25h135l105 -466h25l100 466h148l103 -470h26l91 470h134zM522 728v-25h-80l-98 148v25h133z" />
    <glyph glyph-name="uni1E8A" unicode="&#x1e8a;" horiz-adv-x="676" 
d="M626 666v-25l-211 -297l228 -319v-25h-144l-153 219h-25l-150 -219h-136v25l220 314l-222 302v25h142l145 -195h25l145 195h136zM250 789c0 45 36 81 81 81s81 -36 81 -81s-36 -81 -81 -81s-81 36 -81 81z" />
    <glyph glyph-name="Ycircumflex" unicode="&#x176;" horiz-adv-x="639" 
d="M622 666v-25l-232 -392v-249h-143v250l-230 391v25h144l146 -251h25l147 251h143zM482 728v-25h-83l-69 75h-24l-70 -75h-82v25l102 148h124z" />
    <glyph glyph-name="Ygrave" unicode="&#x1ef2;" horiz-adv-x="639" 
d="M622 666v-25l-232 -392v-249h-143v250l-230 391v25h144l146 -251h25l147 251h143zM371 728v-25h-80l-98 148v25h133z" />
    <glyph glyph-name="Yacute" unicode="&#xdd;" horiz-adv-x="639" 
d="M622 666v-25l-232 -392v-249h-143v250l-230 391v25h144l146 -251h25l147 251h143zM268 703v25l45 148h133v-25l-98 -148h-80z" />
    <glyph glyph-name="Ydieresis" unicode="&#x178;" horiz-adv-x="639" 
d="M622 666v-25l-232 -392v-249h-143v250l-230 391v25h144l146 -251h25l147 251h143zM132 795c0 43 33 77 76 77s78 -34 78 -77c0 -42 -35 -77 -78 -77s-76 35 -76 77zM358 795c0 43 35 77 77 77c43 0 77 -34 77 -77c0 -42 -34 -77 -77 -77c-42 0 -77 35 -77 77z" />
    <glyph glyph-name="Zacute" unicode="&#x179;" horiz-adv-x="614" 
d="M248 142v-25h314v-117h-512v90l316 434v25h-291v117h489v-93zM287 703v25l45 148h133v-25l-98 -148h-80z" />
    <glyph glyph-name="Zdotaccent" unicode="&#x17b;" horiz-adv-x="614" 
d="M248 142v-25h314v-117h-512v90l316 434v25h-291v117h489v-93zM239 789c0 45 36 81 81 81s81 -36 81 -81s-36 -81 -81 -81s-81 36 -81 81z" />
    <glyph glyph-name="uni01B5" unicode="&#x1b5;" horiz-adv-x="614" 
d="M128 280v105h138l103 139v25h-294v117h489v-93l-139 -188h66v-105h-144l-102 -138v-25h317v-117h-512v90l139 190h-61z" />
    <glyph glyph-name="Zcaron" unicode="&#x17d;" horiz-adv-x="614" 
d="M248 142v-25h314v-117h-512v90l316 434v25h-291v117h489v-93zM483 876v-25l-102 -148h-124l-102 148v25h82l70 -75h24l69 75h83z" />
    <glyph glyph-name="aeacute" unicode="&#x1fd;" horiz-adv-x="882" 
d="M718 176l107 -57c-45 -79 -124 -129 -226 -129c-87 0 -152 31 -189 86c-42 -54 -105 -86 -192 -86c-109 0 -171 61 -171 145c0 109 82 162 223 180l85 11v8c0 66 -29 83 -77 83c-47 0 -79 -32 -94 -69l-113 41c18 72 87 131 213 131c68 0 120 -19 150 -65
c37 42 91 65 159 65c140 0 237 -75 237 -238v-60h-345c3 -83 51 -125 112 -125c56 0 98 30 121 79zM355 169v74l-74 -10c-60 -8 -99 -38 -99 -84c0 -40 29 -61 73 -61c38 0 100 30 100 81zM487 310h214c0 52 -24 105 -105 105c-70 0 -103 -52 -109 -105zM392 577v25l45 148
h133v-25l-98 -148h-80z" />
    <glyph glyph-name="ae" unicode="&#xe6;" horiz-adv-x="882" 
d="M718 176l107 -57c-45 -79 -124 -129 -226 -129c-87 0 -152 31 -189 86c-42 -54 -105 -86 -192 -86c-109 0 -171 61 -171 145c0 109 82 162 223 180l85 11v8c0 66 -29 83 -77 83c-47 0 -79 -32 -94 -69l-113 41c18 72 87 131 213 131c68 0 120 -19 150 -65
c37 42 91 65 159 65c140 0 237 -75 237 -238v-60h-345c3 -83 51 -125 112 -125c56 0 98 30 121 79zM355 169v74l-74 -10c-60 -8 -99 -38 -99 -84c0 -40 29 -61 73 -61c38 0 100 30 100 81zM487 310h214c0 52 -24 105 -105 105c-70 0 -103 -52 -109 -105z" />
    <glyph glyph-name="abreve" unicode="&#x103;" horiz-adv-x="551" 
d="M355 169v74l-74 -10c-60 -8 -99 -38 -99 -84c0 -40 29 -61 73 -61c38 0 100 30 100 81zM184 348l-113 41c18 72 87 131 213 131c118 0 200 -52 200 -188v-332h-124v70h-25c-21 -46 -58 -80 -132 -80c-89 0 -156 61 -156 145c0 109 82 162 223 180l85 11v8
c0 66 -29 83 -77 83c-47 0 -79 -32 -94 -69zM284 581c-77 0 -151 36 -159 154l95 13c5 -41 20 -74 64 -74s59 33 64 74l95 -13c-8 -117 -82 -154 -159 -154z" />
    <glyph glyph-name="adieresis" unicode="&#xe4;" horiz-adv-x="551" 
d="M355 169v74l-74 -10c-60 -8 -99 -38 -99 -84c0 -40 29 -61 73 -61c38 0 100 30 100 81zM184 348l-113 41c18 72 87 131 213 131c118 0 200 -52 200 -188v-332h-124v70h-25c-21 -46 -58 -80 -132 -80c-89 0 -156 61 -156 145c0 109 82 162 223 180l85 11v8
c0 66 -29 83 -77 83c-47 0 -79 -32 -94 -69zM95 665c0 43 33 77 76 77s78 -34 78 -77c0 -42 -35 -77 -78 -77s-76 35 -76 77zM321 665c0 43 35 77 77 77c43 0 77 -34 77 -77c0 -42 -34 -77 -77 -77c-42 0 -77 35 -77 77z" />
    <glyph glyph-name="odieresis" unicode="&#xf6;" horiz-adv-x="588" 
d="M185 255c0 -103 38 -154 109 -154s109 51 109 154s-38 154 -109 154s-109 -51 -109 -154zM541 255c0 -165 -93 -265 -247 -265s-247 100 -247 265s93 265 247 265s247 -100 247 -265zM104 665c0 43 33 77 76 77s78 -34 78 -77c0 -42 -35 -77 -78 -77s-76 35 -76 77z
M330 665c0 43 35 77 77 77c43 0 77 -34 77 -77c0 -42 -34 -77 -77 -77c-42 0 -77 35 -77 77z" />
    <glyph glyph-name="f.alt1" horiz-adv-x="387" 
d="M77 0v572c0 100 62 168 176 168c51 0 101 -16 134 -41l-52 -92c-16 13 -39 22 -66 22c-43 0 -60 -27 -60 -72v-47h153v-111h-153v-399h-132z" />
    <glyph glyph-name="u.alt1" horiz-adv-x="575" 
d="M288 101c59 0 90 30 90 108v301h132v-300c0 -148 -75 -220 -222 -220s-223 72 -223 220v300h132v-301c0 -78 32 -108 91 -108z" />
    <glyph glyph-name="t.alt1" horiz-adv-x="403" 
d="M67 157v543h132v-190h163v-111h-163v-226c0 -55 29 -72 67 -72c30 0 52 12 71 26l48 -90c-34 -26 -81 -47 -142 -47c-114 0 -176 62 -176 167z" />
    <glyph glyph-name="r.alt1" horiz-adv-x="401" 
d="M386 510v-111h-177v-399h-132v510h309z" />
    <glyph glyph-name="amacron" unicode="&#x101;" horiz-adv-x="551" 
d="M355 169v74l-74 -10c-60 -8 -99 -38 -99 -84c0 -40 29 -61 73 -61c38 0 100 30 100 81zM184 348l-113 41c18 72 87 131 213 131c118 0 200 -52 200 -188v-332h-124v70h-25c-21 -46 -58 -80 -132 -80c-89 0 -156 61 -156 145c0 109 82 162 223 180l85 11v8
c0 66 -29 83 -77 83c-47 0 -79 -32 -94 -69zM156 594v95h266v-95h-266z" />
    <glyph glyph-name="aogonek" unicode="&#x105;" horiz-adv-x="551" 
d="M487 -102l30 -79c-21 -13 -62 -26 -103 -26c-69 0 -111 35 -111 86c0 40 27 76 57 100v91h-25c-21 -46 -58 -80 -132 -80c-89 0 -156 61 -156 145c0 109 82 162 223 180l85 11v8c0 66 -29 83 -77 83c-47 0 -79 -32 -94 -69l-113 41c18 72 87 131 213 131
c118 0 200 -52 200 -188v-332c-50 -21 -85 -52 -85 -83c0 -23 20 -32 38 -32c20 0 36 6 50 13zM355 169v74l-74 -10c-60 -8 -99 -38 -99 -84c0 -40 29 -61 73 -61c38 0 100 30 100 81z" />
    <glyph glyph-name="aacute" unicode="&#xe1;" horiz-adv-x="551" 
d="M355 169v74l-74 -10c-60 -8 -99 -38 -99 -84c0 -40 29 -61 73 -61c38 0 100 30 100 81zM184 348l-113 41c18 72 87 131 213 131c118 0 200 -52 200 -188v-332h-124v70h-25c-21 -46 -58 -80 -132 -80c-89 0 -156 61 -156 145c0 109 82 162 223 180l85 11v8
c0 66 -29 83 -77 83c-47 0 -79 -32 -94 -69zM251 577v25l45 148h133v-25l-98 -148h-80z" />
    <glyph glyph-name="agrave" unicode="&#xe0;" horiz-adv-x="551" 
d="M355 169v74l-74 -10c-60 -8 -99 -38 -99 -84c0 -40 29 -61 73 -61c38 0 100 30 100 81zM184 348l-113 41c18 72 87 131 213 131c118 0 200 -52 200 -188v-332h-124v70h-25c-21 -46 -58 -80 -132 -80c-89 0 -156 61 -156 145c0 109 82 162 223 180l85 11v8
c0 66 -29 83 -77 83c-47 0 -79 -32 -94 -69zM335 602v-25h-80l-98 148v25h133z" />
    <glyph glyph-name="acircumflex" unicode="&#xe2;" horiz-adv-x="551" 
d="M355 169v74l-74 -10c-60 -8 -99 -38 -99 -84c0 -40 29 -61 73 -61c38 0 100 30 100 81zM184 348l-113 41c18 72 87 131 213 131c118 0 200 -52 200 -188v-332h-124v70h-25c-21 -46 -58 -80 -132 -80c-89 0 -156 61 -156 145c0 109 82 162 223 180l85 11v8
c0 66 -29 83 -77 83c-47 0 -79 -32 -94 -69zM446 602v-25h-83l-69 75h-24l-70 -75h-82v25l102 148h124z" />
    <glyph glyph-name="atilde" unicode="&#xe3;" horiz-adv-x="551" 
d="M355 169v74l-74 -10c-60 -8 -99 -38 -99 -84c0 -40 29 -61 73 -61c38 0 100 30 100 81zM184 348l-113 41c18 72 87 131 213 131c118 0 200 -52 200 -188v-332h-124v70h-25c-21 -46 -58 -80 -132 -80c-89 0 -156 61 -156 145c0 109 82 162 223 180l85 11v8
c0 66 -29 83 -77 83c-47 0 -79 -32 -94 -69zM347 586c-48 0 -80 46 -117 46c-18 0 -26 -18 -31 -46l-89 15c10 89 44 135 112 135c48 0 80 -46 117 -46c18 0 23 18 28 46l89 -15c-10 -89 -41 -135 -109 -135z" />
    <glyph glyph-name="aring" unicode="&#xe5;" horiz-adv-x="551" 
d="M355 169v74l-74 -10c-60 -8 -99 -38 -99 -84c0 -40 29 -61 73 -61c38 0 100 30 100 81zM184 348l-113 41c18 72 87 131 213 131c118 0 200 -52 200 -188v-332h-124v70h-25c-21 -46 -58 -80 -132 -80c-89 0 -156 61 -156 145c0 109 82 162 223 180l85 11v8
c0 66 -29 83 -77 83c-47 0 -79 -32 -94 -69zM161 692c0 68 52 118 123 118s123 -50 123 -118c0 -69 -52 -119 -123 -119s-123 50 -123 119zM231 692c0 -32 24 -57 53 -57s53 25 53 57s-24 56 -53 56s-53 -24 -53 -56z" />
    <glyph glyph-name="aringacute" unicode="&#x1fb;" horiz-adv-x="551" 
d="M355 169v74l-74 -10c-60 -8 -99 -38 -99 -84c0 -40 29 -61 73 -61c38 0 100 30 100 81zM184 348l-113 41c18 72 87 131 213 131c118 0 200 -52 200 -188v-332h-124v70h-25c-21 -46 -58 -80 -132 -80c-89 0 -156 61 -156 145c0 109 82 162 223 180l85 11v8
c0 66 -29 83 -77 83c-47 0 -79 -32 -94 -69zM319 826v-25c53 -13 89 -57 89 -113c0 -69 -52 -119 -123 -119s-123 50 -123 119c0 26 7 48 20 67l94 140h134v-25zM232 688c0 -32 24 -57 53 -57s53 25 53 57s-24 56 -53 56s-53 -24 -53 -56z" />
    <glyph glyph-name="ccaron" unicode="&#x10d;" horiz-adv-x="553" 
d="M185 255c0 -103 37 -154 113 -154c48 0 83 32 95 82l123 -35c-17 -97 -110 -158 -222 -158c-154 0 -247 100 -247 265s93 265 247 265c112 0 205 -61 222 -158l-123 -35c-12 50 -47 82 -95 82c-76 0 -113 -51 -113 -154zM457 750v-25l-102 -148h-124l-102 148v25h82
l70 -75h24l69 75h83z" />
    <glyph glyph-name="cacute" unicode="&#x107;" horiz-adv-x="553" 
d="M185 255c0 -103 37 -154 113 -154c48 0 83 32 95 82l123 -35c-17 -97 -110 -158 -222 -158c-154 0 -247 100 -247 265s93 265 247 265c112 0 205 -61 222 -158l-123 -35c-12 50 -47 82 -95 82c-76 0 -113 -51 -113 -154zM261 577v25l45 148h133v-25l-98 -148h-80z" />
    <glyph glyph-name="ccircumflex" unicode="&#x109;" horiz-adv-x="553" 
d="M185 255c0 -103 37 -154 113 -154c48 0 83 32 95 82l123 -35c-17 -97 -110 -158 -222 -158c-154 0 -247 100 -247 265s93 265 247 265c112 0 205 -61 222 -158l-123 -35c-12 50 -47 82 -95 82c-76 0 -113 -51 -113 -154zM456 602v-25h-83l-69 75h-24l-70 -75h-82v25
l102 148h124z" />
    <glyph glyph-name="cdotaccent" unicode="&#x10b;" horiz-adv-x="553" 
d="M185 255c0 -103 37 -154 113 -154c48 0 83 32 95 82l123 -35c-17 -97 -110 -158 -222 -158c-154 0 -247 100 -247 265s93 265 247 265c112 0 205 -61 222 -158l-123 -35c-12 50 -47 82 -95 82c-76 0 -113 -51 -113 -154zM213 663c0 45 36 81 81 81s81 -36 81 -81
s-36 -81 -81 -81s-81 36 -81 81z" />
    <glyph glyph-name="ccedilla" unicode="&#xe7;" horiz-adv-x="553" 
d="M185 255c0 -103 37 -154 113 -154c48 0 83 32 95 82l123 -35c-16 -91 -99 -150 -201 -157l-25 -34c9 4 24 6 38 6c38 0 78 -27 78 -75c0 -54 -45 -95 -121 -95c-52 0 -95 23 -114 38l41 58c16 -15 42 -28 72 -28c33 0 41 16 41 28c0 13 -12 22 -36 22
c-12 0 -34 -5 -45 -12l-35 29l45 65c-130 15 -207 111 -207 262c0 165 93 265 247 265c112 0 205 -61 222 -158l-123 -35c-12 50 -47 82 -95 82c-76 0 -113 -51 -113 -154z" />
    <glyph glyph-name="dcaron" unicode="&#x10f;" horiz-adv-x="742" 
d="M50 255c0 168 73 265 187 265c75 0 124 -39 146 -89h25v299h132v-730h-132v79h-25c-22 -50 -71 -89 -146 -89c-114 0 -187 97 -187 265zM406 255c0 103 -38 154 -109 154s-109 -51 -109 -154s38 -154 109 -154s109 51 109 154zM750 730v-25l-60 -168h-72v193h132z" />
    <glyph glyph-name="dcroat" unicode="&#x111;" horiz-adv-x="617" 
d="M50 255c0 168 73 265 187 265c75 0 124 -39 146 -89h25v120h-101v94h101v85h132v-85h67v-94h-67v-551h-132v79h-25c-22 -50 -71 -89 -146 -89c-114 0 -187 97 -187 265zM406 255c0 103 -38 154 -109 154s-109 -51 -109 -154s38 -154 109 -154s109 51 109 154z" />
    <glyph glyph-name="eth" unicode="&#xf0;" horiz-adv-x="584" 
d="M228 522l-51 65l53 39c-22 13 -43 23 -61 29l44 98c40 -15 78 -33 113 -56l66 50l51 -64l-50 -37c92 -84 151 -205 151 -361c0 -163 -75 -295 -246 -295c-158 0 -251 100 -251 267c0 160 88 250 206 250c34 0 77 -11 107 -46h25c-12 42 -45 82 -84 116zM403 255
c0 103 -38 154 -109 154s-109 -51 -109 -154s38 -154 109 -154s109 51 109 154z" />
    <glyph glyph-name="ebreve" unicode="&#x115;" horiz-adv-x="578" 
d="M183 310h214c0 52 -24 105 -105 105c-70 0 -103 -52 -109 -105zM414 176l107 -57c-45 -79 -124 -129 -226 -129c-164 0 -248 104 -248 268c0 163 96 262 242 262c140 0 237 -75 237 -238v-60h-345c3 -83 51 -125 112 -125c56 0 98 30 121 79zM289 581
c-77 0 -151 36 -159 154l95 13c5 -41 20 -74 64 -74s59 33 64 74l95 -13c-8 -117 -82 -154 -159 -154z" />
    <glyph glyph-name="ecaron" unicode="&#x11b;" horiz-adv-x="578" 
d="M183 310h214c0 52 -24 105 -105 105c-70 0 -103 -52 -109 -105zM414 176l107 -57c-45 -79 -124 -129 -226 -129c-164 0 -248 104 -248 268c0 163 96 262 242 262c140 0 237 -75 237 -238v-60h-345c3 -83 51 -125 112 -125c56 0 98 30 121 79zM452 750v-25l-102 -148h-124
l-102 148v25h82l70 -75h24l69 75h83z" />
    <glyph glyph-name="edotaccent" unicode="&#x117;" horiz-adv-x="578" 
d="M183 310h214c0 52 -24 105 -105 105c-70 0 -103 -52 -109 -105zM414 176l107 -57c-45 -79 -124 -129 -226 -129c-164 0 -248 104 -248 268c0 163 96 262 242 262c140 0 237 -75 237 -238v-60h-345c3 -83 51 -125 112 -125c56 0 98 30 121 79zM208 663c0 45 36 81 81 81
s81 -36 81 -81s-36 -81 -81 -81s-81 36 -81 81z" />
    <glyph glyph-name="emacron" unicode="&#x113;" horiz-adv-x="578" 
d="M183 310h214c0 52 -24 105 -105 105c-70 0 -103 -52 -109 -105zM414 176l107 -57c-45 -79 -124 -129 -226 -129c-164 0 -248 104 -248 268c0 163 96 262 242 262c140 0 237 -75 237 -238v-60h-345c3 -83 51 -125 112 -125c56 0 98 30 121 79zM161 594v95h266v-95h-266z
" />
    <glyph glyph-name="eacute" unicode="&#xe9;" horiz-adv-x="578" 
d="M183 310h214c0 52 -24 105 -105 105c-70 0 -103 -52 -109 -105zM414 176l107 -57c-45 -79 -124 -129 -226 -129c-164 0 -248 104 -248 268c0 163 96 262 242 262c140 0 237 -75 237 -238v-60h-345c3 -83 51 -125 112 -125c56 0 98 30 121 79zM256 577v25l45 148h133v-25
l-98 -148h-80z" />
    <glyph glyph-name="egrave" unicode="&#xe8;" horiz-adv-x="578" 
d="M183 310h214c0 52 -24 105 -105 105c-70 0 -103 -52 -109 -105zM414 176l107 -57c-45 -79 -124 -129 -226 -129c-164 0 -248 104 -248 268c0 163 96 262 242 262c140 0 237 -75 237 -238v-60h-345c3 -83 51 -125 112 -125c56 0 98 30 121 79zM340 602v-25h-80l-98 148v25
h133z" />
    <glyph glyph-name="ecircumflex" unicode="&#xea;" horiz-adv-x="578" 
d="M183 310h214c0 52 -24 105 -105 105c-70 0 -103 -52 -109 -105zM414 176l107 -57c-45 -79 -124 -129 -226 -129c-164 0 -248 104 -248 268c0 163 96 262 242 262c140 0 237 -75 237 -238v-60h-345c3 -83 51 -125 112 -125c56 0 98 30 121 79zM451 602v-25h-83l-69 75h-24
l-70 -75h-82v25l102 148h124z" />
    <glyph glyph-name="edieresis" unicode="&#xeb;" horiz-adv-x="578" 
d="M183 310h214c0 52 -24 105 -105 105c-70 0 -103 -52 -109 -105zM414 176l107 -57c-45 -79 -124 -129 -226 -129c-164 0 -248 104 -248 268c0 163 96 262 242 262c140 0 237 -75 237 -238v-60h-345c3 -83 51 -125 112 -125c56 0 98 30 121 79zM100 665c0 43 33 77 76 77
s78 -34 78 -77c0 -42 -35 -77 -78 -77s-76 35 -76 77zM326 665c0 43 35 77 77 77c43 0 77 -34 77 -77c0 -42 -34 -77 -77 -77c-42 0 -77 35 -77 77z" />
    <glyph glyph-name="eogonek" unicode="&#x119;" horiz-adv-x="578" 
d="M270 -35v25c-150 12 -223 117 -223 268c0 163 96 262 242 262c140 0 237 -75 237 -238v-60h-345c3 -83 51 -125 112 -125c56 0 95 30 118 79l110 -57c-33 -58 -88 -99 -116 -114c-48 -26 -80 -57 -80 -88c0 -23 20 -32 38 -32c20 0 36 6 50 13l30 -79
c-21 -13 -62 -26 -103 -26c-69 0 -111 35 -111 86c0 28 14 62 41 86zM183 310h214c0 52 -24 105 -105 105c-70 0 -103 -52 -109 -105z" />
    <glyph glyph-name="gbreve" unicode="&#x11f;" horiz-adv-x="601" 
d="M501 348c0 -83 -59 -172 -216 -172h-63c-37 0 -63 -15 -63 -38c0 -20 16 -36 53 -36h158c123 0 193 -42 193 -142c0 -128 -122 -170 -286 -170c-201 0 -250 52 -250 111c0 61 59 86 108 90v27c-47 5 -84 26 -84 84c0 48 53 83 97 86v25c-50 30 -79 76 -79 135
c0 83 59 172 216 172c65 0 110 -16 139 -34h25c0 73 35 112 99 112h53v-112h-77c-33 0 -48 -20 -50 -46c20 -30 27 -59 27 -92zM297 -114c107 0 146 29 146 64c0 29 -22 51 -98 51h-85c-81 0 -105 -24 -105 -58c0 -35 32 -57 142 -57zM367 348c0 54 -34 82 -82 82
s-82 -28 -82 -82s34 -82 82 -82s82 28 82 82zM301 581c-77 0 -151 36 -159 154l95 13c5 -41 20 -74 64 -74s59 33 64 74l95 -13c-8 -117 -82 -154 -159 -154z" />
    <glyph glyph-name="gcircumflex" unicode="&#x11d;" horiz-adv-x="601" 
d="M501 348c0 -83 -59 -172 -216 -172h-63c-37 0 -63 -15 -63 -38c0 -20 16 -36 53 -36h158c123 0 193 -42 193 -142c0 -128 -122 -170 -286 -170c-201 0 -250 52 -250 111c0 61 59 86 108 90v27c-47 5 -84 26 -84 84c0 48 53 83 97 86v25c-50 30 -79 76 -79 135
c0 83 59 172 216 172c65 0 110 -16 139 -34h25c0 73 35 112 99 112h53v-112h-77c-33 0 -48 -20 -50 -46c20 -30 27 -59 27 -92zM297 -114c107 0 146 29 146 64c0 29 -22 51 -98 51h-85c-81 0 -105 -24 -105 -58c0 -35 32 -57 142 -57zM367 348c0 54 -34 82 -82 82
s-82 -28 -82 -82s34 -82 82 -82s82 28 82 82zM463 602v-25h-83l-69 75h-24l-70 -75h-82v25l102 148h124z" />
    <glyph glyph-name="gcommaaccent" unicode="&#x123;" horiz-adv-x="601" 
d="M501 348c0 -83 -59 -172 -216 -172h-63c-37 0 -63 -15 -63 -38c0 -20 16 -36 53 -36h158c123 0 193 -42 193 -142c0 -128 -122 -170 -286 -170c-201 0 -250 52 -250 111c0 61 59 86 108 90v27c-47 5 -84 26 -84 84c0 48 53 83 97 86v25c-50 30 -79 76 -79 135
c0 83 59 172 216 172c65 0 110 -16 139 -34h25c0 73 35 112 99 112h53v-112h-77c-33 0 -48 -20 -50 -46c20 -30 27 -59 27 -92zM297 -114c107 0 146 29 146 64c0 29 -22 51 -98 51h-85c-81 0 -105 -24 -105 -58c0 -35 32 -57 142 -57zM367 348c0 54 -34 82 -82 82
s-82 -28 -82 -82s34 -82 82 -82s82 28 82 82zM309 841l48 -26l-47 -75v-25c42 0 71 -33 71 -74c0 -40 -33 -70 -76 -70c-41 0 -78 30 -78 85c0 68 38 116 82 185z" />
    <glyph glyph-name="gdotaccent" unicode="&#x121;" horiz-adv-x="601" 
d="M501 348c0 -83 -59 -172 -216 -172h-63c-37 0 -63 -15 -63 -38c0 -20 16 -36 53 -36h158c123 0 193 -42 193 -142c0 -128 -122 -170 -286 -170c-201 0 -250 52 -250 111c0 61 59 86 108 90v27c-47 5 -84 26 -84 84c0 48 53 83 97 86v25c-50 30 -79 76 -79 135
c0 83 59 172 216 172c65 0 110 -16 139 -34h25c0 73 35 112 99 112h53v-112h-77c-33 0 -48 -20 -50 -46c20 -30 27 -59 27 -92zM297 -114c107 0 146 29 146 64c0 29 -22 51 -98 51h-85c-81 0 -105 -24 -105 -58c0 -35 32 -57 142 -57zM367 348c0 54 -34 82 -82 82
s-82 -28 -82 -82s34 -82 82 -82s82 28 82 82zM220 663c0 45 36 81 81 81s81 -36 81 -81s-36 -81 -81 -81s-81 36 -81 81z" />
    <glyph glyph-name="hbar" unicode="&#x127;" horiz-adv-x="600" 
d="M10 551v94h67v85h132v-85h101v-94h-101v-115h25c24 53 69 84 141 84c97 0 155 -64 155 -190v-330h-132v305c0 77 -33 104 -84 104c-65 0 -105 -39 -105 -119v-290h-132v551h-67z" />
    <glyph glyph-name="hcircumflex" unicode="&#x125;" horiz-adv-x="600" 
d="M77 0v730h132v-294h25c24 53 69 84 141 84c97 0 155 -64 155 -190v-330h-132v305c0 77 -33 104 -84 104c-65 0 -105 -39 -105 -119v-290h-132zM309 788v-25h-83l-69 75h-24l-70 -75h-82v25l102 148h124z" />
    <glyph glyph-name="dotlessi" unicode="&#x131;" horiz-adv-x="286" 
d="M77 510h132v-510h-132v510z" />
    <glyph glyph-name="ibreve" unicode="&#x12d;" horiz-adv-x="286" 
d="M77 510h132v-510h-132v510zM143 581c-77 0 -151 36 -159 154l95 13c5 -41 20 -74 64 -74s59 33 64 74l95 -13c-8 -117 -82 -154 -159 -154z" />
    <glyph glyph-name="imacron" unicode="&#x12b;" horiz-adv-x="286" 
d="M77 510h132v-510h-132v510zM15 594v95h266v-95h-266z" />
    <glyph glyph-name="iogonek" unicode="&#x12f;" horiz-adv-x="286" 
d="M212 -102l30 -79c-21 -13 -62 -26 -103 -26c-69 0 -111 35 -111 86c0 37 23 70 49 93v538h132v-510c-50 -21 -85 -52 -85 -83c0 -23 20 -32 38 -32c20 0 36 6 50 13zM63 659c0 45 36 81 81 81s81 -36 81 -81s-36 -81 -81 -81s-81 36 -81 81z" />
    <glyph glyph-name="itilde" unicode="&#x129;" horiz-adv-x="286" 
d="M77 510h132v-510h-132v510zM206 586c-48 0 -80 46 -117 46c-18 0 -26 -18 -31 -46l-89 15c10 89 44 135 112 135c48 0 80 -46 117 -46c18 0 23 18 28 46l89 -15c-10 -89 -41 -135 -109 -135z" />
    <glyph glyph-name="i.trk" horiz-adv-x="286" 
d="M76 510h132v-510h-132v510zM62 659c0 45 36 81 81 81s81 -36 81 -81s-36 -81 -81 -81s-81 36 -81 81z" />
    <glyph glyph-name="dotlessj" unicode="&#x237;" horiz-adv-x="286" 
d="M-46 -198l28 106c9 -3 23 -6 36 -6c34 0 59 26 59 71v537h132v-552c0 -98 -62 -168 -176 -168c-27 0 -57 2 -79 12z" />
    <glyph glyph-name="jacute" horiz-adv-x="286" 
d="M-46 -198l28 106c9 -3 23 -6 36 -6c34 0 59 26 59 71v537h132v-552c0 -98 -62 -168 -176 -168c-27 0 -57 2 -79 12zM96 577v25l45 148h133v-25l-98 -148h-80z" />
    <glyph glyph-name="jcircumflex" unicode="&#x135;" horiz-adv-x="286" 
d="M-46 -198l28 106c9 -3 23 -6 36 -6c34 0 59 26 59 71v537h132v-552c0 -98 -62 -168 -176 -168c-27 0 -57 2 -79 12zM305 602v-25h-83l-69 75h-24l-70 -75h-82v25l102 148h124z" />
    <glyph glyph-name="iacute" unicode="&#xed;" horiz-adv-x="286" 
d="M77 510h132v-510h-132v510zM97 577v25l45 148h133v-25l-98 -148h-80z" />
    <glyph glyph-name="igrave" unicode="&#xec;" horiz-adv-x="286" 
d="M77 510h132v-510h-132v510zM189 602v-25h-80l-98 148v25h133z" />
    <glyph glyph-name="icircumflex" unicode="&#xee;" horiz-adv-x="286" 
d="M77 510h132v-510h-132v510zM305 602v-25h-83l-69 75h-24l-70 -75h-82v25l102 148h124z" />
    <glyph glyph-name="idieresis" unicode="&#xef;" horiz-adv-x="286" 
d="M77 510h132v-510h-132v510zM-46 665c0 43 33 77 76 77s78 -34 78 -77c0 -42 -35 -77 -78 -77s-76 35 -76 77zM180 665c0 43 35 77 77 77c43 0 77 -34 77 -77c0 -42 -34 -77 -77 -77c-42 0 -77 35 -77 77z" />
    <glyph glyph-name="kcommaaccent" unicode="&#x137;" horiz-adv-x="579" 
d="M209 0h-132v730h132v-388h25l171 168h142v-25l-171 -179l164 -281v-25h-138c-7 11 -135 235 -139 239l-54 -56v-183zM291 -311l-48 26l47 75v25c-42 0 -71 33 -71 74c0 40 33 70 76 70c41 0 78 -30 78 -85c0 -68 -38 -116 -82 -185z" />
    <glyph glyph-name="kgreenlandic" unicode="&#x138;" horiz-adv-x="579" 
d="M209 0h-132v510h132v-168h25l171 168h142v-25l-171 -179l164 -281v-25h-138c-7 11 -135 235 -139 239l-54 -56v-183z" />
    <glyph glyph-name="lacute" unicode="&#x13a;" horiz-adv-x="260" 
d="M77 0v730h132v-730h-132zM107 763v25l45 148h133v-25l-98 -148h-80z" />
    <glyph glyph-name="lcaron" unicode="&#x13e;" horiz-adv-x="411" 
d="M77 0v730h132v-730h-132zM419 730v-25l-60 -168h-72v193h132z" />
    <glyph glyph-name="lslash" unicode="&#x142;" horiz-adv-x="330" 
d="M50 181h-25v98l72 39v412h132v-341l51 28h25v-98l-76 -41v-278h-132v206z" />
    <glyph glyph-name="lcommaaccent" unicode="&#x13c;" horiz-adv-x="286" 
d="M77 0v730h132v-730h-132zM139 -311l-48 26l47 75v25c-42 0 -71 33 -71 74c0 40 33 70 76 70c41 0 78 -30 78 -85c0 -68 -38 -116 -82 -185z" />
    <glyph glyph-name="ldot" unicode="&#x140;" horiz-adv-x="485" 
d="M77 0v730h132v-730h-132zM303 314c0 45 36 81 81 81s81 -36 81 -81s-36 -81 -81 -81s-81 36 -81 81z" />
    <glyph glyph-name="napostrophe" unicode="&#x149;" horiz-adv-x="774" 
d="M251 0v510h132v-74h25c24 53 69 84 141 84c97 0 155 -64 155 -190v-330h-132v305c0 77 -33 104 -84 104c-65 0 -105 -39 -105 -119v-290h-132zM25 658c0 48 36 85 83 85c48 0 88 -37 88 -104s-31 -113 -102 -230l-58 34l69 108v23c-47 0 -80 37 -80 84z" />
    <glyph glyph-name="ntilde" unicode="&#xf1;" horiz-adv-x="600" 
d="M77 0v510h132v-74h25c24 53 69 84 141 84c97 0 155 -64 155 -190v-330h-132v305c0 77 -33 104 -84 104c-65 0 -105 -39 -105 -119v-290h-132zM366 586c-48 0 -80 46 -117 46c-18 0 -26 -18 -31 -46l-89 15c10 89 44 135 112 135c48 0 80 -46 117 -46c18 0 23 18 28 46
l89 -15c-10 -89 -41 -135 -109 -135z" />
    <glyph glyph-name="nacute" unicode="&#x144;" horiz-adv-x="600" 
d="M77 0v510h132v-74h25c24 53 69 84 141 84c97 0 155 -64 155 -190v-330h-132v305c0 77 -33 104 -84 104c-65 0 -105 -39 -105 -119v-290h-132zM260 577v25l45 148h133v-25l-98 -148h-80z" />
    <glyph glyph-name="ncaron" unicode="&#x148;" horiz-adv-x="600" 
d="M77 0v510h132v-74h25c24 53 69 84 141 84c97 0 155 -64 155 -190v-330h-132v305c0 77 -33 104 -84 104c-65 0 -105 -39 -105 -119v-290h-132zM466 750v-25l-102 -148h-124l-102 148v25h82l70 -75h24l69 75h83z" />
    <glyph glyph-name="eng" unicode="&#x14b;" horiz-adv-x="600" 
d="M77 0v510h132v-74h25c24 53 69 84 141 84c97 0 155 -64 155 -190v-372c0 -98 -63 -168 -177 -168c-27 0 -57 2 -79 12l28 106c9 -3 23 -6 36 -6c34 0 60 26 60 71v332c0 77 -33 104 -84 104c-65 0 -105 -39 -105 -119v-290h-132z" />
    <glyph glyph-name="ncommaaccent" unicode="&#x146;" horiz-adv-x="600" 
d="M77 0v510h132v-74h25c24 53 69 84 141 84c97 0 155 -64 155 -190v-330h-132v305c0 77 -33 104 -84 104c-65 0 -105 -39 -105 -119v-290h-132zM301 -311l-48 26l47 75v25c-42 0 -71 33 -71 74c0 40 33 70 76 70c41 0 78 -30 78 -85c0 -68 -38 -116 -82 -185z" />
    <glyph glyph-name="obreve" unicode="&#x14f;" horiz-adv-x="588" 
d="M185 255c0 -103 38 -154 109 -154s109 51 109 154s-38 154 -109 154s-109 -51 -109 -154zM541 255c0 -165 -93 -265 -247 -265s-247 100 -247 265s93 265 247 265s247 -100 247 -265zM294 581c-77 0 -151 36 -159 154l95 13c5 -41 20 -74 64 -74s59 33 64 74l95 -13
c-8 -117 -82 -154 -159 -154z" />
    <glyph glyph-name="ohungarumlaut" unicode="&#x151;" horiz-adv-x="588" 
d="M185 255c0 -103 38 -154 109 -154s109 51 109 154s-38 154 -109 154s-109 -51 -109 -154zM541 255c0 -165 -93 -265 -247 -265s-247 100 -247 265s93 265 247 265s247 -100 247 -265zM172 567v25l53 148h116v-25l-83 -148h-86zM335 567v25l53 148h116v-25l-83 -148h-86z
" />
    <glyph glyph-name="omacron" unicode="&#x14d;" horiz-adv-x="588" 
d="M185 255c0 -103 38 -154 109 -154s109 51 109 154s-38 154 -109 154s-109 -51 -109 -154zM541 255c0 -165 -93 -265 -247 -265s-247 100 -247 265s93 265 247 265s247 -100 247 -265zM166 594v95h266v-95h-266z" />
    <glyph glyph-name="oslashacute" unicode="&#x1ff;" horiz-adv-x="596" 
d="M545 255c0 -165 -93 -265 -247 -265c-46 0 -87 9 -121 25l-37 -51h-90v20l60 83c-38 46 -59 109 -59 188c0 165 93 265 247 265c46 0 87 -9 121 -26l38 52h89v-20l-61 -84c39 -45 60 -109 60 -187zM181 255c0 -30 3 -56 9 -77l163 224c-16 9 -34 13 -55 13
c-75 0 -117 -54 -117 -160zM415 255c0 29 -3 55 -10 76l-162 -224c16 -9 34 -12 55 -12c75 0 117 54 117 160zM265 577v25l45 148h133v-25l-98 -148h-80z" />
    <glyph glyph-name="oslash" unicode="&#xf8;" horiz-adv-x="596" 
d="M545 255c0 -165 -93 -265 -247 -265c-46 0 -87 9 -121 25l-37 -51h-90v20l60 83c-38 46 -59 109 -59 188c0 165 93 265 247 265c46 0 87 -9 121 -26l38 52h89v-20l-61 -84c39 -45 60 -109 60 -187zM181 255c0 -30 3 -56 9 -77l163 224c-16 9 -34 13 -55 13
c-75 0 -117 -54 -117 -160zM415 255c0 29 -3 55 -10 76l-162 -224c16 -9 34 -12 55 -12c75 0 117 54 117 160z" />
    <glyph glyph-name="oacute" unicode="&#xf3;" horiz-adv-x="588" 
d="M185 255c0 -103 38 -154 109 -154s109 51 109 154s-38 154 -109 154s-109 -51 -109 -154zM541 255c0 -165 -93 -265 -247 -265s-247 100 -247 265s93 265 247 265s247 -100 247 -265zM261 577v25l45 148h133v-25l-98 -148h-80z" />
    <glyph glyph-name="ograve" unicode="&#xf2;" horiz-adv-x="588" 
d="M185 255c0 -103 38 -154 109 -154s109 51 109 154s-38 154 -109 154s-109 -51 -109 -154zM541 255c0 -165 -93 -265 -247 -265s-247 100 -247 265s93 265 247 265s247 -100 247 -265zM345 602v-25h-80l-98 148v25h133z" />
    <glyph glyph-name="ocircumflex" unicode="&#xf4;" horiz-adv-x="588" 
d="M185 255c0 -103 38 -154 109 -154s109 51 109 154s-38 154 -109 154s-109 -51 -109 -154zM541 255c0 -165 -93 -265 -247 -265s-247 100 -247 265s93 265 247 265s247 -100 247 -265zM456 602v-25h-83l-69 75h-24l-70 -75h-82v25l102 148h124z" />
    <glyph glyph-name="otilde" unicode="&#xf5;" horiz-adv-x="588" 
d="M185 255c0 -103 38 -154 109 -154s109 51 109 154s-38 154 -109 154s-109 -51 -109 -154zM541 255c0 -165 -93 -265 -247 -265s-247 100 -247 265s93 265 247 265s247 -100 247 -265zM357 586c-48 0 -80 46 -117 46c-18 0 -26 -18 -31 -46l-89 15c10 89 44 135 112 135
c48 0 80 -46 117 -46c18 0 23 18 28 46l89 -15c-10 -89 -41 -135 -109 -135z" />
    <glyph glyph-name="oe" unicode="&#x153;" horiz-adv-x="934" 
d="M770 176l107 -57c-45 -79 -124 -129 -226 -129c-83 0 -143 30 -180 83c-39 -54 -99 -83 -177 -83c-154 0 -247 100 -247 265s93 265 247 265c79 0 139 -30 178 -84c38 54 98 84 173 84c140 0 237 -75 237 -238v-60h-345c3 -83 51 -125 112 -125c56 0 98 30 121 79z
M185 255c0 -103 38 -154 109 -154s109 51 109 154s-38 154 -109 154s-109 -51 -109 -154zM539 310h214c0 52 -24 105 -105 105c-70 0 -103 -52 -109 -105z" />
    <glyph glyph-name="thorn" unicode="&#xfe;" horiz-adv-x="617" 
d="M567 255c0 -168 -73 -265 -187 -265c-75 0 -124 39 -146 89h-25v-279h-132v930h132v-299h25c22 50 71 89 146 89c114 0 187 -97 187 -265zM211 255c0 -103 38 -154 109 -154s109 51 109 154s-38 154 -109 154s-109 -51 -109 -154z" />
    <glyph glyph-name="rcaron" unicode="&#x159;" horiz-adv-x="479" 
d="M474 396l-124 -46c-12 38 -28 55 -59 55c-52 0 -82 -48 -82 -137v-268h-132v510h132v-79h25c13 57 64 89 118 89c73 0 108 -51 122 -124zM395 746v-25l-102 -148h-124l-102 148v25h82l70 -75h24l69 75h83z" />
    <glyph glyph-name="racute" unicode="&#x155;" horiz-adv-x="479" 
d="M474 396l-124 -46c-12 38 -28 55 -59 55c-52 0 -82 -48 -82 -137v-268h-132v510h132v-79h25c13 57 64 89 118 89c73 0 108 -51 122 -124zM199 573v25l45 148h133v-25l-98 -148h-80z" />
    <glyph glyph-name="rcommaaccent" unicode="&#x157;" horiz-adv-x="479" 
d="M474 396l-124 -46c-12 38 -28 55 -59 55c-52 0 -82 -48 -82 -137v-268h-132v510h132v-79h25c13 57 64 89 118 89c73 0 108 -51 122 -124zM129 -311l-48 26l47 75v25c-42 0 -71 33 -71 74c0 40 33 70 76 70c41 0 78 -30 78 -85c0 -68 -38 -116 -82 -185z" />
    <glyph glyph-name="sacute" unicode="&#x15b;" horiz-adv-x="516" 
d="M241 320l107 -25c76 -18 125 -62 125 -137c0 -92 -78 -168 -215 -168c-108 0 -181 40 -216 123l108 51c21 -48 62 -71 110 -71c52 0 86 18 86 52c0 21 -15 35 -50 43l-107 25c-78 18 -124 72 -124 149c0 90 79 158 203 158c87 0 168 -37 197 -119l-100 -46
c-20 38 -52 62 -100 62c-45 0 -74 -18 -74 -48c0 -24 15 -41 50 -49zM230 573v25l45 148h133v-25l-98 -148h-80z" />
    <glyph glyph-name="scedilla" unicode="&#x15f;" horiz-adv-x="516" 
d="M241 320l107 -25c76 -18 125 -62 125 -137c0 -87 -70 -160 -193 -167l-25 -34c9 4 24 6 38 6c38 0 78 -27 78 -75c0 -54 -45 -95 -121 -95c-52 0 -95 23 -114 38l41 58c16 -15 42 -28 72 -28c33 0 41 16 41 28c0 13 -12 22 -36 22c-12 0 -34 -5 -45 -12l-35 29l45 64
c-87 9 -147 48 -177 121l108 51c21 -48 62 -71 110 -71c52 0 86 18 86 52c0 21 -15 35 -50 43l-107 25c-78 18 -124 72 -124 149c0 90 79 158 203 158c87 0 168 -37 197 -119l-100 -46c-20 38 -52 62 -100 62c-45 0 -74 -18 -74 -48c0 -24 15 -41 50 -49z" />
    <glyph glyph-name="scaron" unicode="&#x161;" horiz-adv-x="516" 
d="M241 320l107 -25c76 -18 125 -62 125 -137c0 -92 -78 -168 -215 -168c-108 0 -181 40 -216 123l108 51c21 -48 62 -71 110 -71c52 0 86 18 86 52c0 21 -15 35 -50 43l-107 25c-78 18 -124 72 -124 149c0 90 79 158 203 158c87 0 168 -37 197 -119l-100 -46
c-20 38 -52 62 -100 62c-45 0 -74 -18 -74 -48c0 -24 15 -41 50 -49zM426 746v-25l-102 -148h-124l-102 148v25h82l70 -75h24l69 75h83z" />
    <glyph glyph-name="scircumflex" unicode="&#x15d;" horiz-adv-x="516" 
d="M241 320l107 -25c76 -18 125 -62 125 -137c0 -92 -78 -168 -215 -168c-108 0 -181 40 -216 123l108 51c21 -48 62 -71 110 -71c52 0 86 18 86 52c0 21 -15 35 -50 43l-107 25c-78 18 -124 72 -124 149c0 90 79 158 203 158c87 0 168 -37 197 -119l-100 -46
c-20 38 -52 62 -100 62c-45 0 -74 -18 -74 -48c0 -24 15 -41 50 -49zM425 598v-25h-83l-69 75h-24l-70 -75h-82v25l102 148h124z" />
    <glyph glyph-name="scommaaccent" unicode="&#x219;" horiz-adv-x="516" 
d="M241 320l107 -25c76 -18 125 -62 125 -137c0 -92 -78 -168 -215 -168c-108 0 -181 40 -216 123l108 51c21 -48 62 -71 110 -71c52 0 86 18 86 52c0 21 -15 35 -50 43l-107 25c-78 18 -124 72 -124 149c0 90 79 158 203 158c87 0 168 -37 197 -119l-100 -46
c-20 38 -52 62 -100 62c-45 0 -74 -18 -74 -48c0 -24 15 -41 50 -49zM257 -311l-48 26l47 75v25c-42 0 -71 33 -71 74c0 40 33 70 76 70c41 0 78 -30 78 -85c0 -68 -38 -116 -82 -185z" />
    <glyph glyph-name="tbar" unicode="&#x167;" horiz-adv-x="466" 
d="M45 234v94h79v71h-79v111h79v190h132v-190h163v-111h-163v-71h163v-94h-163v-61c0 -55 29 -72 67 -72c30 0 52 12 71 26l48 -90c-34 -26 -81 -47 -142 -47c-114 0 -176 62 -176 167v77h-79z" />
    <glyph glyph-name="tcaron" unicode="&#x165;" horiz-adv-x="453" 
d="M111 157v242h-79v111h79v190h132v-190h163v-111h-163v-226c0 -55 29 -72 67 -72c30 0 52 12 71 26l48 -90c-34 -26 -81 -47 -142 -47c-114 0 -176 62 -176 167zM427 750v-25l-60 -168h-72v193h132z" />
    <glyph glyph-name="tcommaaccent" unicode="&#x163;" horiz-adv-x="453" 
d="M111 157v242h-79v111h79v190h132v-190h163v-111h-163v-226c0 -55 29 -72 67 -72c30 0 52 12 71 26l48 -90c-34 -26 -81 -47 -142 -47c-7 0 -13 0 -19 1l-25 -34c9 4 24 6 38 6c38 0 78 -27 78 -75c0 -54 -45 -95 -121 -95c-52 0 -95 23 -114 38l41 58
c16 -15 42 -28 72 -28c33 0 41 16 41 28c0 13 -12 22 -36 22c-12 0 -34 -5 -45 -12l-35 29l51 72c-67 22 -102 77 -102 157z" />
    <glyph glyph-name="uni021B" unicode="&#x21b;" horiz-adv-x="453" 
d="M111 157v242h-79v111h79v190h132v-190h163v-111h-163v-226c0 -55 29 -72 67 -72c30 0 52 12 71 26l48 -90c-34 -26 -81 -47 -142 -47c-114 0 -176 62 -176 167zM231 -311l-48 26l47 75v25c-42 0 -71 33 -71 74c0 40 33 70 76 70c41 0 78 -30 78 -85
c0 -68 -38 -116 -82 -185z" />
    <glyph glyph-name="uhungarumlaut" unicode="&#x171;" horiz-adv-x="590" 
d="M513 510v-510h-132v74h-25c-20 -48 -67 -84 -136 -84c-94 0 -150 64 -150 190v330h132v-305c0 -77 31 -104 79 -104c62 0 100 39 100 119v290h132zM170 567v25l53 148h116v-25l-83 -148h-86zM333 567v25l53 148h116v-25l-83 -148h-86z" />
    <glyph glyph-name="ubreve" unicode="&#x16d;" horiz-adv-x="590" 
d="M513 510v-510h-132v74h-25c-20 -48 -67 -84 -136 -84c-94 0 -150 64 -150 190v330h132v-305c0 -77 31 -104 79 -104c62 0 100 39 100 119v290h132zM292 581c-77 0 -151 36 -159 154l95 13c5 -41 20 -74 64 -74s59 33 64 74l95 -13c-8 -117 -82 -154 -159 -154z" />
    <glyph glyph-name="umacron" unicode="&#x16b;" horiz-adv-x="590" 
d="M513 510v-510h-132v74h-25c-20 -48 -67 -84 -136 -84c-94 0 -150 64 -150 190v330h132v-305c0 -77 31 -104 79 -104c62 0 100 39 100 119v290h132zM164 594v95h266v-95h-266z" />
    <glyph glyph-name="uogonek" unicode="&#x173;" horiz-adv-x="590" 
d="M516 -102l30 -79c-21 -13 -62 -26 -103 -26c-69 0 -111 35 -111 86c0 37 23 69 49 93v102h-25c-20 -48 -67 -84 -136 -84c-94 0 -150 64 -150 190v330h132v-305c0 -77 31 -104 79 -104c62 0 100 39 100 119v290h132v-510c-50 -21 -85 -52 -85 -83c0 -23 20 -32 38 -32
c20 0 36 6 50 13z" />
    <glyph glyph-name="uring" unicode="&#x16f;" horiz-adv-x="590" 
d="M513 510v-510h-132v74h-25c-20 -48 -67 -84 -136 -84c-94 0 -150 64 -150 190v330h132v-305c0 -77 31 -104 79 -104c62 0 100 39 100 119v290h132zM169 692c0 68 52 118 123 118s123 -50 123 -118c0 -69 -52 -119 -123 -119s-123 50 -123 119zM239 692
c0 -32 24 -57 53 -57s53 25 53 57s-24 56 -53 56s-53 -24 -53 -56z" />
    <glyph glyph-name="utilde" unicode="&#x169;" horiz-adv-x="590" 
d="M513 510v-510h-132v74h-25c-20 -48 -67 -84 -136 -84c-94 0 -150 64 -150 190v330h132v-305c0 -77 31 -104 79 -104c62 0 100 39 100 119v290h132zM355 586c-48 0 -80 46 -117 46c-18 0 -26 -18 -31 -46l-89 15c10 89 44 135 112 135c48 0 80 -46 117 -46
c18 0 23 18 28 46l89 -15c-10 -89 -41 -135 -109 -135z" />
    <glyph glyph-name="uacute" unicode="&#xfa;" horiz-adv-x="590" 
d="M513 510v-510h-132v74h-25c-20 -48 -67 -84 -136 -84c-94 0 -150 64 -150 190v330h132v-305c0 -77 31 -104 79 -104c62 0 100 39 100 119v290h132zM253 577v25l45 148h133v-25l-98 -148h-80z" />
    <glyph glyph-name="ugrave" unicode="&#xf9;" horiz-adv-x="590" 
d="M513 510v-510h-132v74h-25c-20 -48 -67 -84 -136 -84c-94 0 -150 64 -150 190v330h132v-305c0 -77 31 -104 79 -104c62 0 100 39 100 119v290h132zM332 602v-25h-80l-98 148v25h133z" />
    <glyph glyph-name="ucircumflex" unicode="&#xfb;" horiz-adv-x="590" 
d="M513 510v-510h-132v74h-25c-20 -48 -67 -84 -136 -84c-94 0 -150 64 -150 190v330h132v-305c0 -77 31 -104 79 -104c62 0 100 39 100 119v290h132zM454 602v-25h-83l-69 75h-24l-70 -75h-82v25l102 148h124z" />
    <glyph glyph-name="udieresis" unicode="&#xfc;" horiz-adv-x="590" 
d="M513 510v-510h-132v74h-25c-20 -48 -67 -84 -136 -84c-94 0 -150 64 -150 190v330h132v-305c0 -77 31 -104 79 -104c62 0 100 39 100 119v290h132zM103 665c0 43 33 77 76 77s78 -34 78 -77c0 -42 -35 -77 -78 -77s-76 35 -76 77zM329 665c0 43 35 77 77 77
c43 0 77 -34 77 -77c0 -42 -34 -77 -77 -77c-42 0 -77 35 -77 77z" />
    <glyph glyph-name="wacute" unicode="&#x1e83;" horiz-adv-x="784" 
d="M752 510v-25l-123 -485h-142l-81 329h-25l-83 -329h-143l-123 485v25h122l72 -333h25l78 333h126l83 -337h25l68 337h121zM358 577v25l45 148h133v-25l-98 -148h-80z" />
    <glyph glyph-name="wcircumflex" unicode="&#x175;" horiz-adv-x="784" 
d="M752 510v-25l-123 -485h-142l-81 329h-25l-83 -329h-143l-123 485v25h122l72 -333h25l78 333h126l83 -337h25l68 337h121zM555 602v-25h-83l-69 75h-24l-70 -75h-82v25l102 148h124z" />
    <glyph glyph-name="wdieresis" unicode="&#x1e85;" horiz-adv-x="784" 
d="M752 510v-25l-123 -485h-142l-81 329h-25l-83 -329h-143l-123 485v25h122l72 -333h25l78 333h126l83 -337h25l68 337h121zM204 665c0 43 33 77 76 77s78 -34 78 -77c0 -42 -35 -77 -78 -77s-76 35 -76 77zM430 665c0 43 35 77 77 77c43 0 77 -34 77 -77
c0 -42 -34 -77 -77 -77c-42 0 -77 35 -77 77z" />
    <glyph glyph-name="wgrave" unicode="&#x1e81;" horiz-adv-x="784" 
d="M752 510v-25l-123 -485h-142l-81 329h-25l-83 -329h-143l-123 485v25h122l72 -333h25l78 333h126l83 -337h25l68 337h121zM424 602v-25h-80l-98 148v25h133z" />
    <glyph glyph-name="uni1E8B" unicode="&#x1e8b;" horiz-adv-x="554" 
d="M30 0v25l165 234l-155 226v25h132l93 -144h25l92 144h129v-25l-152 -225l165 -235v-25h-132l-102 152h-25l-104 -152h-131zM183 659c0 45 36 81 81 81s81 -36 81 -81s-36 -81 -81 -81s-81 36 -81 81z" />
    <glyph glyph-name="ycircumflex" unicode="&#x177;" horiz-adv-x="552" 
d="M8 -182l43 103c22 -13 41 -19 65 -19c32 0 72 20 84 55l-175 528v25h133l104 -352h25l109 352h131v-25l-169 -484c-45 -127 -88 -211 -234 -211c-51 0 -87 12 -116 28zM437 602v-25h-83l-69 75h-24l-70 -75h-82v25l102 148h124z" />
    <glyph glyph-name="ydieresis" unicode="&#xff;" horiz-adv-x="552" 
d="M8 -182l43 103c22 -13 41 -19 65 -19c32 0 72 20 84 55l-175 528v25h133l104 -352h25l109 352h131v-25l-169 -484c-45 -127 -88 -211 -234 -211c-51 0 -87 12 -116 28zM86 665c0 43 33 77 76 77s78 -34 78 -77c0 -42 -35 -77 -78 -77s-76 35 -76 77zM312 665
c0 43 35 77 77 77c43 0 77 -34 77 -77c0 -42 -34 -77 -77 -77c-42 0 -77 35 -77 77z" />
    <glyph glyph-name="yacute" unicode="&#xfd;" horiz-adv-x="552" 
d="M8 -182l43 103c22 -13 41 -19 65 -19c32 0 72 20 84 55l-175 528v25h133l104 -352h25l109 352h131v-25l-169 -484c-45 -127 -88 -211 -234 -211c-51 0 -87 12 -116 28zM232 577v25l45 148h133v-25l-98 -148h-80z" />
    <glyph glyph-name="ygrave" unicode="&#x1ef3;" horiz-adv-x="552" 
d="M8 -182l43 103c22 -13 41 -19 65 -19c32 0 72 20 84 55l-175 528v25h133l104 -352h25l109 352h131v-25l-169 -484c-45 -127 -88 -211 -234 -211c-51 0 -87 12 -116 28zM326 602v-25h-80l-98 148v25h133z" />
    <glyph glyph-name="zacute" unicode="&#x17a;" horiz-adv-x="532" 
d="M247 137v-25h235v-112h-434v88l227 286v25h-220v111h423v-91zM226 577v25l45 148h133v-25l-98 -148h-80z" />
    <glyph glyph-name="zdotaccent" unicode="&#x17c;" horiz-adv-x="532" 
d="M247 137v-25h235v-112h-434v88l227 286v25h-220v111h423v-91zM188 663c0 45 36 81 81 81s81 -36 81 -81s-36 -81 -81 -81s-81 36 -81 81z" />
    <glyph glyph-name="zcaron" unicode="&#x17e;" horiz-adv-x="532" 
d="M247 137v-25h235v-112h-434v88l227 286v25h-220v111h423v-91zM432 750v-25l-102 -148h-124l-102 148v25h82l70 -75h24l69 75h83z" />
    <glyph glyph-name="uni01B6" unicode="&#x1b6;" horiz-adv-x="532" 
d="M96 214v83h123l64 77v25h-228v111h423v-91l-104 -122h56v-83h-126l-65 -77v-25h243v-112h-434v88l103 126h-55z" />
    <glyph glyph-name="infinity" unicode="&#x221e;" 
d="M314 212h-20c-28 -38 -67 -68 -122 -68c-91 0 -148 63 -148 146c0 82 57 145 148 145c57 0 94 -31 122 -69h20c28 37 66 69 123 69c91 0 148 -63 148 -145c0 -83 -57 -146 -148 -146c-58 0 -95 30 -123 68zM433 354c-35 0 -60 -30 -80 -65c20 -35 45 -64 80 -64
c40 0 62 30 62 65c0 34 -22 64 -62 64zM175 354c-40 0 -62 -30 -62 -64c0 -35 22 -65 62 -65c35 0 60 29 80 64c-20 35 -45 65 -80 65z" />
    <glyph glyph-name="ringacute" 
d="M339 826v-25c53 -13 89 -57 89 -113c0 -69 -52 -119 -123 -119s-123 50 -123 119c0 26 7 48 20 67l94 140h134v-25zM252 688c0 -32 24 -57 53 -57s53 25 53 57s-24 56 -53 56s-53 -24 -53 -56z" />
    <glyph glyph-name="commaaccent" unicode="&#xf6c3;" 
d="M298 -311l-48 26l47 75v25c-42 0 -71 33 -71 74c0 40 33 70 76 70c41 0 78 -30 78 -85c0 -68 -38 -116 -82 -185z" />
    <glyph glyph-name="commatop" 
d="M309 841l48 -26l-47 -75v-25c42 0 71 -33 71 -74c0 -40 -33 -70 -76 -70c-41 0 -78 30 -78 85c0 68 38 116 82 185z" />
    <glyph glyph-name="caron.slovak" 
d="M397 666v-25l-60 -168h-72v193h132z" />
    <glyph glyph-name="lozenge" unicode="&#x25ca;" 
d="M577 345v-25l-181 -320h-184l-182 320v25l182 321h184zM316 116l116 216l-116 218h-25l-119 -218l119 -216h25z" />
    <glyph glyph-name="logicalnot" unicode="&#xac;" 
d="M87 237v111h435v-273h-121v162h-314z" />
    <glyph glyph-name="radical" unicode="&#x221a;" horiz-adv-x="552" 
d="M574 666v-25l-213 -641h-178l-158 485v25h133l104 -352h25l156 508h131z" />
    <glyph glyph-name="AEacute" unicode="&#x1fc;" horiz-adv-x="979" 
d="M458 0v142h-247l-46 -142h-135v25l222 641h660v-121h-311v-147h272v-113h-272v-164h318v-121h-461zM341 545l-94 -290h211v290h-117zM493 703v25l45 148h133v-25l-98 -148h-80z" />
    <glyph glyph-name="florin" unicode="&#x192;" horiz-adv-x="439" 
d="M-3 -198l28 106c9 -3 23 -6 36 -6c34 0 59 26 59 71v306h-79v111h79v182c0 100 62 168 176 168c51 0 101 -16 134 -41l-52 -92c-16 13 -39 22 -66 22c-43 0 -60 -27 -60 -72v-167h123v-111h-123v-321c0 -98 -62 -168 -176 -168c-27 0 -57 2 -79 12z" />
    <glyph glyph-name="currency" unicode="&#xa4;" horiz-adv-x="608" 
d="M441 87l-71 70c-22 -8 -45 -12 -70 -12c-23 0 -44 3 -65 10l-68 -68l-82 82l60 60c-15 26 -24 58 -24 95c0 36 8 68 23 94l-59 59l82 82l66 -66c21 8 43 12 67 12c26 0 50 -5 73 -14l68 68l82 -82l-64 -64c13 -25 21 -55 21 -89c0 -35 -8 -66 -21 -91l64 -64zM300 245
c46 0 76 31 76 80c0 48 -31 80 -75 80c-45 0 -75 -32 -75 -80c0 -49 31 -80 74 -80z" />
    <glyph glyph-name="uni00AD" unicode="&#xad;" horiz-adv-x="471" 
d="M90 224v135h291v-135h-291z" />
    <glyph glyph-name="uni00A0" unicode="&#xa0;" horiz-adv-x="230" 
 />
    <glyph glyph-name="mu" unicode="&#xb5;" horiz-adv-x="590" 
d="M513 510v-510h-132v74h-25c-20 -48 -67 -84 -136 -84c-4 0 -11 0 -18 1v-191h-132v710h132v-305c0 -77 31 -104 79 -104c62 0 100 39 100 119v290h132z" />
    <glyph glyph-name="product" unicode="&#x220f;" horiz-adv-x="713" 
d="M80 0v666h553v-666h-141v545h-270v-545h-142z" />
    <glyph glyph-name="pi" unicode="&#x3c0;" horiz-adv-x="629" 
d="M517 399v-399h-132v399h-139v-399h-132v399h-84v111h569v-111h-82z" />
    <glyph glyph-name="Omega" unicode="&#x2126;" horiz-adv-x="768" 
d="M384 555c-113 0 -158 -85 -158 -222c0 -117 32 -185 116 -206v-127h-287v121h132v20c-78 27 -111 133 -111 232c0 180 113 303 308 303s308 -123 308 -303c0 -99 -33 -205 -111 -232v-20h132v-121h-287v127c84 21 116 89 116 206c0 137 -45 222 -158 222z" />
    <glyph glyph-name="integral" unicode="&#x222b;" horiz-adv-x="429" 
d="M-3 -198l28 106c9 -3 23 -6 36 -6c34 0 59 26 59 71v599c0 100 62 168 176 168c51 0 101 -16 134 -41l-52 -92c-16 13 -39 22 -66 22c-43 0 -60 -27 -60 -72v-599c0 -98 -62 -168 -176 -168c-27 0 -57 2 -79 12z" />
    <glyph glyph-name="ordfeminine" unicode="&#xaa;" horiz-adv-x="455" 
d="M298 399v55l-58 -8c-45 -7 -73 -28 -73 -63c0 -29 20 -44 52 -44c30 0 79 22 79 60zM169 540l-95 33c14 56 69 103 168 103c96 0 164 -41 164 -148v-262h-104v55h-25c-16 -36 -41 -63 -99 -63c-70 0 -123 48 -123 114c0 86 65 128 176 142l67 9v6c0 48 -23 62 -61 62
c-34 0 -56 -23 -68 -51z" />
    <glyph glyph-name="ordmasculine" unicode="&#xba;" horiz-adv-x="498" 
d="M169 468c0 -79 27 -117 80 -117c52 0 79 38 79 117s-27 117 -79 117c-53 0 -80 -38 -80 -117zM443 468c0 -130 -73 -208 -194 -208s-194 78 -194 208s73 208 194 208s194 -78 194 -208z" />
    <glyph glyph-name="uni2070" unicode="&#x2070;" horiz-adv-x="390" 
d="M195 586c-31 0 -52 -24 -52 -112c0 -86 21 -110 52 -110c33 0 53 24 53 110c0 88 -20 112 -53 112zM195 277c-88 0 -163 50 -163 197c0 149 75 199 163 199s163 -50 163 -199c0 -147 -75 -197 -163 -197z" />
    <glyph glyph-name="onesuperior" unicode="&#xb9;" horiz-adv-x="390" 
d="M280 285h-108v230h-25l-46 -40l-58 65l135 126h102v-381z" />
    <glyph glyph-name="twosuperior" unicode="&#xb2;" horiz-adv-x="390" 
d="M213 377h116v-92h-280v86l131 116c29 26 45 43 45 70c0 17 -10 32 -32 32c-30 0 -43 -29 -48 -62l-101 19c12 86 68 127 152 127c96 0 137 -51 137 -109c0 -45 -27 -81 -62 -112l-58 -50v-25z" />
    <glyph glyph-name="threesuperior" unicode="&#xb3;" horiz-adv-x="390" 
d="M191 277c-99 0 -143 60 -151 110l102 19c4 -25 22 -45 47 -45c23 0 37 15 37 41c0 29 -15 42 -42 42h-28v72h25c21 0 41 10 41 41c0 23 -16 32 -32 32c-18 0 -37 -12 -44 -45l-102 19c15 68 65 110 149 110c93 0 137 -49 137 -105c0 -35 -21 -66 -49 -75v-25
c26 -4 58 -29 58 -76c0 -63 -61 -115 -148 -115z" />
    <glyph glyph-name="uni2074" unicode="&#x2074;" horiz-adv-x="390" 
d="M20 432l147 234h138v-231h49v-89h-49v-61h-102v61h-183v86zM203 546h-25l-52 -86v-25h77v111z" />
    <glyph glyph-name="uni2075" unicode="&#x2075;" horiz-adv-x="390" 
d="M196 277c-97 0 -145 49 -156 110l102 19c4 -30 25 -45 48 -45c21 0 39 16 39 50c0 30 -14 41 -32 41c-11 0 -25 -7 -29 -20h-107l20 234h226v-92h-145l-5 -61h25c17 14 38 18 55 18c50 0 102 -24 102 -117c0 -90 -68 -137 -143 -137z" />
    <glyph glyph-name="uni2077" unicode="&#x2077;" horiz-adv-x="390" 
d="M59 519v147h287v-112c-53 -27 -118 -82 -118 -269h-106c0 155 56 233 103 263v25h-82v-54h-84z" />
    <glyph glyph-name="uni2076" unicode="&#x2076;" horiz-adv-x="390" 
d="M234 410c0 23 -11 47 -38 47c-24 0 -40 -16 -40 -49c0 -32 17 -49 42 -49c27 0 36 24 36 51zM151 512h25c14 13 37 20 59 20c62 0 109 -39 109 -121c0 -88 -66 -133 -143 -133c-105 0 -161 73 -161 195c0 132 63 200 160 200c83 0 130 -33 141 -92l-102 -19
c-7 20 -20 27 -38 27c-30 0 -50 -39 -50 -77z" />
    <glyph glyph-name="uni2078" unicode="&#x2078;" horiz-adv-x="390" 
d="M195 444c-29 0 -46 -17 -46 -44c0 -29 16 -46 46 -46s46 17 46 46c0 27 -17 44 -46 44zM195 597c-23 0 -37 -13 -37 -38c0 -22 14 -37 37 -37s37 15 37 37c0 25 -14 38 -37 38zM195 277c-98 0 -154 47 -154 113c0 41 26 70 63 78v25c-34 11 -52 43 -52 76
c0 58 55 105 143 105s143 -47 143 -105c0 -33 -18 -65 -52 -76v-25c37 -8 63 -37 63 -78c0 -66 -56 -113 -154 -113z" />
    <glyph glyph-name="uni2079" unicode="&#x2079;" horiz-adv-x="390" 
d="M156 541c0 -23 11 -47 38 -47c24 0 40 16 40 49c0 32 -17 49 -42 49c-27 0 -36 -24 -36 -51zM239 439h-25c-14 -13 -37 -20 -59 -20c-62 0 -109 39 -109 121c0 88 66 133 143 133c105 0 161 -73 161 -195c0 -132 -63 -200 -160 -200c-83 0 -130 33 -141 92l102 19
c7 -20 20 -27 38 -27c30 0 50 39 50 77z" />
    <glyph glyph-name="parenleft.subs" horiz-adv-x="390" 
d="M210 190c0 -88 31 -133 88 -138v-72c-118 0 -196 75 -196 210s78 211 196 211v-72c-57 -4 -88 -47 -88 -139z" />
    <glyph glyph-name="parenright.subs" horiz-adv-x="390" 
d="M190 190c0 92 -31 135 -88 139v72c118 0 196 -76 196 -211s-78 -210 -196 -210v72c57 5 88 50 88 138z" />
    <glyph glyph-name="uni2080" unicode="&#x2080;" horiz-adv-x="390" 
d="M195 301c-31 0 -52 -24 -52 -112c0 -86 21 -110 52 -110c33 0 53 24 53 110c0 88 -20 112 -53 112zM195 -8c-88 0 -163 50 -163 197c0 149 75 199 163 199s163 -50 163 -199c0 -147 -75 -197 -163 -197z" />
    <glyph glyph-name="uni2081" unicode="&#x2081;" horiz-adv-x="390" 
d="M280 0h-108v230h-25l-46 -40l-58 65l135 126h102v-381z" />
    <glyph glyph-name="uni2082" unicode="&#x2082;" horiz-adv-x="390" 
d="M213 92h116v-92h-280v86l131 116c29 26 45 43 45 70c0 17 -10 32 -32 32c-30 0 -43 -29 -48 -62l-101 19c12 86 68 127 152 127c96 0 137 -51 137 -109c0 -45 -27 -81 -62 -112l-58 -50v-25z" />
    <glyph glyph-name="uni2083" unicode="&#x2083;" horiz-adv-x="390" 
d="M191 -8c-99 0 -143 60 -151 110l102 19c4 -25 22 -45 47 -45c23 0 37 15 37 41c0 29 -15 42 -42 42h-28v72h25c21 0 41 10 41 41c0 23 -16 32 -32 32c-18 0 -37 -12 -44 -45l-102 19c15 68 65 110 149 110c93 0 137 -49 137 -105c0 -35 -21 -66 -49 -75v-25
c26 -4 58 -29 58 -76c0 -63 -61 -115 -148 -115z" />
    <glyph glyph-name="uni2084" unicode="&#x2084;" horiz-adv-x="390" 
d="M20 147l147 234h138v-231h49v-89h-49v-61h-102v61h-183v86zM203 261h-25l-52 -86v-25h77v111z" />
    <glyph glyph-name="uni2085" unicode="&#x2085;" horiz-adv-x="390" 
d="M196 -8c-97 0 -145 49 -156 110l102 19c4 -30 25 -45 48 -45c21 0 39 16 39 50c0 30 -14 41 -32 41c-11 0 -25 -7 -29 -20h-107l20 234h226v-92h-145l-5 -61h25c17 14 38 18 55 18c50 0 102 -24 102 -117c0 -90 -68 -137 -143 -137z" />
    <glyph glyph-name="uni2086" unicode="&#x2086;" horiz-adv-x="390" 
d="M234 125c0 23 -11 47 -38 47c-24 0 -40 -16 -40 -49c0 -32 17 -49 42 -49c27 0 36 24 36 51zM151 227h25c14 13 37 20 59 20c62 0 109 -39 109 -121c0 -88 -66 -133 -143 -133c-105 0 -161 73 -161 195c0 132 63 200 160 200c83 0 130 -33 141 -92l-102 -19
c-7 20 -20 27 -38 27c-30 0 -50 -39 -50 -77z" />
    <glyph glyph-name="uni2087" unicode="&#x2087;" horiz-adv-x="390" 
d="M59 234v147h287v-112c-53 -27 -118 -82 -118 -269h-106c0 155 56 233 103 263v25h-82v-54h-84z" />
    <glyph glyph-name="uni2088" unicode="&#x2088;" horiz-adv-x="390" 
d="M195 159c-29 0 -46 -17 -46 -44c0 -29 16 -46 46 -46s46 17 46 46c0 27 -17 44 -46 44zM195 312c-23 0 -37 -13 -37 -38c0 -22 14 -37 37 -37s37 15 37 37c0 25 -14 38 -37 38zM195 -8c-98 0 -154 47 -154 113c0 41 26 70 63 78v25c-34 11 -52 43 -52 76
c0 58 55 105 143 105s143 -47 143 -105c0 -33 -18 -65 -52 -76v-25c37 -8 63 -37 63 -78c0 -66 -56 -113 -154 -113z" />
    <glyph glyph-name="uni2089" unicode="&#x2089;" horiz-adv-x="390" 
d="M156 256c0 -23 11 -47 38 -47c24 0 40 16 40 49c0 32 -17 49 -42 49c-27 0 -36 -24 -36 -51zM239 154h-25c-14 -13 -37 -20 -59 -20c-62 0 -109 39 -109 121c0 88 66 133 143 133c105 0 161 -73 161 -195c0 -132 -63 -200 -160 -200c-83 0 -130 33 -141 92l102 19
c7 -20 20 -27 38 -27c30 0 50 39 50 77z" />
    <glyph glyph-name="parenleft.sups" unicode="&#x207d;" horiz-adv-x="390" 
d="M210 475c0 -88 31 -133 88 -138v-72c-118 0 -196 75 -196 210s78 211 196 211v-72c-57 -4 -88 -47 -88 -139z" />
    <glyph glyph-name="parenright.sups" unicode="&#x207e;" horiz-adv-x="390" 
d="M190 475c0 92 -31 135 -88 139v72c118 0 196 -76 196 -211s-78 -210 -196 -210v72c57 5 88 50 88 138z" />
    <glyph glyph-name="fraction" unicode="&#x2044;" horiz-adv-x="305" 
d="M-31 0h-84v25l451 641h84v-25z" />
    <glyph glyph-name="onehalf" unicode="&#xbd;" horiz-adv-x="880" 
d="M265 0h-84v25l451 641h84v-25zM699 92h116v-92h-280v86l131 116c29 26 45 43 45 70c0 17 -10 32 -32 32c-30 0 -43 -29 -48 -62l-101 19c12 86 68 127 152 127c96 0 137 -51 137 -109c0 -45 -27 -81 -62 -112l-58 -50v-25zM275 285h-108v230h-25l-46 -40l-58 65l135 126
h102v-381z" />
    <glyph glyph-name="onequarter" unicode="&#xbc;" horiz-adv-x="880" 
d="M265 0h-84v25l451 641h84v-25zM275 285h-108v230h-25l-46 -40l-58 65l135 126h102v-381zM487 147l147 234h138v-231h49v-89h-49v-61h-102v61h-183v86zM670 261h-25l-52 -86v-25h77v111z" />
    <glyph glyph-name="threequarters" unicode="&#xbe;" horiz-adv-x="880" 
d="M196 277c-99 0 -143 60 -151 110l102 19c4 -25 22 -45 47 -45c23 0 37 15 37 41c0 29 -15 42 -42 42h-28v72h25c21 0 41 10 41 41c0 23 -16 32 -32 32c-18 0 -37 -12 -44 -45l-102 19c15 68 65 110 149 110c93 0 137 -49 137 -105c0 -35 -21 -66 -49 -75v-25
c26 -4 58 -29 58 -76c0 -63 -61 -115 -148 -115zM265 0h-84v25l451 641h84v-25zM487 147l147 234h138v-231h49v-89h-49v-61h-102v61h-183v86zM670 261h-25l-52 -86v-25h77v111z" />
    <glyph glyph-name="uni2153" unicode="&#x2153;" horiz-adv-x="880" 
d="M682 -8c-99 0 -143 60 -151 110l102 19c4 -25 22 -45 47 -45c23 0 37 15 37 41c0 29 -15 42 -42 42h-28v72h25c21 0 41 10 41 41c0 23 -16 32 -32 32c-18 0 -37 -12 -44 -45l-102 19c15 68 65 110 149 110c93 0 137 -49 137 -105c0 -35 -21 -66 -49 -75v-25
c26 -4 58 -29 58 -76c0 -63 -61 -115 -148 -115zM275 285h-108v230h-25l-46 -40l-58 65l135 126h102v-381zM265 0h-84v25l451 641h84v-25z" />
    <glyph glyph-name="uni2155" unicode="&#x2155;" horiz-adv-x="880" 
d="M682 -8c-99 0 -143 60 -151 110l102 19c4 -25 22 -45 47 -45c23 0 37 15 37 41c0 29 -15 42 -42 42h-28v72h25c21 0 41 10 41 41c0 23 -16 32 -32 32c-18 0 -37 -12 -44 -45l-102 19c15 68 65 110 149 110c93 0 137 -49 137 -105c0 -35 -21 -66 -49 -75v-25
c26 -4 58 -29 58 -76c0 -63 -61 -115 -148 -115zM206 377h116v-92h-280v86l131 116c29 26 45 43 45 70c0 17 -10 32 -32 32c-30 0 -43 -29 -48 -62l-101 19c12 86 68 127 152 127c96 0 137 -51 137 -109c0 -45 -27 -81 -62 -112l-58 -50v-25zM265 0h-84v25l451 641h84v-25z
" />
    <glyph glyph-name="uni2154" unicode="&#x2154;" horiz-adv-x="880" 
d="M275 285h-108v230h-25l-46 -40l-58 65l135 126h102v-381zM265 0h-84v25l451 641h84v-25zM696 -8c-97 0 -145 49 -156 110l102 19c4 -30 25 -45 48 -45c21 0 39 16 39 50c0 30 -14 41 -32 41c-11 0 -25 -7 -29 -20h-107l20 234h226v-92h-145l-5 -61h25c17 14 38 18 55 18
c50 0 102 -24 102 -117c0 -90 -68 -137 -143 -137z" />
    <glyph glyph-name="uni2156" unicode="&#x2156;" horiz-adv-x="880" 
d="M265 0h-84v25l451 641h84v-25zM206 377h116v-92h-280v86l131 116c29 26 45 43 45 70c0 17 -10 32 -32 32c-30 0 -43 -29 -48 -62l-101 19c12 86 68 127 152 127c96 0 137 -51 137 -109c0 -45 -27 -81 -62 -112l-58 -50v-25zM696 -8c-97 0 -145 49 -156 110l102 19
c4 -30 25 -45 48 -45c21 0 39 16 39 50c0 30 -14 41 -32 41c-11 0 -25 -7 -29 -20h-107l20 234h226v-92h-145l-5 -61h25c17 14 38 18 55 18c50 0 102 -24 102 -117c0 -90 -68 -137 -143 -137z" />
    <glyph glyph-name="uni2157" unicode="&#x2157;" horiz-adv-x="880" 
d="M191 277c-99 0 -143 60 -151 110l102 19c4 -25 22 -45 47 -45c23 0 37 15 37 41c0 29 -15 42 -42 42h-28v72h25c21 0 41 10 41 41c0 23 -16 32 -32 32c-18 0 -37 -12 -44 -45l-102 19c15 68 65 110 149 110c93 0 137 -49 137 -105c0 -35 -21 -66 -49 -75v-25
c26 -4 58 -29 58 -76c0 -63 -61 -115 -148 -115zM265 0h-84v25l451 641h84v-25zM696 -8c-97 0 -145 49 -156 110l102 19c4 -30 25 -45 48 -45c21 0 39 16 39 50c0 30 -14 41 -32 41c-11 0 -25 -7 -29 -20h-107l20 234h226v-92h-145l-5 -61h25c17 14 38 18 55 18
c50 0 102 -24 102 -117c0 -90 -68 -137 -143 -137z" />
    <glyph glyph-name="uni2158" unicode="&#x2158;" horiz-adv-x="880" 
d="M265 0h-84v25l451 641h84v-25zM696 -8c-97 0 -145 49 -156 110l102 19c4 -30 25 -45 48 -45c21 0 39 16 39 50c0 30 -14 41 -32 41c-11 0 -25 -7 -29 -20h-107l20 234h226v-92h-145l-5 -61h25c17 14 38 18 55 18c50 0 102 -24 102 -117c0 -90 -68 -137 -143 -137zM18 432
l147 234h138v-231h49v-89h-49v-61h-102v61h-183v86zM201 546h-25l-52 -86v-25h77v111z" />
    <glyph glyph-name="uni2159" unicode="&#x2159;" horiz-adv-x="880" 
d="M265 0h-84v25l451 641h84v-25zM275 285h-108v230h-25l-46 -40l-58 65l135 126h102v-381zM725 125c0 23 -11 47 -38 47c-24 0 -40 -16 -40 -49c0 -32 17 -49 42 -49c27 0 36 24 36 51zM642 227h25c14 13 37 20 59 20c62 0 109 -39 109 -121c0 -88 -66 -133 -143 -133
c-105 0 -161 73 -161 195c0 132 63 200 160 200c83 0 130 -33 141 -92l-102 -19c-7 20 -20 27 -38 27c-30 0 -50 -39 -50 -77z" />
    <glyph glyph-name="uni215A" unicode="&#x215a;" horiz-adv-x="880" 
d="M265 0h-84v25l451 641h84v-25zM725 125c0 23 -11 47 -38 47c-24 0 -40 -16 -40 -49c0 -32 17 -49 42 -49c27 0 36 24 36 51zM642 227h25c14 13 37 20 59 20c62 0 109 -39 109 -121c0 -88 -66 -133 -143 -133c-105 0 -161 73 -161 195c0 132 63 200 160 200
c83 0 130 -33 141 -92l-102 -19c-7 20 -20 27 -38 27c-30 0 -50 -39 -50 -77zM210 277c-97 0 -145 49 -156 110l102 19c4 -30 25 -45 48 -45c21 0 39 16 39 50c0 30 -14 41 -32 41c-11 0 -25 -7 -29 -20h-107l20 234h226v-92h-145l-5 -61h25c17 14 38 18 55 18
c50 0 102 -24 102 -117c0 -90 -68 -137 -143 -137z" />
    <glyph glyph-name="uni215B" unicode="&#x215b;" horiz-adv-x="880" 
d="M265 0h-84v25l451 641h84v-25zM275 285h-108v230h-25l-46 -40l-58 65l135 126h102v-381zM705 159c-29 0 -46 -17 -46 -44c0 -29 16 -46 46 -46s46 17 46 46c0 27 -17 44 -46 44zM705 312c-23 0 -37 -13 -37 -38c0 -22 14 -37 37 -37s37 15 37 37c0 25 -14 38 -37 38z
M705 -8c-98 0 -154 47 -154 113c0 41 26 70 63 78v25c-34 11 -52 43 -52 76c0 58 55 105 143 105s143 -47 143 -105c0 -33 -18 -65 -52 -76v-25c37 -8 63 -37 63 -78c0 -66 -56 -113 -154 -113z" />
    <glyph glyph-name="uni215D" unicode="&#x215d;" horiz-adv-x="880" 
d="M265 0h-84v25l451 641h84v-25zM191 277c-99 0 -143 60 -151 110l102 19c4 -25 22 -45 47 -45c23 0 37 15 37 41c0 29 -15 42 -42 42h-28v72h25c21 0 41 10 41 41c0 23 -16 32 -32 32c-18 0 -37 -12 -44 -45l-102 19c15 68 65 110 149 110c93 0 137 -49 137 -105
c0 -35 -21 -66 -49 -75v-25c26 -4 58 -29 58 -76c0 -63 -61 -115 -148 -115zM705 159c-29 0 -46 -17 -46 -44c0 -29 16 -46 46 -46s46 17 46 46c0 27 -17 44 -46 44zM705 312c-23 0 -37 -13 -37 -38c0 -22 14 -37 37 -37s37 15 37 37c0 25 -14 38 -37 38zM705 -8
c-98 0 -154 47 -154 113c0 41 26 70 63 78v25c-34 11 -52 43 -52 76c0 58 55 105 143 105s143 -47 143 -105c0 -33 -18 -65 -52 -76v-25c37 -8 63 -37 63 -78c0 -66 -56 -113 -154 -113z" />
    <glyph glyph-name="uni215C" unicode="&#x215c;" horiz-adv-x="880" 
d="M265 0h-84v25l451 641h84v-25zM705 159c-29 0 -46 -17 -46 -44c0 -29 16 -46 46 -46s46 17 46 46c0 27 -17 44 -46 44zM705 312c-23 0 -37 -13 -37 -38c0 -22 14 -37 37 -37s37 15 37 37c0 25 -14 38 -37 38zM705 -8c-98 0 -154 47 -154 113c0 41 26 70 63 78v25
c-34 11 -52 43 -52 76c0 58 55 105 143 105s143 -47 143 -105c0 -33 -18 -65 -52 -76v-25c37 -8 63 -37 63 -78c0 -66 -56 -113 -154 -113zM210 277c-97 0 -145 49 -156 110l102 19c4 -30 25 -45 48 -45c21 0 39 16 39 50c0 30 -14 41 -32 41c-11 0 -25 -7 -29 -20h-107
l20 234h226v-92h-145l-5 -61h25c17 14 38 18 55 18c50 0 102 -24 102 -117c0 -90 -68 -137 -143 -137z" />
    <glyph glyph-name="uni215E" unicode="&#x215e;" horiz-adv-x="880" 
d="M265 0h-84v25l451 641h84v-25zM705 159c-29 0 -46 -17 -46 -44c0 -29 16 -46 46 -46s46 17 46 46c0 27 -17 44 -46 44zM705 312c-23 0 -37 -13 -37 -38c0 -22 14 -37 37 -37s37 15 37 37c0 25 -14 38 -37 38zM705 -8c-98 0 -154 47 -154 113c0 41 26 70 63 78v25
c-34 11 -52 43 -52 76c0 58 55 105 143 105s143 -47 143 -105c0 -33 -18 -65 -52 -76v-25c37 -8 63 -37 63 -78c0 -66 -56 -113 -154 -113zM91 519v147h287v-112c-53 -27 -118 -82 -118 -269h-106c0 155 56 233 103 263v25h-82v-54h-84z" />
    <glyph glyph-name="uni2190" unicode="&#x2190;" horiz-adv-x="630" 
d="M380 103v-25h-117l-223 221v24l223 221h117v-24l-131 -128v-25h353v-114h-353v-25z" />
    <glyph glyph-name="uni2191" unicode="&#x2191;" horiz-adv-x="630" 
d="M107 246h-25v117l221 223h24l221 -223v-117h-24l-128 131h-25v-353h-114v353h-25z" />
    <glyph glyph-name="uni2192" unicode="&#x2192;" horiz-adv-x="630" 
d="M250 78v25l131 125v25h-353v114h353v25l-131 128v24h117l223 -221v-24l-223 -221h-117z" />
    <glyph glyph-name="uni2193" unicode="&#x2193;" horiz-adv-x="630" 
d="M82 358h25l125 -131h25v353h114v-353h25l128 131h24v-117l-221 -223h-24l-221 223v117z" />
    <glyph glyph-name="uni2196" unicode="&#x2196;" horiz-adv-x="630" 
d="M498 437v-25l-203 4v-25l243 -243l-81 -81l-242 242h-25l4 -202h-24l-78 76v331h331z" />
    <glyph glyph-name="uni2197" unicode="&#x2197;" horiz-adv-x="630" 
d="M132 412v25l75 77h331v-331l-78 -76h-24l4 202h-25l-242 -242l-81 81l243 243v25z" />
    <glyph glyph-name="uni2198" unicode="&#x2198;" horiz-adv-x="630" 
d="M132 134v25l203 -4v25l-243 243l81 81l242 -242h25l-4 202h24l78 -76v-331h-331z" />
    <glyph glyph-name="uni2199" unicode="&#x2199;" horiz-adv-x="630" 
d="M498 159v-25l-75 -77h-331v331l78 76h24l-4 -202h25l242 242l81 -81l-243 -243v-25z" />
    <glyph glyph-name="space" unicode=" " horiz-adv-x="230" 
 />
    </font>
</defs>
</svg>
