<?xml version="1.0" encoding="UTF-8"?>
<!DOCTYPE svg PUBLIC "-//W3C//DTD SVG 1.1//EN" "http://www.w3.org/Graphics/SVG/1.1/DTD/svg11.dtd">
<svg version="1.1" xmlns="http://www.w3.org/2000/svg" xmlns:xlink="http://www.w3.org/1999/xlink" x="0" y="0" width="340.555" height="387.67" viewBox="0, 0, 340.555, 387.67">
  <defs>
    <clipPath id="Clip_1">
      <path d="M88.304,113.661 L253.838,113.661 L253.838,149.073 L88.304,149.073 z"/>
    </clipPath>
  </defs>
  <g id="Layer_1">
    <g>
      <path d="M333.667,94.539 C334.999,95.479 335.331,93.735 335.695,93.595 C333.155,92.559 333.507,94.951 333.667,94.539" fill="#3F3B3C"/>
      <path d="M308.564,84.442 L309.316,84.086 L305.06,83.566 z" fill="#3F3B3C"/>
      <path d="M286.884,71.892 C287.508,75.548 294.976,76.032 298.332,79.14 L298.644,80.072 L301.536,79.088 C296.656,76.692 289.792,74.492 286.884,71.892" fill="#3F3B3C"/>
      <path d="M278.404,59.865 C278.564,61.241 275.424,59.249 280.928,61.725 C280.728,61.469 280.688,61.365 280.58,61.197 C280.104,60.941 279.46,60.569 278.404,59.865" fill="#3F3B3C"/>
      <path d="M280.579,61.198 C282.903,62.446 279.551,59.526 280.579,61.198" fill="#3F3B3C"/>
      <path d="M269.71,55.659 L273.214,56.539 C272.914,55.607 270.31,53.931 271.542,54.091 C268.186,52.779 268.494,53.711 269.71,55.659" fill="#3F3B3C"/>
      <path d="M265.815,55.817 L267.583,56.353 C267.447,55.957 267.083,55.637 265.815,55.817" fill="#3F3B3C"/>
      <path d="M271.335,57.495 L267.583,56.355 C267.791,57.003 267.375,57.835 269.263,56.955 C268.571,57.531 269.631,57.203 271.335,57.495" fill="#3F3B3C"/>
      <path d="M272.99,58.953 C274.366,60.465 276.354,62.061 272.838,61.173 C278.794,64.157 278.946,61.929 272.99,58.953" fill="#3F3B3C"/>
      <path d="M284.3,73.81 L286.14,75.838 L288.568,76.134 C287.356,75.982 284.608,72.954 284.3,73.81" fill="#3F3B3C"/>
      <path d="M251.701,43.557 C251.209,43.973 251.905,45.545 251.741,46.345 L254.309,47.025 C253.377,46.005 251.401,44.425 251.701,43.557" fill="#3F3B3C"/>
      <path d="M251.739,46.346 L247.891,45.33 C250.799,47.15 251.591,47.034 251.739,46.346" fill="#3F3B3C"/>
      <path d="M263.693,58.253 L270.253,59.509 L262.625,57.669 z" fill="#3F3B3C"/>
      <path d="M239.036,36.159 L241.624,36.031 L237.204,35.931 z" fill="#3F3B3C"/>
      <path d="M230.487,31.508 C232.463,31.304 229.559,28.696 231.391,28.928 C228.999,27.788 226.547,27.524 224.335,27.288 C226.455,27.932 228.387,29.196 230.487,31.508" fill="#3F3B3C"/>
      <path d="M220.727,26.717 C221.799,27.013 223.019,27.141 224.335,27.289 C223.211,26.949 222.039,26.717 220.727,26.717" fill="#3F3B3C"/>
      <path d="M242.377,41.799 C242.305,41.331 242.289,40.215 240.625,38.787 L241.081,41.019 C241.477,41.259 241.925,41.527 242.377,41.799" fill="#3F3B3C"/>
      <path d="M241.099,41.095 L241.079,41.019 C239.683,40.159 238.715,39.563 238.303,39.307 C238.655,39.531 239.495,40.071 241.099,41.095" fill="#3F3B3C"/>
      <path d="M242.703,41.996 C242.583,41.924 242.495,41.872 242.375,41.8 C242.419,42.016 242.467,42.112 242.703,41.996" fill="#3F3B3C"/>
      <path d="M255.747,51.88 C253.315,51.58 248.727,50.116 251.943,53.652 C253.931,53.448 252.087,51.428 255.747,51.88" fill="#3F3B3C"/>
      <path d="M243.259,44.784 L246.595,47.16 C246.751,46.732 246.443,45.792 247.651,45.94 z" fill="#3F3B3C"/>
      <path d="M241.258,44.256 L243.258,44.784 L242.022,43.904 z" fill="#3F3B3C"/>
      <path d="M225.979,31.596 C224.083,31.36 222.379,30.452 220.435,29.464 C222.287,30.924 224.287,32.284 226.275,33.428 C226.823,33.124 228.175,32.792 225.979,31.596" fill="#3F3B3C"/>
      <path d="M233.251,36.342 C233.127,36.306 232.979,36.262 232.863,36.23 C232.999,36.478 233.143,36.614 233.251,36.342" fill="#3F3B3C"/>
      <path d="M201.877,18.739 L202.021,19.179 L202.237,18.963 z" fill="#3F3B3C"/>
      <path d="M226.453,33.899 C227.809,35.063 228.925,35.223 230.053,35.267 C228.833,34.759 227.573,34.163 226.273,33.427 C226.025,33.563 225.921,33.691 226.453,33.899" fill="#3F3B3C"/>
      <path d="M215.148,24.42 C215.76,25.188 216.508,25.968 217.308,26.752 C216.808,25.836 215.652,24.196 215.148,24.42" fill="#3F3B3C"/>
      <path d="M232.587,35.526 L232.851,35.59 C232.539,34.986 232.511,35.178 232.587,35.526" fill="#3F3B3C"/>
      <path d="M232.587,35.526 C231.683,35.286 230.855,35.298 230.051,35.266 C231.043,35.686 231.995,36.022 232.863,36.23 C232.735,36.018 232.639,35.75 232.587,35.526" fill="#3F3B3C"/>
      <path d="M190.767,24.996 C191.827,23.78 196.555,24.816 199.151,28.276 C203.139,29.208 203.523,23.412 202.019,19.18 C201.567,19.72 201.251,20.272 197.291,19.068 C198.079,20.52 204.027,25.292 200.363,24.832 C195.331,22.868 196.855,22.16 195.023,20.136 C195.947,22.948 187.703,19.228 187.259,22.324 L191.827,23.78 C191.679,24.212 189.847,23.988 190.767,24.996" fill="#3F3B3C"/>
      <path d="M208.59,23.16 L210.126,23.82 C208.626,22.636 207.77,21.408 206.23,19.088 C203.454,18.38 202.662,18.604 202.234,18.964 L209.198,23.24 z" fill="#3F3B3C"/>
      <path d="M216.578,27.536 C214.594,28.38 210.778,27.024 211.958,29.86 C216.234,32.192 215.63,30.32 218.526,31.124 C211.506,27.568 220.958,31.424 216.534,27.736 C218.014,28.256 219.262,28.872 220.434,29.464 C219.314,28.576 218.262,27.668 217.31,26.752 C217.35,26.824 217.378,26.872 217.41,26.936 L217.446,26.948 L217.426,26.968 C217.61,27.324 217.642,27.492 217.374,27.192 C217.342,27.2 217.254,27.156 217.214,27.14 C217.05,27.324 216.818,27.432 216.582,27.528 C214.79,26.084 216.498,26.96 217.214,27.14 C217.278,27.084 217.374,27.044 217.426,26.968 L217.41,26.936 L210.126,23.82 C211.446,24.86 213.278,25.86 216.578,27.536" fill="#3F3B3C"/>
      <path d="M246.455,54.766 C246.319,54.51 246.391,54.41 246.439,54.294 C245.891,54.222 245.651,54.25 246.455,54.766" fill="#3F3B3C"/>
      <path d="M244.172,52.246 C244.788,52.326 245.544,51.966 247.068,53.05 C248.204,54.302 246.648,53.762 246.436,54.294 C247.636,54.458 250.452,55.182 247.828,52.702 L247.228,52.626 C244.78,50.53 242.332,46.63 242.928,46.702 C242.952,48.51 243.108,49.874 244.172,52.246" fill="#3F3B3C"/>
      <path d="M229.959,40.158 L223.863,37.614 L226.007,40.574 L226.307,39.714 C229.359,41.882 229.215,40.522 229.959,40.158" fill="#3F3B3C"/>
      <path d="M201.656,17.622 L203.32,16.478 L198.756,16.814 z" fill="#3F3B3C"/>
      <path d="M194.172,13.554 L195.236,12.338 L192.812,12.042 z" fill="#3F3B3C"/>
      <path d="M98.352,325.344 L100.244,325.916 C99.384,325.584 98.804,325.42 98.352,325.344" fill="#3F3B3C"/>
      <path d="M86.334,318.281 L85.65,318.785 C86.422,318.737 86.81,318.593 86.334,318.281" fill="#3F3B3C"/>
      <path d="M2.639,106.636 C2.251,107.736 1.839,108.892 1.455,109.988 C1.259,110.572 1.067,111.136 0.891,111.672 C0.803,111.948 0.719,112.216 0.639,112.476 C0.563,112.632 0.491,112.784 0.423,112.924 C-0.113,114.016 -0.241,114.716 0.647,114.544 L2.383,113.684 C2.307,113.124 2.259,112.888 2.239,112.144 C2.219,111.412 2.227,110.724 2.255,110.076 C2.311,108.776 2.451,107.64 2.639,106.636" fill="#3F3B3C"/>
      <path d="M13,252.172 C13.172,251.908 13.348,251.628 13.528,251.352 C12.932,250.672 12.376,250.036 11.868,249.456 C12.208,250.28 12.596,251.204 13,252.172" fill="#3F3B3C"/>
      <path d="M20.181,254.151 L19.061,257.847 C19.453,257.019 19.825,255.827 20.181,254.151" fill="#3F3B3C"/>
      <path d="M165.201,361.818 L168.029,361.41 C164.981,359.662 165.877,361.206 165.201,361.818" fill="#3F3B3C"/>
      <path d="M108.821,37.097 C106.385,37.721 104.577,38.437 103.069,39.209 C106.093,38.613 108.877,38.733 108.821,37.097" fill="#3F3B3C"/>
      <path d="M84.393,338.55 C85.569,338.866 86.185,338.814 86.345,338.462 C85.149,338.11 84.389,338.054 84.393,338.55" fill="#3F3B3C"/>
      <path d="M97.018,42.709 C97.474,42.645 97.882,42.513 98.33,42.421 C99.718,41.285 101.142,40.193 103.07,39.209 C100.834,39.641 98.47,40.481 97.018,42.709" fill="#3F3B3C"/>
      <path d="M320.009,207.439 C320.089,207.239 320.125,206.995 320.217,206.815 C319.981,206.755 319.969,207.031 320.009,207.439" fill="#3F3B3C"/>
      <path d="M337.52,127.002 C337.628,127.794 337.628,129.086 337.652,130.306 C337.772,129.71 337.76,128.714 337.52,127.002" fill="#3F3B3C"/>
      <path d="M153.981,9.414 C155.489,8.414 154.133,9.106 153.981,9.414" fill="#3F3B3C"/>
      <path d="M165.935,10.438 C165.567,10.874 165.331,11.298 165.411,11.714 C165.435,11.218 165.627,10.802 165.935,10.438" fill="#3F3B3C"/>
      <path d="M86.839,61.057 C86.791,61.081 86.755,61.101 86.699,61.129 C87.335,61.157 87.223,61.145 86.839,61.057" fill="#3F3B3C"/>
      <path d="M156.729,8.739 C156.037,8.895 155.269,9.131 154.469,9.447 C154.861,9.379 155.553,9.171 156.729,8.739" fill="#3F3B3C"/>
      <path d="M156.002,8.211 C156.574,7.955 157.026,7.759 157.454,7.567 C157.506,7.203 157.242,7.147 156.002,8.211" fill="#3F3B3C"/>
      <path d="M151.849,10.753 C152.729,10.213 153.605,9.801 154.473,9.449 C154.105,9.525 153.929,9.513 153.981,9.413 C153.533,9.697 152.897,10.093 151.849,10.753" fill="#3F3B3C"/>
      <path d="M267.896,316.534 C268.028,316.522 268.164,316.482 268.312,316.482 C269.532,314.946 268.896,315.446 267.896,316.534" fill="#3F3B3C"/>
      <path d="M20.66,155.95 C20.644,155.866 20.596,155.822 20.576,155.742 C20.556,155.83 20.532,155.934 20.516,156.01 z" fill="#3F3B3C"/>
      <path d="M21.953,162.437 C19.793,159.673 20.057,158.105 20.517,156.013 L15.513,158.157 z" fill="#3F3B3C"/>
      <path d="M291.095,318.138 L289.811,318.294 C291.859,316.47 291.459,317.282 291.095,318.138 M143.331,18.342 C143.731,17.802 143.559,17.59 143.199,17.486 C143.075,18.122 141.903,18.838 140.483,19.502 C141.111,19.722 141.967,19.63 143.331,18.342 M137.623,20.67 C137.587,20.726 137.567,20.766 137.547,20.822 C134.623,21.642 135.675,21.378 137.623,20.67 M16.707,242.15 C17.347,243.13 17.031,244.65 16.299,246.358 C16.143,245.118 16.215,243.71 16.707,242.15 M67.931,308.638 C69.275,308.95 72.175,309.182 72.443,310.65 C70.035,311.814 69.559,310.314 67.931,308.638 M127.507,341.602 L124.339,337.974 C130.387,338.498 133.387,341.254 130.783,337.218 C127.507,341.602 115.171,328.846 111.907,333.23 L109.879,330.738 C110.595,331.214 110.875,331.006 111.583,331.478 C107.827,326.306 105.863,332.71 99.735,328.278 C97.671,326.606 96.483,325.01 98.351,325.346 L92.619,323.586 C91.199,322.646 92.031,322.034 93.447,322.97 L85.511,318.89 L85.647,318.786 C84.119,318.89 80.967,318.586 79.467,318.37 C77.899,316.562 80.739,318.438 80.579,317.562 L75.647,316.234 C74.607,314.01 78.835,314.874 81.683,316.75 C80.407,309.75 77.455,315.89 70.427,308.17 L74.807,309.906 C73.747,305.734 70.039,304.882 66.435,300.582 C67.015,302.078 73.147,310.05 67.835,308.546 C66.731,307.434 65.107,306.27 62.059,305.774 C62.999,304.086 60.319,303.086 57.207,301.418 L58.695,299.322 C55.023,298.054 54.631,299.33 52.111,299.206 C48.555,296.862 48.779,294.702 48.747,292.758 C43.051,288.998 51.235,297.862 44.011,294.246 C39.595,290.566 35.627,289.482 28.991,287.422 C25.999,284.674 30.375,286.41 29.507,285.066 L25.443,285.078 C24.723,284.602 25.279,284.198 25.559,283.998 C25.187,283.898 24.887,283.854 24.635,283.854 C24.451,283.894 24.347,283.99 24.215,284.082 C23.967,284.27 23.759,284.514 23.523,284.742 C23.047,285.19 22.483,285.574 20.955,285.094 C19.771,285.838 18.967,284.634 18.503,283.394 C19.039,282.102 19.655,280.862 19.915,279.862 C20.175,278.71 20.075,278.426 19.175,276.398 C19.903,274.978 20.743,277.082 21.735,276.65 C19.635,268.742 20.207,269.87 17.383,263.378 L19.063,257.85 C17.139,261.914 14.867,256.722 12.999,252.174 C12.071,253.614 11.259,254.846 10.871,255.674 L9.499,248.414 C9.919,247.538 10.799,248.27 11.867,249.458 C11.655,248.962 11.447,248.494 11.255,248.13 C12.199,245.534 13.675,246.878 15.107,248.738 C14.579,249.61 14.047,250.49 13.527,251.354 C15.083,253.146 16.803,254.822 18.299,254.45 C18.007,253.978 17.751,253.07 17.611,252.07 C18.031,252.538 18.407,252.838 18.663,252.622 C18.935,252.374 18.367,251.618 17.715,250.43 L20.567,248.782 L19.435,248.378 L21.219,238.886 C18.347,232.09 14.119,226.182 12.943,215.402 C15.035,218.074 16.359,215.974 18.839,216.122 C16.215,219.062 19.951,224.47 19.419,230.058 C19.695,227.142 20.875,227.786 21.287,228.526 L18.903,218.562 C20.931,218.786 20.423,216.442 21.259,213.842 C17.255,215.81 18.591,206.41 17.363,202.358 C18.707,202.106 20.083,203.078 19.759,208.026 C22.775,202.566 15.051,200.97 17.615,195.614 C17.647,196.822 17.443,197.47 18.123,197.95 C16.931,195.126 17.875,188.23 19.047,189.85 L19.075,191.058 C19.551,183.038 19.107,166.642 15.703,165.446 C16.143,165.366 19.803,166.498 20.491,166.982 L9.043,152.67 C11.967,153.934 18.927,149.094 20.575,155.746 C20.991,153.834 21.479,151.47 20.447,147.446 C20.031,148.75 16.223,150.694 15.955,148.914 C19.207,144.026 17.695,145.522 20.467,139.498 C19.843,141.45 15.259,139.282 15.407,136.194 C16.091,136.678 19.931,135.938 20.407,137.066 L15.907,129.386 C16.719,131.302 19.719,129.722 20.991,128.006 C20.111,128.802 21.075,121.366 20.627,119.318 L19.587,122.574 C19.927,118.238 18.343,116.098 16.707,113.962 C15.887,112.81 15.055,111.978 14.443,110.738 C13.831,109.49 13.435,107.826 13.495,105.818 C14.427,107.462 19.207,109.718 19.787,107.758 C19.083,106.834 17.587,104.498 18.295,100.966 C18.595,99.23 19.615,97.102 20.503,95.31 C21.463,93.474 22.631,91.782 24.055,90.45 L25.979,90.858 L30.287,86.642 C29.579,89.05 27.927,93.11 26.027,97.222 C25.075,99.278 24.063,101.35 23.075,103.234 C22.363,104.958 22.343,106.11 22.235,106.99 C23.319,106.97 23.623,107.242 23.939,107.338 C24.095,107.39 24.239,107.402 24.451,107.338 C24.659,107.27 24.759,107.222 25.979,106.486 C27.031,106.59 26.691,107.326 25.939,108.134 C25.691,108.37 25.599,108.506 25.595,108.582 L25.455,108.846 C25.363,109.006 25.267,109.122 25.191,109.186 C25.371,109.082 25.243,109.386 28.519,107.726 C31.067,106.482 33.619,105.242 33.619,105.242 C31.835,103.162 39.763,98.578 38.271,96.854 L29.019,105.414 C27.247,103.338 31.359,95.25 38.539,91.654 C40.839,91.558 39.611,96.562 40.203,97.254 C40.643,95.934 45.911,91.918 46.875,92.118 L44.647,95.066 C49.019,93.71 49.175,88.334 55.103,87.878 C56.791,87.102 61.623,88.114 61.103,86.574 C56.955,85.426 51.695,77.502 52.287,74.498 C52.951,74.354 62.171,72.178 64.759,72.434 C68.603,72.994 63.663,79.69 66.943,80.182 C66.675,79.49 67.679,77.862 68.143,77.258 C70.139,76.83 68.583,79.634 72.075,77.234 C71.323,74.518 79.631,73.138 72.651,74.238 C75.843,71.498 76.735,72.53 80.879,69.998 C78.659,69.246 81.655,62.63 84.851,59.886 C84.987,60.606 86.243,60.926 86.839,61.058 C94.299,57.034 98.855,55.834 105.707,51.906 C106.667,52.114 110.367,50.898 109.547,52.726 C110.291,51.742 110.731,50.418 112.811,49.142 C118.071,48.83 108.287,52.178 112.819,52.834 C112.291,51.31 117.183,47.79 119.691,45.198 C117.543,43.614 112.515,48.802 109.999,51.394 C108.295,48.478 111.767,42.394 118.139,36.914 C123.403,32.91 121.691,37.382 122.439,36.394 C133.407,30.746 128.583,26.042 138.663,23.034 C143.255,22.866 140.963,26.65 142.519,27.542 C138.295,30.918 134.727,30.462 131.635,32.346 L136.007,30.998 C134.891,32.47 132.071,34.722 130.079,35.154 C133.991,35.126 148.295,25.066 157.419,21.858 C158.523,20.39 160.675,18.286 159.047,18.226 L156.595,19.99 C153.331,19.87 160.299,15.082 156.595,16.282 C158.119,14.698 159.315,13.106 161.463,11.278 C163.967,9.242 167.143,7.142 170.563,5.734 C170.803,6.102 171.031,6.478 171.247,6.866 L171.767,8.47 C171.743,8.286 171.567,8.014 171.247,7.67 C170.175,7.678 167.219,8.986 165.979,10.39 C167.007,9.238 169.219,8.65 171.247,8.098 C173.871,10.386 176.103,12.338 178.303,11.542 C178.411,11.606 174.319,7.282 174.211,7.218 C176.623,7.902 179.899,8.682 183.167,9.754 C185.591,10.334 187.991,11.19 189.979,12.786 C189.207,9.542 188.835,12.446 187.155,8.202 C187.383,9.354 186.807,9.518 185.851,9.206 C185.371,9.05 184.799,8.778 184.183,8.446 C183.287,7.934 182.311,7.378 181.355,6.83 C177.115,4.366 173.411,2.238 176.395,6.098 C174.835,3.742 173.067,2.142 171.247,0.754 C168.235,1.95 165.359,3.674 160.215,4.646 C160.499,4.95 161.283,4.946 161.187,5.27 C161.143,5.434 160.883,5.674 160.243,6.074 C159.915,6.266 159.495,6.502 158.963,6.81 C158.707,6.942 158.427,7.094 158.111,7.258 C157.911,7.35 157.695,7.454 157.451,7.566 C157.407,7.866 157.167,8.354 157.007,8.65 C156.883,8.69 156.835,8.702 156.727,8.738 L156.979,8.706 C156.879,8.902 156.879,8.93 157.071,8.69 C158.135,8.482 158.951,8.506 159.775,8.55 C159.115,9.466 158.891,9.994 158.099,10.762 C157.403,11.478 156.543,12.202 155.663,12.906 C153.903,14.31 152.067,15.63 151.323,16.614 C148.959,17.538 151.767,15.286 150.151,15.226 L147.927,18.166 C146.739,16.778 140.667,18.914 145.255,15.05 L140.611,17.638 C137.395,18.33 133.467,20.138 131.543,22.118 C129.175,23.038 127.051,27.01 128.239,24.698 L121.571,29.834 L121.283,29.482 C114.043,33.398 108.099,40.526 98.331,42.422 C96.155,44.202 93.955,46.114 89.687,47.986 L88.127,47.094 C85.319,49.342 78.099,51.086 77.583,53.254 C72.171,51.55 62.175,61.094 56.387,63.578 L57.199,65.454 C53.411,67.506 50.123,70.07 45.903,73.45 L47.083,74.838 C43.827,78.418 36.183,79.658 29.963,83.458 C30.051,82.618 31.739,81.85 33.079,81.554 C28.299,81.978 24.687,84.91 21.235,87.914 C19.467,89.438 17.915,90.878 15.951,92.218 C13.183,94.022 10.455,95.462 7.135,96.53 C6.123,97.47 5.147,98.162 4.135,98.726 C4.119,99.99 3.943,101.034 3.707,102.07 C3.703,101.782 3.671,101.506 3.615,101.258 C3.611,101.578 3.603,102.046 3.595,102.53 C3.283,103.778 2.927,105.106 2.639,106.638 C3.075,105.378 3.435,104.242 3.599,103.218 C3.635,105.586 3.859,109.47 4.307,112.722 L2.383,113.686 C2.403,113.87 2.419,114.014 2.439,114.206 C1.727,116.422 3.351,115.986 4.799,114.806 C5.115,115.942 5.495,116.982 5.959,117.79 C2.851,119.59 7.007,123.71 3.691,126.166 C5.307,127.686 4.907,137.51 8.311,138.71 C7.867,138.786 7.655,139.454 7.627,138.234 C7.239,140.75 6.855,143.262 7.811,145.522 L5.363,146.59 L8.655,152.082 C7.163,155.418 6.295,156.802 4.411,153.486 C7.311,161.49 5.503,159.978 8.375,166.782 L6.791,166.45 C6.855,168.882 8.975,172.774 7.667,174.238 C4.655,179.678 7.251,201.158 4.451,215.126 C9.115,212.414 2.363,221.618 5.975,222.17 C4.875,222.982 4.251,224.93 3.291,222.666 C4.375,229.794 1.543,233.378 4.591,238.298 C3.483,239.114 2.975,236.77 2.319,237.498 C2.559,238.07 3.279,239.762 2.619,240.502 C1.963,241.23 1.695,239.462 1.215,238.33 C1.399,245.614 4.799,246.35 7.987,246.878 C6.479,250.57 6.691,252.41 8.783,255.074 C7.739,256.358 6.647,258.502 6.275,253.978 C6.119,256.522 4.743,269.522 7.299,269.782 C6.651,270.582 7.111,273.342 7.407,274.01 C7.303,277.214 7.243,278.958 7.187,280.686 C7.143,282.77 7.143,284.858 7.267,288.578 L7.683,286.31 C8.775,286.89 9.179,287.646 9.263,288.73 C11.135,289.63 12.567,291.518 15.947,293.19 L15.607,293.358 C18.339,295.578 19.355,296.41 20.291,297.002 C21.191,297.574 21.735,297.742 22.267,297.918 C23.335,298.274 24.367,298.654 28.163,302.31 L28.639,300.37 C31.527,297.274 35.267,307.006 41.199,308.61 L39.891,306.59 C43.403,306.986 44.931,315.978 47.491,318.054 C47.927,318.718 46.235,317.994 45.243,317.726 C51.407,324.094 47.455,316.102 53.247,318.774 C53.587,320.53 50.219,321.002 53.795,323.358 C55.091,325.374 66.731,325.746 70.483,330.914 C69.891,329.366 69.307,327.826 72.255,328.622 C76.359,330.558 80.867,338.154 86.051,337.342 C86.403,337.878 86.455,338.222 86.347,338.462 C89.763,339.454 96.779,342.854 99.475,342.35 C98.927,349.686 119.695,350.302 116.575,355.558 L125.943,360.59 L125.391,360.99 C131.075,364.738 133.887,364.674 136.691,364.598 C137.843,365.742 136.563,365.662 136.291,365.874 C144.275,371.906 145.259,372.178 153.991,373.702 L153.751,375.85 C154.695,375.902 156.447,377.286 158.775,379.158 C159.647,379.922 161.955,381.554 164.107,383.046 C166.315,384.57 168.751,386.174 171.247,387.67 C174.631,385.79 178.131,383.578 181.039,381.222 C181.015,381.498 180.923,381.994 180.003,382.846 C180.855,382.186 181.731,381.558 182.631,380.954 C183.407,380.426 183.879,380.106 184.555,379.706 C185.819,378.946 187.171,378.266 188.559,377.634 C191.335,376.37 194.255,375.302 196.911,374.21 C202.219,372.026 206.471,369.746 206.403,365.618 L211.775,360.462 C203.395,364.654 211.415,357.05 207.483,357.938 C210.459,355.73 216.811,355.066 213.079,357.65 L212.287,357.69 C212.731,361.778 223.023,353.034 224.083,355.378 C239.935,346.014 256.515,338.846 271.527,330.366 L268.343,328.826 L273.635,325.962 C275.343,325.762 276.615,326.886 272.839,328.926 C275.623,329.234 278.375,324.126 278.163,323.514 C286.031,320.338 277.027,328.11 279.295,326.882 L282.215,324.942 L281.359,325.042 C283.219,322.586 282.803,321.366 287.343,318.91 C290.463,317.786 289.695,319.638 290.863,319.094 C290.959,319.274 291.383,319.142 292.611,318.182 L299.299,314.606 L295.519,314.122 C297.859,311.458 301.751,310.666 297.415,310.146 C303.963,311.026 322.427,297.378 326.167,296.666 C329.027,293.882 331.783,291.83 335.079,289.786 C334.991,286.962 335.043,284.062 335.131,280.846 C334.647,282.782 332.051,282.874 332.371,277.426 C337.727,279.238 334.695,268.342 338.551,264.33 C335.995,267.914 337.919,250.226 334.291,255.85 C334.723,251.71 336.295,255.598 337.555,252.458 C335.479,242.606 338.907,230.742 338.207,218.566 C337.503,218.374 336.427,220.414 335.379,217.802 L338.899,211.374 C338.551,208.966 334.835,209.158 337.279,204.762 C336.687,205.386 335.795,206.31 335.567,204.698 C338.995,180.838 332.759,155.946 339.203,131.718 C337.839,134.998 337.703,132.81 337.651,130.306 C337.327,131.934 335.915,130.266 334.963,130.586 L337.611,120.446 C334.963,118.594 337.431,109.57 334.899,108.51 L335.355,111.722 C332.371,107.45 328.719,117.698 324.887,117.074 C328.283,121.858 319.859,129.686 324.719,137.534 C323.939,139.266 323.483,136.058 322.595,136.986 C324.239,138.974 324.579,141.374 323.843,145.826 L323.439,145.326 C323.839,157.83 322.219,163.194 321.139,177.246 L323.035,176.206 C322.783,179.222 322.187,179.858 321.715,181.274 C324.587,184.738 321.875,172.794 325.043,175.95 C321.187,179.954 324.983,197.242 320.603,199.95 C320.579,204.594 322.799,198.586 322.771,203.23 L321.587,204.462 L323.115,205.634 C322.863,208.682 321.379,210.218 320.375,210.33 C320.495,209.594 320.095,208.23 320.007,207.438 C318.611,211.386 320.483,218.574 320.031,219.93 L320.759,215.466 C321.871,228.142 320.311,243.622 322.723,255.866 L323.619,254.938 C325.271,264.29 322.635,262.43 323.399,272.698 L323.187,272.322 C323.635,273.35 323.967,274.55 324.179,275.846 C324.283,276.494 324.359,277.162 324.399,277.846 C324.443,278.318 324.451,278.75 324.427,279.206 C323.903,278.322 323.395,279.082 322.871,279.57 C322.347,280.094 321.811,280.33 321.231,279.43 C321.719,280.762 322.043,281.762 322.323,282.422 C322.067,283.002 322.159,283.298 322.299,283.81 C322.399,284.342 322.635,285.034 321.879,286.866 C321.843,286.886 320.019,286.226 320.055,286.206 C319.871,287.086 319.403,287.95 318.795,288.754 C318.147,289.582 317.135,290.482 315.007,291.93 C318.015,288.726 311.043,291.61 314.283,287.794 C303.343,290.366 302.083,298.622 295.435,296.982 C293.207,303.006 304.639,294.298 302.683,296.446 C305.359,296.446 300.683,301.142 297.551,302.474 C294.531,304.114 289.863,300.846 282.415,305.238 C283.171,304.826 283.063,304.526 283.819,304.114 C280.491,304.826 279.035,308.51 274.747,309.022 C274.059,312.286 270.211,311.478 271.239,314.538 L277.743,309.938 C274.263,312.902 272.463,318.222 265.147,320.37 C265.331,319.526 266.819,317.698 267.895,316.534 C265.551,316.81 264.591,319.158 262.167,319.45 C261.139,316.382 270.171,314.03 273.135,309.53 C270.455,309.534 266.391,316.074 266.771,311.894 C265.939,317.41 259.119,315.674 255.711,321.49 L255.099,319.65 C254.443,320.374 253.231,322.11 251.727,322.922 L253.171,319.246 C250.115,323.434 244.339,322.226 240.971,325.49 C249.187,320.678 243.967,326.402 248.147,325.586 C239.247,333.658 239.815,324.666 228.883,332.026 C230.291,330.906 235.239,329.674 233.267,331.826 C230.907,332.738 227.679,333.762 225.851,333.666 C218.503,338.362 227.987,334.69 225.359,337.554 C221.631,337.034 222.123,340.506 219.187,343.058 L218.199,341.398 C208.983,345.29 217.931,346.198 209.443,349.37 L211.375,345.166 L207.687,348.094 L207.419,345.71 C203.847,349.658 202.267,350.082 197.659,352.03 C199.339,352.63 198.847,355.39 195.071,357.638 C191.899,358.146 195.607,355.21 190.347,358.566 C190.963,356.818 191.539,354.734 194.779,354.918 C194.703,354.234 195.375,353.174 195.311,352.494 C191.855,352.966 188.131,356.29 186.187,357.434 C186.975,357.062 187.927,356.634 188.527,356.606 L182.039,363.438 C180.443,363.522 181.131,362.454 181.811,361.402 C180.331,362.498 179.679,363.898 177.431,365.386 C177.251,363.678 176.299,362.362 179.227,359.818 C179.227,359.818 177.579,361.27 175.935,362.722 C175.111,363.45 174.287,364.174 173.671,364.722 C173.511,365.002 173.407,365.186 173.407,365.186 C172.851,364.722 171.767,363.97 171.879,363.238 C171.631,363.094 171.491,363.298 171.247,363.746 C170.939,363.982 170.403,364.422 169.671,364.514 C169.491,364.538 169.303,364.546 169.119,364.53 L168.979,364.514 L168.575,364.334 L167.779,363.95 C166.727,363.414 165.735,362.786 164.847,362.014 C164.411,362.114 163.691,362.038 162.415,361.558 C157.443,358.278 153.843,353.978 146.663,352.314 L144.607,347.882 C139.507,345.674 147.523,353.654 139.035,349.978 C132.951,347.502 138.131,346.686 136.547,344.866 C133.035,344.478 126.719,344.162 122.687,339.19 C124.667,339.722 125.799,340.858 127.507,341.602" fill="#3F3B3C"/>
      <path d="M19.349,253.884 C19.025,254.256 18.665,254.36 18.301,254.448 C18.625,254.968 19.001,254.976 19.349,253.884" fill="#3F3B3C"/>
      <path d="M164.678,361.894 L164.846,362.018 C165.002,361.974 165.114,361.902 165.202,361.818 z" fill="#3F3B3C"/>
      <path d="M69.544,79.832 C68.316,80.22 67.532,80.264 66.944,80.184 C67.124,80.624 67.816,80.684 69.544,79.832" fill="#3F3B3C"/>
      <path d="M178.952,2.888 L172.944,-0 C175.8,1.536 176.748,2.572 178.06,3.684 C178.064,3.164 177.076,1.84 178.952,2.888" fill="#3F3B3C"/>
      <path d="M204.954,31.685 C205.566,31.765 206.018,32.269 206.626,32.345 L206.938,31.489 C204.798,30.321 202.962,30.097 204.954,31.685" fill="#3F3B3C"/>
      <path d="M181.364,11.683 C180.964,13.327 183.264,14.019 185.82,15.147 C185.672,15.067 185.532,15.003 185.4,14.903 C187.204,13.323 184.4,12.571 181.364,11.683" fill="#3F3B3C"/>
      <path d="M186.397,15.416 C187.169,15.772 187.937,16.168 188.613,16.648 C189.345,16.02 187.817,15.968 186.397,15.416" fill="#3F3B3C"/>
      <path d="M149.507,13.535 C150.843,13.247 149.175,11.331 150.143,11.535 C150.367,9.019 143.887,18.035 149.507,13.535" fill="#3F3B3C"/>
      <path d="M180.684,17.466 L180.836,15.238 L178.684,15.862 z" fill="#3F3B3C"/>
      <path d="M161.191,16.126 L165.395,14.342 C165.211,14.058 165.659,13.57 166.271,13.046 C164.955,13.73 163.571,14.45 162.531,14.994 C161.591,15.494 160.999,15.894 161.191,16.126" fill="#3F3B3C"/>
      <path d="M166.272,13.044 C167.628,12.304 168.88,11.532 169.612,10.732 C168.876,11.184 167.28,12.18 166.272,13.044" fill="#3F3B3C"/>
      <path d="M175.33,15.07 L174.334,14.014 L171.69,12.318 z" fill="#3F3B3C"/>
      <path d="M120.215,39.335 L116.363,42.223 C116.283,43.063 117.623,42.775 119.027,41.647 C119.779,40.659 121.183,39.543 120.215,39.335" fill="#3F3B3C"/>
      <path d="M135.481,36.859 C134.153,37.147 133.853,36.803 132.893,36.595 L134.009,38.819 z" fill="#3F3B3C"/>
      <path d="M123.696,44.332 C123.628,45.168 118.676,49.516 123.848,46.348 C123.924,45.516 127.784,42.624 123.696,44.332" fill="#3F3B3C"/>
      <path d="M59.736,77.628 L60.772,76.992 L58.584,73.552 z" fill="#3F3B3C"/>
      <path d="M23.406,113.295 C23.526,112.419 23.582,112.375 23.582,112.259 C23.582,112.135 23.53,112.039 23.446,111.959 C23.274,111.795 22.966,111.695 22.666,111.599 C22.07,111.423 21.502,111.155 22.11,110.339 C21.146,109.371 21.118,111.831 20.286,111.083 C21.302,112.399 20.726,115.047 23.406,113.295" fill="#3F3B3C"/>
      <path d="M20.285,111.082 C20.125,110.778 19.929,110.434 19.665,110.022 C19.921,110.63 20.113,110.902 20.285,111.082" fill="#3F3B3C"/>
      <path d="M339.707,113.655 L340.555,110.011 L339.187,112.363 z" fill="#3F3B3C"/>
      <path d="M336.686,106.661 L339.282,105.801 L336.934,103.613 C337.046,104.437 337.274,106.037 336.686,106.661" fill="#3F3B3C"/>
      <path d="M61.78,299.049 L61.228,299.453 C61.376,300.317 62.092,300.789 63.516,301.733 z" fill="#3F3B3C"/>
      <path d="M103.598,325.439 L102.886,324.967 L103.09,327.795 z" fill="#3F3B3C"/>
      <path d="M141.007,343.582 C139.591,342.65 137.607,342.11 136.183,341.174 C139.591,342.65 139.939,346.346 141.007,343.582" fill="#3F3B3C"/>
    </g>
    <text transform="matrix(1, 0, 0, 1, 170.278, 193.835)">
      <tspan x="-88.164" y="15" font-family="Phosphate-Inline" font-size="48" fill="#000000">kic</tspan>
      <tspan x="-14.004" y="15" font-family="Phosphate-Inline" font-size="48" kerning="-2.28" fill="#000000">k</tspan>
      <tspan x="9.636" y="15" font-family="Phosphate-Inline" font-size="48" fill="#000000">off</tspan>
      <tspan x="88.164" y="15" font-family="Phosphate-Inline" font-size="48" kerning="0" fill="#000000"> </tspan>
    </text>
    <text transform="matrix(1, 0, 0, 1, 171.071, 250.608)">
      <tspan x="-71.688" y="15" font-family="Phosphate-Inline" font-size="48" fill="#000000">poke</tspan>
      <tspan x="43.704" y="15" font-family="Phosphate-Inline" font-size="48" kerning="0" fill="#000000">r</tspan>
    </text>
    <g id="logo_RGB">
      <path d="M246.713,141.265 C245.558,142.598 243.888,143.392 241.973,143.41 C241.95,143.41 241.93,143.414 241.908,143.414 C238.513,143.414 236.391,141.717 235.634,139.122 L253.838,139.122 L253.838,136.765 C253.838,129.977 248.885,124.554 241.67,124.554 C234.881,124.554 229.412,130.023 229.412,136.813 C229.412,143.603 234.504,149.073 241.86,149.073 C241.898,149.073 241.935,149.069 241.973,149.069 C245.776,149.04 248.772,147.636 250.895,145.447 L246.713,141.265 z M241.719,130.212 C244.454,130.212 246.48,131.485 247.33,133.936 L235.919,133.936 C236.909,131.721 238.983,130.212 241.719,130.212" fill="#329545"/>
      <g clip-path="url(#Clip_1)">
        <path d="M223.969,141.243 C222.888,142.293 221.424,142.943 219.817,142.943 C219.771,142.943 219.726,142.936 219.681,142.935 C216.352,142.863 213.782,140.163 213.782,136.813 C213.782,133.463 216.352,130.764 219.681,130.691 C219.726,130.69 219.771,130.684 219.817,130.684 C221.551,130.684 223.116,131.436 224.215,132.635 L228.637,128.211 C226.464,125.954 223.399,124.554 219.769,124.554 C219.739,124.554 219.711,124.558 219.681,124.558 C212.933,124.606 207.557,130.053 207.557,136.813 C207.557,143.572 212.933,149.018 219.681,149.067 C219.711,149.068 219.739,149.072 219.769,149.072 C223.262,149.072 226.229,147.771 228.388,145.662 L223.969,141.243" fill="#329545"/>
        <path d="M97.068,113.669 C92.308,113.669 88.393,117.845 88.275,123.371 L88.275,148.601 L94.748,148.601 L94.748,130.825 L103.136,130.825 L103.136,125.009 L94.748,125.009 L94.748,123.445 C94.748,121.254 96.141,119.914 97.968,119.914 C99.149,119.914 100.053,120.591 100.522,121.304 L104.459,117.366 C102.42,114.601 99.739,113.669 97.068,113.669" fill="#329545"/>
      </g>
      <path d="M122.129,125.009 L122.129,138.157 C122.129,140.58 120.191,142.545 117.767,142.545 C115.344,142.545 113.406,140.58 113.406,138.157 L113.406,125.009 L106.851,125.009 L106.851,138.156 C106.851,144.185 111.737,149.073 117.767,149.073 C123.796,149.073 128.684,144.185 128.684,138.156 L128.684,125.009 L122.129,125.009" fill="#329545"/>
      <path d="M167.537,125.009 L167.537,138.157 C167.537,140.58 165.598,142.545 163.175,142.545 C160.752,142.545 158.814,140.58 158.814,138.157 L158.814,125.009 L152.257,125.009 L152.257,138.156 C152.257,144.185 157.145,149.073 163.175,149.073 C169.205,149.073 174.092,144.185 174.092,138.156 L174.092,125.009 L167.537,125.009" fill="#329545"/>
      <path d="M139.268,125.023 L139.268,125.008 L139.173,125.008 L139.173,116.237 L132.713,116.237 L132.713,138.154 C132.713,142.944 135.814,146.968 139.844,148.154 C141.343,148.594 143.605,148.598 143.605,148.598 L148.231,148.598 L148.231,142.563 L143.628,142.563 C141.206,142.563 139.268,140.579 139.268,138.154 L139.268,130.824 L148.231,130.824 L148.231,125.023 L139.268,125.023" fill="#329545"/>
      <path d="M184.581,125.025 L178.12,125.025 L178.12,148.599 L184.581,148.599 L184.581,130.837 L193.636,130.837 L193.636,125.025 L184.581,125.025" fill="#329545"/>
      <path d="M197.698,125.024 L204.158,125.024 L204.158,148.6 L197.698,148.6 z" fill="#329545"/>
      <path d="M205.049,117.782 C205.049,120.058 203.204,121.903 200.927,121.903 C198.65,121.903 196.807,120.058 196.807,117.782 C196.807,115.506 198.65,113.661 200.927,113.661 C203.204,113.661 205.049,115.506 205.049,117.782" fill="#329545"/>
    </g>
  </g>
</svg>
