<?xml version="1.0" encoding="utf-8"?>
<!-- Generator: Adobe Illustrator 23.0.4, SVG Export Plug-In . SVG Version: 6.00 Build 0)  -->
<svg version="1.1" id="Layer_1" xmlns="http://www.w3.org/2000/svg" xmlns:xlink="http://www.w3.org/1999/xlink" x="0px" y="0px"
	 viewBox="0 0 800 168" style="enable-background:new 0 0 800 168;" xml:space="preserve">
<style type="text/css">
	.st0{fill:#00AD82;}
</style>
<g>
	<path class="st0" d="M771.43,96.18c0-11.51-5.32-23.25-23.25-23.25c-15.5,0-22.81,11.51-24.14,23.25H771.43z M798.89,138.48
		c-9.96,17.49-25.24,28.57-49.82,28.57c-36.32,0-55.14-23.03-55.14-59.35c0-36.09,21.26-58.02,53.59-58.02
		c31,0,52.48,16.61,52.48,52.7v13.29h-76.4c0.67,18.38,11.29,27.68,24.8,27.68c12.4,0,21.92-6.2,27.01-16.83L798.89,138.48z
		 M626.62,49.68c27.02,0,41.85,11.52,49.16,34.99l-27.02,6.64C645,80.02,638.13,74.26,627.5,74.26c-16.61,0-25.02,11.29-25.02,34.1
		s8.19,34.1,25.02,34.1c10.63,0,17.49-5.76,21.26-17.05l27.02,6.64c-7.31,23.47-22.14,34.99-49.16,34.99
		c-34.1,0-54.7-22.14-54.7-58.68C571.93,71.82,592.52,49.68,626.62,49.68 M544.48,164.83h-29.23V51.89h29.23V164.83z M530.08,3.17
		c9.96,0,17.94,7.97,17.94,17.94c0,9.96-7.97,17.94-17.94,17.94c-9.96,0-17.94-7.97-17.94-17.94
		C512.15,11.15,520.12,3.17,530.08,3.17 M494.88,76.47h-39.2v88.36h-29.23V51.89h68.43V76.47z M366.24,118.55V51.9h29.23v66.43
		c0,32.77-16.61,48.72-49.16,48.72s-49.38-15.94-49.38-48.72V51.9h29.23v66.65c0,17.27,7.09,23.92,20.15,23.92
		S366.24,135.82,366.24,118.55 M208.58,9.82h29.23V51.9h36.09v24.58h-36.09v50.05c0,12.18,6.42,15.95,14.84,15.95
		c6.64,0,10.41-2.44,15.06-6.64L279,156.63c-7.53,5.76-17.94,10.41-31.44,10.41c-25.24,0-38.97-14.84-38.97-36.98V9.82H208.58z
		 M150.57,118.55V51.9h29.23v66.43c0,32.77-16.61,48.72-49.16,48.72s-49.38-15.94-49.38-48.72V51.9h29.23v66.65
		c0,17.27,7.09,23.92,20.15,23.92C143.71,142.46,150.57,135.82,150.57,118.55 M0,38.16c0-22.14,13.73-37.2,38.97-37.2
		c11.29,0,21.48,3.32,29.67,9.08L57.12,30.41c-3.76-3.1-7.75-4.87-13.73-4.87c-9.52,0-14.17,5.98-14.17,15.94v10.41H63.1v24.58
		H29.22v88.36H0V38.16z"/>
</g>
</svg>
