<?xml version="1.0" standalone="no"?>
<!DOCTYPE svg PUBLIC "-//W3C//DTD SVG 1.1//EN" "http://www.w3.org/Graphics/SVG/1.1/DTD/svg11.dtd" >
<svg xmlns="http://www.w3.org/2000/svg" xmlns:xlink="http://www.w3.org/1999/xlink" version="1.1">
<metadata>
Created by FontForge 20170910 at Wed Jan 25 12:35:01 2017
 By Jimmy Wärting
Copyright (c) 2016 Schick Toikka. Unauthorized copying or modification of any of its data is illegal. FOR EXCLUSIVE USE BY FUTURICE COMPANY AND ITS AFFILIATES ONLY.
</metadata>
<defs>
<font id="Futurice-Regular" horiz-adv-x="610" >
  <font-face 
    font-family="Futurice Regular"
    font-weight="400"
    font-stretch="normal"
    units-per-em="1000"
    panose-1="0 0 5 0 0 0 0 0 0 0"
    ascent="750"
    descent="-250"
    x-height="506"
    cap-height="666"
    bbox="-100 -311 945 936"
    underline-thickness="50"
    underline-position="-100"
    stemh="70"
    stemv="80"
    unicode-range="U+0020-FB02"
  />
<missing-glyph 
d="M532 -142h-454v872h454v-872zM305 263l-185 -379h370zM290 294l-185 380v-758zM320 294l185 -378v758zM490 704h-370l185 -379z" />
    <glyph glyph-name="fi" unicode="fi" horiz-adv-x="658" 
d="M41 506h80v36c0 138 56 198 162 198c43 0 82 -10 117 -33l-33 -62c-23 17 -48 25 -75 25c-64 0 -91 -27 -91 -128v-36h173v-68h-173v-438h-80v438h-80v68zM570 0h-80v506h80v-506zM470 679c0 34 26 61 60 61s60 -27 60 -61s-26 -61 -60 -61s-60 27 -60 61z" />
    <glyph glyph-name="fl" unicode="fl" horiz-adv-x="660" 
d="M41 506h80v36c0 138 56 198 162 198c43 0 82 -10 117 -33l-33 -62c-23 17 -48 25 -75 25c-64 0 -91 -27 -91 -128v-36h173v-68h-173v-438h-80v438h-80v68zM570 0h-80v730h80v-730z" />
    <glyph glyph-name=".notdef" 
d="M532 -142h-454v872h454v-872zM305 263l-185 -379h370zM290 294l-185 380v-758zM320 294l185 -378v758zM490 704h-370l185 -379z" />
    <glyph glyph-name="space" unicode=" " horiz-adv-x="250" 
 />
    <glyph glyph-name="exclam" unicode="!" horiz-adv-x="336" 
d="M124 396v270h87v-270l-17 -164h-49zM100 58c0 38 30 68 68 68s68 -30 68 -68s-30 -68 -68 -68s-68 30 -68 68z" />
    <glyph glyph-name="question" unicode="?" horiz-adv-x="520" 
d="M113 477l-78 16c13 84 92 183 222 183c120 0 210 -66 210 -169c0 -69 -56 -121 -121 -163c-57 -31 -62 -68 -67 -112h-50c-11 55 -9 117 56 158c70 44 97 76 97 115c0 66 -55 99 -124 99c-81 0 -131 -64 -145 -127zM184 58c0 38 30 68 68 68s68 -30 68 -68
s-30 -68 -68 -68s-68 30 -68 68z" />
    <glyph glyph-name="questiondown" unicode="&#xbf;" horiz-adv-x="520" 
d="M407 29l78 -16c-13 -84 -92 -183 -222 -183c-120 0 -210 66 -210 169c0 69 56 121 121 163c57 31 62 68 67 112h50c11 -55 9 -117 -56 -158c-70 -44 -97 -76 -97 -115c0 -66 55 -99 124 -99c81 0 131 64 145 127zM336 448c0 -38 -30 -68 -68 -68s-68 30 -68 68
s30 68 68 68s68 -30 68 -68z" />
    <glyph glyph-name="exclamdown" unicode="&#xa1;" horiz-adv-x="336" 
d="M212 110v-270h-87v270l17 164h49zM236 448c0 -38 -30 -68 -68 -68s-68 30 -68 68s30 68 68 68s68 -30 68 -68z" />
    <glyph glyph-name="quotesingle" unicode="'" horiz-adv-x="215" 
d="M60 730h95l-18 -229h-59z" />
    <glyph glyph-name="quotedbl" unicode="&#x22;" horiz-adv-x="391" 
d="M60 730h95l-18 -229h-59zM236 730h95l-18 -229h-59z" />
    <glyph glyph-name="plus" unicode="+" 
d="M106 257v71h162v153h71v-153h164v-71h-164v-153h-71v153h-162z" />
    <glyph glyph-name="ellipsis" unicode="&#x2026;" horiz-adv-x="800" 
d="M65 58c0 38 30 68 68 68s68 -30 68 -68s-30 -68 -68 -68s-68 30 -68 68zM332 58c0 38 30 68 68 68s68 -30 68 -68s-30 -68 -68 -68s-68 30 -68 68zM599 58c0 38 30 68 68 68s68 -30 68 -68s-30 -68 -68 -68s-68 30 -68 68z" />
    <glyph glyph-name="period" unicode="." horiz-adv-x="266" 
d="M65 58c0 38 30 68 68 68s68 -30 68 -68s-30 -68 -68 -68s-68 30 -68 68z" />
    <glyph glyph-name="comma" unicode="," horiz-adv-x="266" 
d="M65 58c0 38 30 68 68 68c40 0 72 -30 72 -84c0 -55 -26 -107 -85 -201l-46 27l59 102v20c-38 0 -68 30 -68 68z" />
    <glyph glyph-name="colon" unicode=":" horiz-adv-x="286" 
d="M75 448c0 38 30 68 68 68s68 -30 68 -68s-30 -68 -68 -68s-68 30 -68 68zM75 58c0 38 30 68 68 68s68 -30 68 -68s-30 -68 -68 -68s-68 30 -68 68z" />
    <glyph glyph-name="semicolon" unicode=";" horiz-adv-x="286" 
d="M75 58c0 38 30 68 68 68c40 0 72 -30 72 -84c0 -55 -26 -107 -85 -201l-46 27l59 102v20c-38 0 -68 30 -68 68zM78 447c0 38 30 68 68 68s68 -30 68 -68s-30 -68 -68 -68s-68 30 -68 68z" />
    <glyph glyph-name="hyphen" unicode="-" horiz-adv-x="343" 
d="M55 245v89h233v-89h-233z" />
    <glyph glyph-name="endash" unicode="&#x2013;" horiz-adv-x="565" 
d="M55 252v72h455v-72h-455z" />
    <glyph glyph-name="underscore" unicode="_" horiz-adv-x="565" 
d="M55 -72v72h455v-72h-455z" />
    <glyph glyph-name="emdash" unicode="&#x2014;" horiz-adv-x="735" 
d="M55 252v72h625v-72h-625z" />
    <glyph glyph-name="bar" unicode="|" horiz-adv-x="272" 
d="M100 -132v882h72v-882h-72z" />
    <glyph glyph-name="brokenbar" unicode="&#xa6;" horiz-adv-x="272" 
d="M100 -132v340h72v-340h-72zM100 410v340h72v-340h-72z" />
    <glyph glyph-name="backslash" unicode="\" horiz-adv-x="555" 
d="M119 750l386 -852v-30h-70l-385 852v30h69z" />
    <glyph glyph-name="slash" unicode="/" horiz-adv-x="555" 
d="M50 -102l386 852h69v-30l-385 -852h-70v30z" />
    <glyph glyph-name="numbersign" unicode="#" 
d="M76 413v62h94v191h66v-191h138v191h66v-191h94v-62h-94v-160h92v-62h-92v-191h-66v191h-138v-191h-66v191h-94v62h94v160h-94zM236 413v-160h138v160h-138z" />
    <glyph glyph-name="perthousand" unicode="&#x2030;" horiz-adv-x="675" 
d="M289 541c0 -80 -35 -135 -111 -135s-111 55 -111 135s35 135 111 135s111 -55 111 -135zM127 541c0 -39 11 -77 51 -77c39 0 51 38 51 77c0 38 -12 77 -51 77c-40 0 -51 -39 -51 -77zM76 221h-21v52l381 215h21v-52zM366 127c0 -80 -35 -135 -111 -135s-111 55 -111 135
s35 135 111 135s111 -55 111 -135zM204 127c0 -39 11 -77 51 -77c39 0 51 38 51 77c0 38 -12 77 -51 77c-40 0 -51 -39 -51 -77zM620 127c0 -80 -35 -135 -111 -135s-111 55 -111 135s35 135 111 135s111 -55 111 -135zM458 127c0 -39 11 -77 51 -77c39 0 51 38 51 77
c0 38 -12 77 -51 77c-40 0 -51 -39 -51 -77z" />
    <glyph glyph-name="percent" unicode="%" horiz-adv-x="730" 
d="M212 344c-93 0 -142 69 -142 164s49 165 142 165c92 0 141 -70 141 -165s-49 -164 -141 -164zM212 403c55 0 72 50 72 105c0 56 -17 105 -72 105c-56 0 -73 -49 -73 -105c0 -55 17 -105 73 -105zM518 -8c-92 0 -141 70 -141 164c0 96 49 165 141 165
c93 0 142 -69 142 -165c0 -94 -49 -164 -142 -164zM518 52c56 0 73 49 73 104c0 56 -17 106 -73 106c-55 0 -72 -50 -72 -106c0 -55 17 -104 72 -104zM535 666h56v-20l-396 -646h-56v20z" />
    <glyph glyph-name="ampersand" unicode="&#x26;" 
d="M290 74h117v236h-123c-97 0 -149 -41 -149 -122c0 -82 65 -114 155 -114zM80 496c0 108 91 180 227 180c111 0 200 -63 219 -153l-80 -22c-16 62 -71 103 -144 103c-82 0 -137 -48 -137 -110c0 -68 36 -112 113 -112h305v-72h-96v-310h-205c-156 0 -232 63 -232 184
c0 71 49 142 123 152v20c-39 8 -93 61 -93 140z" />
    <glyph glyph-name="at" unicode="@" 
d="M377 142c60 0 90 53 93 139v15c0 95 -29 154 -93 154c-68 0 -98 -59 -98 -154s30 -154 98 -154zM471 77v56h-20c-16 -30 -53 -60 -99 -60c-94 0 -151 84 -151 223s67 223 158 223c28 0 73 -13 86 -52h20c-6 128 -42 202 -143 202c-109 0 -192 -99 -192 -383
c0 -259 63 -367 204 -367c53 0 87 14 107 25l29 -68c-27 -15 -73 -30 -133 -30c-187 0 -282 137 -282 440c0 324 111 454 268 454c154 0 222 -104 222 -326v-337h-74z" />
    <glyph glyph-name="zero" unicode="0" horiz-adv-x="620" 
d="M472 333c0 145 -39 272 -164 272c-121 0 -160 -127 -160 -272s39 -272 160 -272c125 0 164 127 164 272zM60 333c0 224 92 343 250 343s250 -119 250 -343s-92 -343 -250 -343s-250 119 -250 343z" />
    <glyph glyph-name="one" unicode="1" horiz-adv-x="427" 
d="M216 551h-20l-118 -87l-43 59l185 143h77v-666h-81v551z" />
    <glyph glyph-name="two" unicode="2" horiz-adv-x="539" 
d="M389 500c0 63 -50 105 -118 105c-67 0 -116 -31 -142 -116l-79 22c27 100 103 165 218 165c116 0 205 -69 205 -177c0 -82 -55 -149 -129 -226l-174 -182v-20h319v-71h-421v88l216 230c76 81 105 125 105 182z" />
    <glyph glyph-name="three" unicode="3" horiz-adv-x="558" 
d="M44 162l80 23c16 -90 83 -124 146 -124c87 0 138 57 138 123c0 87 -43 124 -138 124h-22v71h20c94 0 120 53 120 121c0 63 -45 105 -116 105c-67 0 -118 -34 -143 -116l-79 22c26 101 104 165 219 165c117 0 205 -71 205 -175c0 -85 -51 -133 -95 -143v-20
c48 -2 115 -60 115 -152c0 -107 -82 -196 -223 -196c-123 0 -207 59 -227 172z" />
    <glyph glyph-name="four" unicode="4" horiz-adv-x="599" 
d="M133 229v-20h234v351h-20zM45 220l290 446h108v-457h127v-64h-127v-145h-76v145h-322v75z" />
    <glyph glyph-name="five" unicode="5" horiz-adv-x="573" 
d="M288 61c87 0 140 64 140 155s-61 147 -140 147c-38 0 -80 -22 -102 -62h-82l29 365h348v-71h-278l-22 -210h19c30 32 75 47 121 47c114 0 193 -91 193 -216c0 -123 -75 -226 -229 -226c-124 0 -212 64 -230 172l80 23c13 -78 66 -124 153 -124z" />
    <glyph glyph-name="six" unicode="6" horiz-adv-x="570" 
d="M303 364c-68 0 -143 -49 -143 -152s75 -152 143 -152c61 0 126 49 126 152s-65 152 -126 152zM513 562l-73 -39c-19 44 -58 82 -132 82c-93 0 -158 -94 -166 -255h19c29 47 86 84 161 84c117 0 193 -86 193 -223c0 -135 -92 -221 -205 -221c-156 0 -250 109 -250 343
c0 211 108 342 248 342c106 0 162 -39 205 -113z" />
    <glyph glyph-name="seven" unicode="7" horiz-adv-x="549" 
d="M54 511v155h465v-87c-142 -88 -222 -253 -222 -503v-76h-82v76c0 249 75 401 204 500v20h-292v-85h-73z" />
    <glyph glyph-name="eight" unicode="8" horiz-adv-x="580" 
d="M290 -10c-137 0 -230 73 -230 192c0 84 63 144 109 152v21c-43 14 -85 67 -85 143c0 112 93 178 206 178s206 -66 206 -178c0 -76 -42 -129 -85 -143v-21c46 -8 109 -68 109 -152c0 -119 -93 -192 -230 -192zM434 181c0 73 -56 122 -143 122c-88 0 -145 -48 -145 -122
s57 -125 143 -125c88 0 145 51 145 125zM290 606c-73 0 -120 -46 -120 -117s47 -120 120 -120s120 49 120 120s-47 117 -120 117z" />
    <glyph glyph-name="nine" unicode="9" horiz-adv-x="570" 
d="M267 302c68 0 143 49 143 152s-75 152 -143 152c-61 0 -126 -49 -126 -152s65 -152 126 -152zM57 104l73 39c19 -44 58 -82 132 -82c93 0 158 94 166 255h-19c-29 -47 -86 -84 -161 -84c-117 0 -193 86 -193 223c0 135 92 221 205 221c156 0 250 -109 250 -343
c0 -211 -108 -342 -248 -342c-106 0 -162 39 -205 113z" />
    <glyph glyph-name="A" unicode="A" horiz-adv-x="656" 
d="M541 0l-60 162h-312l-59 -162h-70v25l237 641h98l241 -641v-25h-75zM314 556l-118 -322h258l-120 322h-20z" />
    <glyph glyph-name="B" unicode="B" horiz-adv-x="645" 
d="M177 73h193c82 0 124 46 124 111c0 69 -49 117 -152 117h-165v-228zM95 666h276c102 0 190 -54 190 -172c0 -82 -63 -140 -108 -144v-20c62 -4 127 -58 127 -148c0 -100 -56 -182 -194 -182h-291v666zM356 593h-178v-221h172c81 0 125 49 125 118c0 65 -39 103 -119 103z
" />
    <glyph glyph-name="C" unicode="C" horiz-adv-x="641" 
d="M516 192l80 -19c-25 -130 -127 -183 -249 -183c-182 0 -292 119 -292 343s110 343 292 343c124 0 223 -53 249 -183l-80 -19c-18 85 -67 129 -171 129c-138 0 -203 -94 -203 -270c0 -174 57 -270 203 -270c102 0 153 43 171 129z" />
    <glyph glyph-name="D" unicode="D" horiz-adv-x="689" 
d="M548 333c0 160 -51 260 -226 260h-144v-520h144c175 0 226 100 226 260zM95 0v666h235c197 0 304 -108 304 -333s-107 -333 -304 -333h-235z" />
    <glyph glyph-name="E" unicode="E" horiz-adv-x="599" 
d="M95 0v666h426v-73h-343v-214h298v-72h-298v-234h351v-73h-434z" />
    <glyph glyph-name="F" unicode="F" horiz-adv-x="540" 
d="M95 0v666h415v-73h-332v-226h288v-72h-288v-295h-83z" />
    <glyph glyph-name="G" unicode="G" horiz-adv-x="689" 
d="M336 283v71h272v-354h-83v98h-20c-23 -61 -69 -107 -179 -107c-166 0 -271 127 -271 342c0 224 111 343 294 343c126 0 237 -48 265 -173l-80 -20c-21 89 -100 120 -188 120c-140 0 -204 -95 -204 -270c0 -168 53 -272 203 -272c82 0 180 38 180 182v40h-189z" />
    <glyph glyph-name="H" unicode="H" horiz-adv-x="690" 
d="M95 0v666h83v-290h334v290h83v-666h-83v302h-334v-302h-83z" />
    <glyph glyph-name="I" unicode="I" horiz-adv-x="273" 
d="M95 0v666h83v-666h-83z" />
    <glyph glyph-name="J" unicode="J" horiz-adv-x="531" 
d="M25 146l75 24c16 -62 60 -109 132 -109c85 0 130 48 130 152v453h83v-454c0 -145 -79 -222 -209 -222c-116 0 -186 54 -211 156z" />
    <glyph glyph-name="K" unicode="K" horiz-adv-x="626" 
d="M596 20v-20h-88l-238 313l-92 -100v-213h-83v666h83v-321h20l294 321h90v-20l-257 -274z" />
    <glyph glyph-name="L" unicode="L" horiz-adv-x="554" 
d="M95 0v666h83v-593h331v-73h-414z" />
    <glyph glyph-name="M" unicode="M" horiz-adv-x="794" 
d="M389 317h15l187 349h108v-666h-80v539h-15l-183 -345h-48l-182 345h-15v-539h-81v666h114z" />
    <glyph glyph-name="N" unicode="N" horiz-adv-x="712" 
d="M523 128h14v538h80v-666h-101l-327 538h-14v-538h-80v666h101z" />
    <glyph glyph-name="O" unicode="O" horiz-adv-x="700" 
d="M557 333c0 145 -48 270 -209 270c-157 0 -205 -125 -205 -270s48 -270 205 -270c161 0 209 125 209 270zM55 333c0 224 110 343 295 343s295 -119 295 -343s-110 -343 -295 -343s-295 119 -295 343z" />
    <glyph glyph-name="P" unicode="P" horiz-adv-x="589" 
d="M549 454c0 -130 -77 -212 -224 -212h-147v-242h-83v666h230c147 0 224 -82 224 -212zM462 454c0 81 -29 139 -136 139h-148v-278h148c107 0 136 57 136 139z" />
    <glyph glyph-name="Q" unicode="Q" horiz-adv-x="700" 
d="M55 333c0 224 110 343 295 343s295 -119 295 -343c0 -133 -39 -229 -109 -285l51 -65v-20h-72l-39 50c-37 -15 -79 -23 -126 -23c-185 0 -295 119 -295 343zM557 333c0 145 -48 270 -209 270c-157 0 -205 -125 -205 -270s48 -270 205 -270c30 0 56 4 78 12l-85 109v20h75
l71 -92c52 49 70 131 70 221z" />
    <glyph glyph-name="R" unicode="R" horiz-adv-x="646" 
d="M352 593h-169v-248h159c75 0 127 45 127 134c0 75 -48 114 -117 114zM441 326v-20c69 -3 106 -58 106 -131v-59c0 -37 8 -73 30 -95v-21h-78c-30 27 -37 66 -37 107v64c0 72 -34 103 -126 103h-153v-274h-83v666h252c139 0 205 -77 205 -187c0 -80 -45 -149 -116 -153z
" />
    <glyph glyph-name="S" unicode="S" horiz-adv-x="609" 
d="M58 153l80 23c21 -82 86 -115 172 -115c101 0 155 42 155 115c0 60 -33 90 -96 107l-138 36c-87 23 -146 75 -146 177c0 108 91 180 225 180c111 0 195 -59 217 -153l-80 -22c-16 67 -69 104 -142 104c-82 0 -139 -44 -139 -106c0 -51 24 -90 92 -108l140 -36
c84 -22 149 -72 149 -176c0 -117 -83 -189 -239 -189c-130 0 -223 54 -250 163z" />
    <glyph glyph-name="T" unicode="T" horiz-adv-x="598" 
d="M30 593v73h538v-73h-228v-593h-83v593h-227z" />
    <glyph glyph-name="U" unicode="U" horiz-adv-x="672" 
d="M336 64c128 0 173 63 173 183v419h83v-423c0 -159 -82 -252 -256 -252s-256 93 -256 252v423h83v-419c0 -120 45 -183 173 -183z" />
    <glyph glyph-name="V" unicode="V" horiz-adv-x="648" 
d="M117 666l199 -553h20l199 553h73v-20l-234 -646h-98l-236 646v20h77z" />
    <glyph glyph-name="W" unicode="W" horiz-adv-x="930" 
d="M875 666v-15l-138 -651h-110l-152 560h-15l-155 -560h-109l-141 651v15h78l118 -558h15l154 558h101l150 -558h15l112 558h77z" />
    <glyph glyph-name="X" unicode="X" horiz-adv-x="643" 
d="M331 260h-18l-186 -260h-82v20l230 315l-230 311v20h82l185 -249h20l185 249h81v-20l-230 -311l230 -315v-20h-82z" />
    <glyph glyph-name="Y" unicode="Y" horiz-adv-x="611" 
d="M583 666v-20l-237 -390v-256h-83v257l-235 389v20h78l191 -318h18l190 318h78z" />
    <glyph glyph-name="Z" unicode="Z" horiz-adv-x="605" 
d="M163 93v-19h387v-74h-495v70l379 503v20h-361v73h467v-73z" />
    <glyph glyph-name="a" unicode="a" horiz-adv-x="546" 
d="M391 212v43l-87 -5c-102 -6 -158 -38 -158 -105c0 -58 33 -88 99 -88c96 0 146 76 146 155zM158 368l-73 31c26 69 89 117 194 117c114 0 188 -48 188 -181v-335h-71v85h-20c-16 -55 -64 -95 -146 -95c-103 0 -164 59 -164 155c0 109 85 159 230 168l95 6v14
c0 81 -47 114 -112 114c-72 0 -104 -44 -121 -79z" />
    <glyph glyph-name="b" unicode="b" horiz-adv-x="601" 
d="M544 253c0 -170 -80 -263 -202 -263c-80 0 -127 33 -152 96h-20v-86h-80v730h80v-310h20c25 63 72 96 152 96c122 0 202 -93 202 -263zM317 60c100 0 142 78 142 193s-42 193 -142 193s-142 -78 -142 -193s42 -193 142 -193z" />
    <glyph glyph-name="c" unicode="c" horiz-adv-x="523" 
d="M282 516c95 0 171 -41 196 -142l-78 -21c-18 67 -64 93 -118 93c-100 0 -142 -78 -142 -193s42 -193 142 -193c54 0 100 27 118 93l78 -21c-25 -101 -101 -142 -196 -142c-119 0 -227 71 -227 263s108 263 227 263z" />
    <glyph glyph-name="d" unicode="d" horiz-adv-x="601" 
d="M57 253c0 170 80 263 202 263c80 0 127 -33 152 -96h20v310h80v-730h-80v86h-20c-25 -63 -72 -96 -152 -96c-122 0 -202 93 -202 263zM284 60c100 0 142 78 142 193s-42 193 -142 193s-142 -78 -142 -193s42 -193 142 -193z" />
    <glyph glyph-name="e" unicode="e" horiz-adv-x="546" 
d="M409 133l70 -36c-39 -79 -121 -107 -205 -107c-112 0 -219 70 -219 262c0 193 109 264 220 264c120 0 216 -64 216 -243v-43h-353c6 -103 50 -171 138 -171c68 0 110 34 133 74zM276 447c-85 0 -127 -61 -136 -153h266c0 115 -52 153 -130 153z" />
    <glyph glyph-name="f" unicode="f" horiz-adv-x="400" 
d="M41 506h80v36c0 138 56 198 162 198c43 0 82 -10 117 -33l-33 -62c-23 17 -48 25 -75 25c-64 0 -91 -27 -91 -128v-36h173v-68h-173v-438h-80v438h-80v68z" />
    <glyph glyph-name="g" unicode="g" horiz-adv-x="603" 
d="M307 -148c135 0 185 42 185 92c0 38 -28 69 -124 69h-107c-108 0 -139 -34 -139 -78c0 -49 38 -83 185 -83zM79 116c0 52 37 83 84 85v20c-46 21 -75 73 -75 125c0 82 51 170 205 170c43 0 87 -10 112 -23h20c0 70 49 105 99 105h51v-76h-64c-41 0 -58 -28 -58 -61
c20 -16 46 -61 46 -102c0 -115 -82 -172 -187 -172h-82c-53 0 -76 -22 -76 -54c0 -29 23 -48 76 -48h138c136 0 202 -48 202 -135c0 -95 -89 -160 -266 -160c-178 0 -259 48 -259 130c0 64 59 101 118 103v20c-47 2 -84 27 -84 73zM419 351c0 65 -51 100 -125 100
s-124 -35 -124 -100s50 -99 124 -99s125 34 125 99z" />
    <glyph glyph-name="h" unicode="h" horiz-adv-x="582" 
d="M90 0v730h80v-303h20c16 48 62 89 147 89c87 0 165 -38 165 -197v-319h-81v300c0 95 -31 146 -114 146c-77 0 -137 -60 -137 -165v-281h-80z" />
    <glyph glyph-name="i" unicode="i" horiz-adv-x="260" 
d="M170 0h-80v506h80v-506zM70 679c0 34 26 61 60 61s60 -27 60 -61s-26 -61 -60 -61s-60 27 -60 61z" />
    <glyph glyph-name="j" unicode="j" horiz-adv-x="260" 
d="M-70 -198l19 66c12 -4 31 -8 53 -8c57 0 88 50 88 121v525h80v-524c0 -121 -66 -192 -165 -192c-34 0 -59 6 -75 12zM70 679c0 34 26 61 60 61s60 -27 60 -61s-26 -61 -60 -61s-60 27 -60 61z" />
    <glyph glyph-name="k" unicode="k" horiz-adv-x="540" 
d="M90 0v730h80v-445h20l234 221h80v-20l-179 -173l180 -293v-20h-82l-157 265l-96 -88v-177h-80z" />
    <glyph glyph-name="l" unicode="l" horiz-adv-x="260" 
d="M170 0h-80v730h80v-730z" />
    <glyph glyph-name="m" unicode="m" horiz-adv-x="853" 
d="M90 0v506h80v-79h20c13 48 56 89 132 89c56 0 108 -20 134 -89h20c13 48 62 89 147 89c78 0 150 -38 150 -197v-319h-81v300c0 95 -28 146 -99 146c-63 0 -114 -51 -121 -142v-304h-81v314c0 86 -32 132 -99 132c-68 0 -122 -60 -122 -165v-281h-80z" />
    <glyph glyph-name="n" unicode="n" horiz-adv-x="582" 
d="M90 0v506h80v-79h20c16 48 62 89 147 89c87 0 165 -38 165 -197v-319h-81v300c0 95 -31 146 -114 146c-77 0 -137 -60 -137 -165v-281h-80z" />
    <glyph glyph-name="o" unicode="o" horiz-adv-x="564" 
d="M282 60c100 0 142 78 142 193s-42 193 -142 193s-142 -78 -142 -193s42 -193 142 -193zM282 516c119 0 227 -71 227 -263s-108 -263 -227 -263s-227 71 -227 263s108 263 227 263z" />
    <glyph glyph-name="p" unicode="p" horiz-adv-x="601" 
d="M544 253c0 -170 -80 -263 -202 -263c-80 0 -127 33 -152 96h-20v-286h-80v706h80v-86h20c25 63 72 96 152 96c122 0 202 -93 202 -263zM317 446c-100 0 -142 -78 -142 -193s42 -193 142 -193s142 78 142 193s-42 193 -142 193z" />
    <glyph glyph-name="q" unicode="q" horiz-adv-x="601" 
d="M57 253c0 170 80 263 202 263c80 0 127 -33 152 -96h20v86h80v-706h-80v286h-20c-25 -63 -72 -96 -152 -96c-122 0 -202 93 -202 263zM284 446c-100 0 -142 -78 -142 -193s42 -193 142 -193s142 78 142 193s-42 193 -142 193z" />
    <glyph glyph-name="r" unicode="r" horiz-adv-x="447" 
d="M436 422c-4 -1 -64 -30 -76 -35c-14 38 -40 56 -80 56c-64 0 -110 -72 -110 -182v-261h-80v506h80v-79h20c12 43 48 89 115 89c66 0 111 -31 131 -94z" />
    <glyph glyph-name="s" unicode="s" horiz-adv-x="516" 
d="M55 119l74 29c14 -53 61 -92 130 -92c82 0 124 35 124 86c0 40 -32 59 -86 69l-88 17c-97 19 -138 64 -138 136c0 93 80 152 192 152c97 0 161 -39 187 -114l-72 -31c-11 41 -50 79 -114 79c-71 0 -115 -31 -115 -80c0 -32 26 -58 85 -69l88 -17c85 -17 139 -53 139 -135
c0 -95 -74 -159 -202 -159c-110 0 -187 50 -204 129z" />
    <glyph glyph-name="t" unicode="t" horiz-adv-x="416" 
d="M131 700h80v-194h172v-66h-172v-287c0 -60 23 -92 74 -92c33 0 56 10 78 24l32 -61c-27 -18 -69 -33 -120 -33c-103 0 -144 61 -144 161v288h-99v66h99v194z" />
    <glyph glyph-name="u" unicode="u" horiz-adv-x="572" 
d="M482 506v-506h-80v79h-20c-15 -48 -60 -89 -142 -89c-84 0 -160 38 -160 197v319h81v-300c0 -95 30 -146 109 -146c74 0 132 60 132 165v281h80z" />
    <glyph glyph-name="v" unicode="v" horiz-adv-x="531" 
d="M496 506v-20l-187 -486h-87l-187 486v20h76l146 -399h20l145 399h74z" />
    <glyph glyph-name="w" unicode="w" horiz-adv-x="767" 
d="M727 506v-20l-136 -486h-89l-107 384h-20l-108 -384h-90l-137 486v20h70l104 -389h20l109 389h82l114 -389h20l98 389h70z" />
    <glyph glyph-name="x" unicode="x" horiz-adv-x="531" 
d="M45 0v20l174 241l-160 225v20h75l123 -177h20l120 177h73v-20l-157 -224l173 -242v-20h-77l-133 194h-20l-135 -194h-76z" />
    <glyph glyph-name="y" unicode="y" horiz-adv-x="531" 
d="M226 -10l-191 496v20h76l146 -399h20l145 399h74v-20l-201 -522c-47 -122 -116 -174 -203 -174c-49 0 -91 13 -114 29l34 66c18 -13 49 -25 79 -25c63 0 109 63 135 130z" />
    <glyph glyph-name="z" unicode="z" horiz-adv-x="498" 
d="M165 94v-25h273v-69h-378v89l272 323v25h-264v69h365v-93z" />
    <glyph glyph-name="asciitilde" unicode="~" 
d="M164 227l-67 10c10 71 45 120 106 120c69 0 153 -58 198 -58c25 0 35 23 45 64l66 -10c-10 -73 -44 -122 -105 -122c-69 0 -154 58 -198 58c-26 0 -35 -23 -45 -62z" />
    <glyph glyph-name="asciicircum" unicode="^" horiz-adv-x="488" 
d="M433 441v-20h-71l-108 165h-20l-108 -165h-71v20l149 225h80z" />
    <glyph glyph-name="dagger" unicode="&#x2020;" horiz-adv-x="509" 
d="M286 216h-63v273h-138v60h138v117h63v-117h138v-60h-138v-273z" />
    <glyph glyph-name="daggerdbl" unicode="&#x2021;" horiz-adv-x="509" 
d="M286 216h-63v117h-138v60h138v96h-138v60h138v117h63v-117h138v-60h-138v-96h138v-60h-138v-117z" />
    <glyph glyph-name="dollar" unicode="$" horiz-adv-x="595" 
d="M261 -84v86c-103 11 -180 65 -201 156l76 22c15 -63 60 -98 125 -108v239l-33 9c-87 23 -147 72 -147 171c0 93 72 159 180 172v87h70v-86c93 -9 159 -64 179 -147l-77 -21c-14 52 -50 87 -102 98v-226l62 -16c82 -21 142 -70 142 -169c0 -106 -71 -174 -204 -182v-85
h-70zM365 284l-34 9v-223c81 7 125 46 125 111c0 55 -30 87 -91 103zM158 494c0 -49 27 -88 96 -106l7 -2v207c-61 -11 -103 -49 -103 -99z" />
    <glyph glyph-name="Euro" unicode="&#x20ac;" horiz-adv-x="639" 
d="M199 333c0 -13 0 -26 1 -38h197v-66h-191c18 -105 68 -166 163 -166c82 0 126 54 140 129l80 -19c-24 -125 -115 -183 -219 -183c-146 0 -226 88 -250 239h-75v66h69c-1 12 -1 25 -1 38s0 25 1 38h-69v66h75c24 151 104 239 250 239c104 0 195 -58 219 -183l-80 -19
c-14 75 -58 129 -140 129c-95 0 -145 -61 -163 -166h191v-66h-197c-1 -13 -1 -25 -1 -38z" />
    <glyph glyph-name="cent" unicode="&#xa2;" horiz-adv-x="533" 
d="M237 -84v87c-100 17 -182 92 -182 260c0 167 82 243 182 259v88h70v-85c83 -7 148 -49 171 -141l-78 -21c-15 56 -50 84 -93 91v-382c43 7 78 35 93 91l78 -21c-23 -92 -88 -134 -171 -141v-85h-70zM140 263c0 -96 29 -167 97 -187v374c-68 -21 -97 -91 -97 -187z" />
    <glyph glyph-name="sterling" unicode="&#xa3;" horiz-adv-x="589" 
d="M60 301v67h72c-8 33 -15 67 -15 99c1 113 56 209 216 209c105 0 186 -65 201 -165l-79 -22c-14 85 -68 116 -125 116c-89 0 -128 -50 -128 -139c0 -29 7 -62 16 -98h190v-67h-174c7 -33 13 -65 13 -96c0 -42 -20 -91 -57 -110v-20h319v-75h-449v90c63 22 108 59 108 123
c0 25 -8 55 -17 88h-91z" />
    <glyph glyph-name="parenleft" unicode="(" horiz-adv-x="324" 
d="M147 307c0 -178 63 -314 135 -417l-59 -37c-74 101 -153 249 -153 454s79 353 153 454l59 -37c-72 -103 -135 -239 -135 -417z" />
    <glyph glyph-name="parenright" unicode=")" horiz-adv-x="324" 
d="M177 307c0 178 -63 314 -135 417l59 37c74 -101 153 -249 153 -454s-79 -353 -153 -454l-59 37c72 103 135 239 135 417z" />
    <glyph glyph-name="bracketleft" unicode="[" horiz-adv-x="319" 
d="M65 750h209v-66h-131v-752h131v-66h-209v884z" />
    <glyph glyph-name="bracketright" unicode="]" horiz-adv-x="319" 
d="M45 750h209v-884h-209v66h131v752h-131v66z" />
    <glyph glyph-name="braceleft" unicode="{" horiz-adv-x="351" 
d="M146 316v-20c41 -13 59 -54 59 -100c0 -70 -34 -143 -34 -202c0 -40 18 -72 63 -72c22 0 46 4 61 8l14 -63c-18 -5 -54 -10 -72 -10c-84 0 -137 51 -137 127c0 71 36 160 36 212c0 64 -31 75 -86 75v70c55 0 86 11 86 75c0 52 -36 141 -36 212c0 76 53 127 137 127
c18 0 54 -5 72 -10l-14 -63c-15 4 -39 8 -61 8c-45 0 -63 -32 -63 -72c0 -59 34 -132 34 -202c0 -46 -18 -87 -59 -100z" />
    <glyph glyph-name="braceright" unicode="}" horiz-adv-x="351" 
d="M205 294v20c-41 13 -59 54 -59 100c0 70 34 143 34 202c0 40 -18 72 -63 72c-22 0 -46 -4 -61 -8l-14 63c18 5 54 10 72 10c84 0 137 -51 137 -127c0 -71 -36 -160 -36 -212c0 -64 31 -75 86 -75v-70c-55 0 -86 -11 -86 -75c0 -52 36 -141 36 -212
c0 -76 -53 -127 -137 -127c-18 0 -54 5 -72 10l14 63c15 -4 39 -8 61 -8c45 0 63 32 63 72c0 59 -34 132 -34 202c0 46 18 87 59 100z" />
    <glyph glyph-name="yen" unicode="&#xa5;" horiz-adv-x="575" 
d="M376 350v-20h99v-66h-147v-61h147v-66h-147v-137h-83v137h-147v66h147v61h-147v66h100v20l-168 296v20h78l171 -308h18l170 308h78v-20z" />
    <glyph glyph-name="section" unicode="&#xa7;" horiz-adv-x="588" 
d="M518 251c0 -49 -28 -89 -62 -117c16 -20 26 -46 26 -82c0 -92 -80 -144 -198 -144c-95 0 -169 51 -189 131l78 21c14 -53 58 -85 115 -85c70 0 117 25 117 74c0 44 -26 59 -84 83l-122 51c-69 29 -129 64 -129 150c0 49 28 88 62 116c-17 21 -26 47 -26 83
c0 92 80 144 198 144c95 0 169 -51 189 -131l-78 -21c-14 53 -58 85 -115 85c-70 0 -117 -25 -117 -74c0 -44 26 -59 84 -83l122 -51c69 -29 129 -64 129 -150zM244 382c-24 10 -47 19 -66 30c-20 -16 -32 -40 -32 -66c0 -44 27 -70 77 -91l121 -51c24 -10 47 -20 67 -32
c19 17 31 40 31 66c0 45 -26 72 -77 93z" />
    <glyph glyph-name="partialdiff" unicode="&#x2202;" 
d="M400 451h22c-22 81 -130 193 -247 232l26 67c226 -80 335 -290 335 -456c0 -218 -90 -304 -234 -304c-138 0 -226 96 -226 264s97 263 207 263c43 0 89 -14 117 -66zM305 60c103 0 146 82 146 194s-44 192 -147 192s-143 -80 -143 -192c0 -117 41 -194 144 -194z" />
    <glyph glyph-name="periodcentered" unicode="&#xb7;" horiz-adv-x="296" 
d="M80 285c0 38 30 68 68 68s68 -30 68 -68s-30 -68 -68 -68s-68 30 -68 68z" />
    <glyph glyph-name="bullet" unicode="&#x2022;" horiz-adv-x="461" 
d="M100 312c0 72 58 130 131 130c72 0 130 -58 130 -130c0 -73 -58 -131 -130 -131c-73 0 -131 58 -131 131z" />
    <glyph glyph-name="paragraph" unicode="&#xb6;" horiz-adv-x="629" 
d="M40 454c0 130 77 212 224 212h103v-666h-83v242h-20c-147 0 -224 82 -224 212zM446 666h83v-666h-83v666z" />
    <glyph glyph-name="germandbls" unicode="&#xdf;" horiz-adv-x="622" 
d="M580 198c0 -126 -86 -205 -212 -205c-36 0 -75 7 -101 17l22 65c32 -12 56 -17 79 -17c82 0 135 54 135 139c0 84 -60 137 -194 137v86c98 20 125 74 125 152c0 44 -32 101 -110 101c-85 0 -123 -52 -123 -129v-544h-80v438h-80v68h80v53c0 107 78 182 199 182
c137 0 192 -92 192 -166c0 -106 -70 -163 -114 -179v-20c89 0 182 -60 182 -178z" />
    <glyph glyph-name="copyright" unicode="&#xa9;" 
d="M245 351c0 -86 16 -144 63 -144c34 0 45 41 45 78l63 -10c-2 -68 -35 -124 -108 -124c-85 0 -126 71 -126 200s41 200 126 200c73 0 106 -56 108 -124l-63 -10c0 37 -11 78 -45 78c-47 0 -63 -58 -63 -144zM305 42c130 0 201 105 201 309s-71 309 -201 309
s-201 -105 -201 -309s71 -309 201 -309zM305 -12c-164 0 -260 129 -260 363s96 363 260 363s260 -129 260 -363s-96 -363 -260 -363z" />
    <glyph glyph-name="registered" unicode="&#xae;" horiz-adv-x="497" 
d="M452 510c0 -114 -89 -203 -203 -203c-115 0 -204 89 -204 203c0 115 89 204 204 204c114 0 203 -89 203 -204zM412 510c0 95 -72 170 -163 170c-93 0 -164 -75 -164 -170s71 -169 164 -169c91 0 163 74 163 169zM253 585h-37v-62h34c24 0 39 10 39 35c0 20 -14 27 -36 27
zM295 516v-20c26 -1 31 -12 31 -36v-18c0 -11 5 -15 11 -17v-20h-37c-10 9 -14 21 -14 35v19c0 23 -9 31 -38 31h-32v-85h-39v214h76c50 0 76 -25 76 -60c0 -26 -18 -41 -34 -43z" />
    <glyph glyph-name="trademark" unicode="&#x2122;" 
d="M16 617v49h229v-49h-87v-246h-56v246h-86zM523 371v215h-20l-43 -215h-60l-43 215h-20v-215h-49v295h90l43 -219h20l43 219h89v-295h-50z" />
    <glyph glyph-name="degree" unicode="&#xb0;" horiz-adv-x="420" 
d="M55 521c0 88 67 155 155 155s155 -67 155 -155s-67 -155 -155 -155s-155 67 -155 155zM119 521c0 -55 39 -97 91 -97s91 42 91 97s-39 97 -91 97s-91 -42 -91 -97z" />
    <glyph glyph-name="asterisk" unicode="*" horiz-adv-x="494" 
d="M81 641l121 -57l16 12l-12 134h85l-16 -134l17 -12l121 57l26 -81l-131 -28l-6 -20l92 -98l-70 -50l-68 115h-19l-67 -115l-70 50l91 98l-6 20l-130 28z" />
    <glyph glyph-name="equal" unicode="=" 
d="M116 143v71h377v-71h-377zM116 371v71h377v-71h-377z" />
    <glyph glyph-name="notequal" unicode="&#x2260;" 
d="M309 234v-20h184v-71h-236l-62 -108l-58 33l43 75h-64v71h105l80 137v20h-185v71h237l62 107l57 -32l-43 -75h64v-71h-105z" />
    <glyph glyph-name="plusminus" unicode="&#xb1;" 
d="M106 287v71h162v143h71v-143h164v-71h-164v-143h-71v143h-162zM106 0v71h397v-71h-397z" />
    <glyph glyph-name="lessequal" unicode="&#x2264;" 
d="M106 0v71h397v-71h-397zM231 326l272 -106v-68h-20l-377 153v62l377 153h20v-68l-272 -106v-20z" />
    <glyph glyph-name="greaterequal" unicode="&#x2265;" 
d="M503 71v-71h-397v71h397zM106 220l272 106v20l-272 106v68h20l377 -153v-62l-377 -153h-20v68z" />
    <glyph glyph-name="less" unicode="&#x3c;" 
d="M213 286l287 -151v-73h-20l-392 208v52l392 208h20v-73l-287 -151v-20z" />
    <glyph glyph-name="greater" unicode="&#x3e;" 
d="M110 135l287 151v20l-287 151v73h20l392 -208v-52l-392 -208h-20v73z" />
    <glyph glyph-name="minus" unicode="&#x2212;" 
d="M116 257v71h377v-71h-377z" />
    <glyph glyph-name="multiply" unicode="&#xd7;" 
d="M174 115l-47 47l130 130l-131 131l47 47l131 -131l132 132l47 -47l-132 -132l131 -131l-47 -47l-131 131z" />
    <glyph glyph-name="divide" unicode="&#xf7;" 
d="M116 257v71h377v-71h-377zM237 103c0 38 30 68 68 68s68 -30 68 -68s-30 -68 -68 -68s-68 30 -68 68zM237 482c0 38 30 68 68 68s68 -30 68 -68s-30 -68 -68 -68s-68 30 -68 68z" />
    <glyph glyph-name="approxequal" unicode="&#x2248;" 
d="M164 125l-67 10c10 71 45 120 106 120c69 0 153 -58 198 -58c25 0 35 23 45 64l66 -10c-10 -73 -44 -122 -105 -122c-69 0 -154 58 -198 58c-26 0 -35 -23 -45 -62zM164 329l-67 10c10 71 45 120 106 120c69 0 153 -58 198 -58c25 0 35 23 45 64l66 -10
c-10 -73 -44 -122 -105 -122c-69 0 -154 58 -198 58c-26 0 -35 -23 -45 -62z" />
    <glyph glyph-name="Delta" unicode="&#x2206;" 
d="M40 0v25l237 641h98l241 -641v-25h-576zM314 556l-177 -484h377l-180 484h-20z" />
    <glyph glyph-name="guillemotleft" unicode="&#xab;" horiz-adv-x="548" 
d="M167 248l107 -178v-20h-67l-132 198l132 198h67v-20zM366 248l107 -178v-20h-67l-132 198l132 198h67v-20z" />
    <glyph glyph-name="guillemotright" unicode="&#xbb;" horiz-adv-x="548" 
d="M274 70l107 178l-107 178v20h67l132 -198l-132 -198h-67v20zM75 70l107 178l-107 178v20h67l132 -198l-132 -198h-67v20z" />
    <glyph glyph-name="quotedblleft" unicode="&#x201c;" horiz-adv-x="459" 
d="M194 530c0 -37 -28 -67 -65 -67c-39 0 -70 30 -70 82c0 53 25 104 82 195l45 -27l-57 -99v-19c37 0 65 -29 65 -65zM400 530c0 -37 -28 -67 -65 -67c-39 0 -70 30 -70 82c0 53 25 104 82 195l45 -27l-57 -99v-19c37 0 65 -29 65 -65z" />
    <glyph glyph-name="quotedblright" unicode="&#x201d;" horiz-adv-x="459" 
d="M265 665c0 37 29 67 66 67c39 0 69 -30 69 -82c0 -53 -24 -104 -81 -195l-45 27l57 99v19c-37 0 -66 29 -66 65zM59 665c0 37 29 67 66 67c39 0 69 -30 69 -82c0 -53 -24 -104 -81 -195l-45 27l57 99v19c-37 0 -66 29 -66 65z" />
    <glyph glyph-name="quoteleft" unicode="&#x2018;" horiz-adv-x="253" 
d="M194 530c0 -37 -28 -67 -65 -67c-39 0 -70 30 -70 82c0 53 25 104 82 195l45 -27l-57 -99v-19c37 0 65 -29 65 -65z" />
    <glyph glyph-name="quoteright" unicode="&#x2019;" horiz-adv-x="253" 
d="M59 665c0 37 29 67 66 67c39 0 69 -30 69 -82c0 -53 -24 -104 -81 -195l-45 27l57 99v19c-37 0 -66 29 -66 65z" />
    <glyph glyph-name="quotesinglbase" unicode="&#x201a;" horiz-adv-x="253" 
d="M59 55c0 37 29 67 66 67c39 0 69 -30 69 -82c0 -53 -24 -104 -81 -195l-45 27l57 99v19c-37 0 -66 29 -66 65z" />
    <glyph glyph-name="quotedblbase" unicode="&#x201e;" horiz-adv-x="459" 
d="M59 55c0 37 29 67 66 67c39 0 69 -30 69 -82c0 -53 -24 -104 -81 -195l-45 27l57 99v19c-37 0 -66 29 -66 65zM265 55c0 37 29 67 66 67c39 0 69 -30 69 -82c0 -53 -24 -104 -81 -195l-45 27l57 99v19c-37 0 -66 29 -66 65z" />
    <glyph glyph-name="guilsinglleft" unicode="&#x2039;" horiz-adv-x="349" 
d="M167 248l107 -178v-20h-67l-132 198l132 198h67v-20z" />
    <glyph glyph-name="guilsinglright" unicode="&#x203a;" horiz-adv-x="349" 
d="M75 70l107 178l-107 178v20h67l132 -198l-132 -198h-67v20z" />
    <glyph glyph-name="circumflex" unicode="&#x2c6;" 
d="M451 603v-20h-58l-78 85h-20l-78 -85h-58v20l104 143h84z" />
    <glyph glyph-name="acute" unicode="&#xb4;" 
d="M227 583v20l61 143h100v-20l-105 -143h-56z" />
    <glyph glyph-name="grave" unicode="`" 
d="M383 603v-20h-56l-105 143v20h100z" />
    <glyph glyph-name="dieresis" unicode="&#xa8;" 
d="M145 662c0 33 26 59 59 59s59 -26 59 -59s-26 -59 -59 -59s-59 26 -59 59zM347 662c0 33 26 59 59 59s59 -26 59 -59s-26 -59 -59 -59s-59 26 -59 59z" />
    <glyph glyph-name="tilde" unicode="&#x2dc;" 
d="M372 593c-58 0 -95 62 -132 62c-22 0 -30 -27 -36 -57l-62 10c10 69 39 115 95 115c58 0 95 -62 132 -62c22 0 30 27 36 57l62 -10c-10 -69 -39 -115 -95 -115z" />
    <glyph glyph-name="macron" unicode="&#xaf;" 
d="M172 618v67h266v-67h-266z" />
    <glyph glyph-name="breve" unicode="&#x2d8;" 
d="M305 587c-72 0 -139 40 -149 143l63 8c7 -48 32 -86 86 -86s79 38 86 86l63 -8c-10 -103 -77 -143 -149 -143z" />
    <glyph glyph-name="dotaccent" unicode="&#x2d9;" 
d="M243 679c0 34 26 61 60 61s61 -27 61 -61s-27 -60 -61 -60s-60 26 -60 60z" />
    <glyph glyph-name="ring" unicode="&#x2da;" 
d="M194 689c0 62 47 107 111 107s111 -45 111 -107s-47 -107 -111 -107s-111 45 -111 107zM248 689c0 -34 25 -61 57 -61s57 27 57 61c0 35 -25 61 -57 61s-57 -26 -57 -61z" />
    <glyph glyph-name="cedilla" unicode="&#xb8;" 
d="M336 19l-50 -78c20 9 31 9 46 9c49 0 84 -26 84 -72c0 -52 -42 -85 -112 -85c-49 0 -92 19 -110 32l27 44c19 -12 47 -25 84 -25c30 0 50 11 50 34c0 20 -18 31 -45 31c-14 0 -36 -6 -52 -22l-40 29l65 103h53z" />
    <glyph glyph-name="hungarumlaut" unicode="&#x2dd;" 
d="M165 583v20l61 143h86v-20l-93 -143h-54zM298 583v20l61 143h86v-20l-93 -143h-54z" />
    <glyph glyph-name="ogonek" unicode="&#x2db;" 
d="M379 -134l27 -44c-19 -14 -59 -29 -93 -29c-58 0 -106 31 -106 82c0 63 65 105 108 125h54c-61 -32 -95 -70 -95 -111c0 -27 23 -41 48 -41c20 0 44 8 57 18z" />
    <glyph glyph-name="caron" unicode="&#x2c7;" 
d="M451 746v-20l-104 -143h-84l-104 143v20h58l78 -85h20l78 85h58z" />
    <glyph glyph-name="Acircumflex" unicode="&#xc2;" horiz-adv-x="656" 
d="M541 0l-60 162h-312l-59 -162h-70v25l237 641h98l241 -641v-25h-75zM314 556l-118 -322h258l-120 322h-20zM474 723v-20h-58l-78 85h-20l-78 -85h-58v20l104 143h84z" />
    <glyph glyph-name="Adieresis" unicode="&#xc4;" horiz-adv-x="656" 
d="M541 0l-60 162h-312l-59 -162h-70v25l237 641h98l241 -641v-25h-75zM314 556l-118 -322h258l-120 322h-20zM168 782c0 33 26 59 59 59s59 -26 59 -59s-26 -59 -59 -59s-59 26 -59 59zM370 782c0 33 26 59 59 59s59 -26 59 -59s-26 -59 -59 -59s-59 26 -59 59z" />
    <glyph glyph-name="Aring" unicode="&#xc5;" horiz-adv-x="656" 
d="M217 727c0 62 47 107 111 107s111 -45 111 -107c0 -41 -21 -74 -53 -92l230 -610v-25h-75l-60 162h-312l-59 -162h-70v25l226 612c-30 18 -49 51 -49 90zM314 556l-118 -322h258l-120 322h-20zM271 727c0 -33 23 -59 52 -61h9c30 2 53 28 53 61c0 35 -25 61 -57 61
s-57 -26 -57 -61z" />
    <glyph glyph-name="Agrave" unicode="&#xc0;" horiz-adv-x="656" 
d="M541 0l-60 162h-312l-59 -162h-70v25l237 641h98l241 -641v-25h-75zM314 556l-118 -322h258l-120 322h-20zM365 723v-20h-56l-105 143v20h100z" />
    <glyph glyph-name="Atilde" unicode="&#xc3;" horiz-adv-x="656" 
d="M541 0l-60 162h-312l-59 -162h-70v25l237 641h98l241 -641v-25h-75zM314 556l-118 -322h258l-120 322h-20zM395 713c-58 0 -95 62 -132 62c-22 0 -30 -27 -36 -57l-62 10c10 69 39 115 95 115c58 0 95 -62 132 -62c22 0 30 27 36 57l62 -10c-10 -69 -39 -115 -95 -115z
" />
    <glyph glyph-name="Aacute" unicode="&#xc1;" horiz-adv-x="656" 
d="M541 0l-60 162h-312l-59 -162h-70v25l237 641h98l241 -641v-25h-75zM314 556l-118 -322h258l-120 322h-20zM287 703v20l61 143h100v-20l-105 -143h-56z" />
    <glyph glyph-name="AE" unicode="&#xc6;" horiz-adv-x="974" 
d="M470 0v162h-301l-59 -162h-70v25l237 641h619v-73h-343v-214h298v-72h-298v-234h351v-73h-434zM328 593l-132 -359h274v359h-142z" />
    <glyph glyph-name="Ecircumflex" unicode="&#xca;" horiz-adv-x="599" 
d="M95 0v666h426v-73h-343v-214h298v-72h-298v-234h351v-73h-434zM459 723v-20h-58l-78 85h-20l-78 -85h-58v20l104 143h84z" />
    <glyph glyph-name="Edieresis" unicode="&#xcb;" horiz-adv-x="599" 
d="M95 0v666h426v-73h-343v-214h298v-72h-298v-234h351v-73h-434zM152 782c0 33 26 59 59 59s59 -26 59 -59s-26 -59 -59 -59s-59 26 -59 59zM354 782c0 33 26 59 59 59s59 -26 59 -59s-26 -59 -59 -59s-59 26 -59 59z" />
    <glyph glyph-name="Egrave" unicode="&#xc8;" horiz-adv-x="599" 
d="M95 0v666h426v-73h-343v-214h298v-72h-298v-234h351v-73h-434zM353 723v-20h-56l-105 143v20h100z" />
    <glyph glyph-name="Eacute" unicode="&#xc9;" horiz-adv-x="599" 
d="M95 0v666h426v-73h-343v-214h298v-72h-298v-234h351v-73h-434zM272 703v20l61 143h100v-20l-105 -143h-56z" />
    <glyph glyph-name="Iacute" unicode="&#xcd;" horiz-adv-x="273" 
d="M95 0v666h83v-666h-83zM105 703v20l61 143h100v-20l-105 -143h-56z" />
    <glyph glyph-name="Icircumflex" unicode="&#xce;" horiz-adv-x="273" 
d="M95 0v666h83v-666h-83zM283 723v-20h-58l-78 85h-20l-78 -85h-58v20l104 143h84z" />
    <glyph glyph-name="Idieresis" unicode="&#xcf;" horiz-adv-x="273" 
d="M95 0v666h83v-666h-83zM-23 782c0 33 26 59 59 59s59 -26 59 -59s-26 -59 -59 -59s-59 26 -59 59zM179 782c0 33 26 59 59 59s59 -26 59 -59s-26 -59 -59 -59s-59 26 -59 59z" />
    <glyph glyph-name="Igrave" unicode="&#xcc;" horiz-adv-x="273" 
d="M95 0v666h83v-666h-83zM168 723v-20h-56l-105 143v20h100z" />
    <glyph glyph-name="Oacute" unicode="&#xd3;" horiz-adv-x="700" 
d="M557 333c0 145 -48 270 -209 270c-157 0 -205 -125 -205 -270s48 -270 205 -270c161 0 209 125 209 270zM55 333c0 224 110 343 295 343s295 -119 295 -343s-110 -343 -295 -343s-295 119 -295 343zM319 703v20l61 143h100v-20l-105 -143h-56z" />
    <glyph glyph-name="Odieresis" unicode="&#xd6;" horiz-adv-x="700" 
d="M557 333c0 145 -48 270 -209 270c-157 0 -205 -125 -205 -270s48 -270 205 -270c161 0 209 125 209 270zM55 333c0 224 110 343 295 343s295 -119 295 -343s-110 -343 -295 -343s-295 119 -295 343zM190 782c0 33 26 59 59 59s59 -26 59 -59s-26 -59 -59 -59
s-59 26 -59 59zM392 782c0 33 26 59 59 59s59 -26 59 -59s-26 -59 -59 -59s-59 26 -59 59z" />
    <glyph glyph-name="Ocircumflex" unicode="&#xd4;" horiz-adv-x="700" 
d="M557 333c0 145 -48 270 -209 270c-157 0 -205 -125 -205 -270s48 -270 205 -270c161 0 209 125 209 270zM55 333c0 224 110 343 295 343s295 -119 295 -343s-110 -343 -295 -343s-295 119 -295 343zM496 723v-20h-58l-78 85h-20l-78 -85h-58v20l104 143h84z" />
    <glyph glyph-name="Otilde" unicode="&#xd5;" horiz-adv-x="700" 
d="M557 333c0 145 -48 270 -209 270c-157 0 -205 -125 -205 -270s48 -270 205 -270c161 0 209 125 209 270zM55 333c0 224 110 343 295 343s295 -119 295 -343s-110 -343 -295 -343s-295 119 -295 343zM417 713c-58 0 -95 62 -132 62c-22 0 -30 -27 -36 -57l-62 10
c10 69 39 115 95 115c58 0 95 -62 132 -62c22 0 30 27 36 57l62 -10c-10 -69 -39 -115 -95 -115z" />
    <glyph glyph-name="Oslash" unicode="&#xd8;" horiz-adv-x="706" 
d="M58 333c0 224 110 343 295 343c68 0 125 -16 171 -48l58 78h74v-20l-79 -106c46 -57 71 -140 71 -247c0 -224 -110 -343 -295 -343c-71 0 -131 17 -178 52l-54 -72h-75v20l77 103c-42 57 -65 137 -65 240zM564 333c0 68 -11 131 -38 180l-307 -411c32 -27 75 -43 132 -43
c165 0 213 127 213 274zM142 333c0 -64 9 -124 32 -172l305 407c-31 25 -73 39 -128 39c-161 0 -209 -127 -209 -274z" />
    <glyph glyph-name="Ograve" unicode="&#xd2;" horiz-adv-x="700" 
d="M557 333c0 145 -48 270 -209 270c-157 0 -205 -125 -205 -270s48 -270 205 -270c161 0 209 125 209 270zM55 333c0 224 110 343 295 343s295 -119 295 -343s-110 -343 -295 -343s-295 119 -295 343zM380 723v-20h-56l-105 143v20h100z" />
    <glyph glyph-name="OE" unicode="&#x152;" horiz-adv-x="1015" 
d="M945 73v-73h-586c-197 0 -304 108 -304 333s107 333 304 333h578v-73h-343v-214h298v-72h-298v-234h351zM141 333c0 -160 51 -260 226 -260h144v520h-144c-175 0 -226 -100 -226 -260z" />
    <glyph glyph-name="Aringacute" unicode="&#x1fa;" horiz-adv-x="656" 
d="M432 910v-20l-78 -39v-20c51 -9 85 -53 85 -104c0 -41 -21 -74 -53 -92l230 -610v-25h-75l-60 162h-312l-59 -162h-70v25l226 612c-30 18 -49 51 -49 90c0 27 10 50 25 69l86 114h104zM314 556l-118 -322h258l-120 322h-20zM271 727c0 -34 25 -61 57 -61s57 27 57 61
c0 35 -25 61 -57 61s-57 -26 -57 -61z" />
    <glyph glyph-name="Abreve" unicode="&#x102;" horiz-adv-x="656" 
d="M541 0l-60 162h-312l-59 -162h-70v25l237 641h98l241 -641v-25h-75zM314 556l-118 -322h258l-120 322h-20zM328 707c-72 0 -139 40 -149 143l63 8c7 -48 32 -86 86 -86s79 38 86 86l63 -8c-10 -103 -77 -143 -149 -143z" />
    <glyph glyph-name="Amacron" unicode="&#x100;" horiz-adv-x="656" 
d="M541 0l-60 162h-312l-59 -162h-70v25l237 641h98l241 -641v-25h-75zM314 556l-118 -322h258l-120 322h-20zM195 738v67h266v-67h-266z" />
    <glyph glyph-name="Aogonek" unicode="&#x104;" horiz-adv-x="656" 
d="M626 -134l27 -44c-19 -14 -59 -29 -93 -29c-58 0 -106 31 -106 82c0 55 49 94 90 116l-64 171h-311l-59 -162h-70v25l237 641h98l241 -641v-25c-61 -32 -95 -70 -95 -111c0 -27 23 -41 48 -41c20 0 44 8 57 18zM314 556l-118 -322h257l-119 322h-20z" />
    <glyph glyph-name="Cdotaccent" unicode="&#x10a;" horiz-adv-x="641" 
d="M516 192l80 -19c-25 -130 -127 -183 -249 -183c-182 0 -292 119 -292 343s110 343 292 343c124 0 223 -53 249 -183l-80 -19c-18 85 -67 129 -171 129c-138 0 -203 -94 -203 -270c0 -174 57 -270 203 -270c102 0 153 43 171 129zM284 799c0 34 26 61 60 61s61 -27 61 -61
s-27 -60 -61 -60s-60 26 -60 60z" />
    <glyph glyph-name="Cacute" unicode="&#x106;" horiz-adv-x="641" 
d="M516 192l80 -19c-25 -130 -127 -183 -249 -183c-182 0 -292 119 -292 343s110 343 292 343c124 0 223 -53 249 -183l-80 -19c-18 85 -67 129 -171 129c-138 0 -203 -94 -203 -270c0 -174 57 -270 203 -270c102 0 153 43 171 129zM315 703v20l61 143h100v-20l-105 -143
h-56z" />
    <glyph glyph-name="Ccaron" unicode="&#x10c;" horiz-adv-x="641" 
d="M516 192l80 -19c-25 -130 -127 -183 -249 -183c-182 0 -292 119 -292 343s110 343 292 343c124 0 223 -53 249 -183l-80 -19c-18 85 -67 129 -171 129c-138 0 -203 -94 -203 -270c0 -174 57 -270 203 -270c102 0 153 43 171 129zM492 866v-20l-104 -143h-84l-104 143v20
h58l78 -85h20l78 85h58z" />
    <glyph glyph-name="Ccedilla" unicode="&#xc7;" horiz-adv-x="641" 
d="M516 192l80 -19c-25 -130 -127 -183 -249 -183c-6 0 -13 0 -19 1l-31 -50c20 9 31 9 46 9c49 0 84 -26 84 -72c0 -52 -42 -85 -112 -85c-49 0 -92 19 -110 32l27 44c19 -12 47 -25 84 -25c30 0 50 11 50 34c0 20 -18 31 -45 31c-14 0 -36 -6 -52 -22l-40 29l50 80
c-141 26 -224 142 -224 337c0 224 110 343 292 343c124 0 223 -53 249 -183l-80 -19c-18 85 -67 129 -171 129c-138 0 -203 -94 -203 -270c0 -174 57 -270 203 -270c102 0 153 43 171 129z" />
    <glyph glyph-name="Ccircumflex" unicode="&#x108;" horiz-adv-x="641" 
d="M516 192l80 -19c-25 -130 -127 -183 -249 -183c-182 0 -292 119 -292 343s110 343 292 343c124 0 223 -53 249 -183l-80 -19c-18 85 -67 129 -171 129c-138 0 -203 -94 -203 -270c0 -174 57 -270 203 -270c102 0 153 43 171 129zM492 723v-20h-58l-78 85h-20l-78 -85h-58
v20l104 143h84z" />
    <glyph glyph-name="Dcaron" unicode="&#x10e;" horiz-adv-x="689" 
d="M548 333c0 160 -51 260 -226 260h-144v-520h144c175 0 226 100 226 260zM95 0v666h235c197 0 304 -108 304 -333s-107 -333 -304 -333h-235zM468 866v-20l-104 -143h-84l-104 143v20h58l78 -85h20l78 85h58z" />
    <glyph glyph-name="Dcroat" unicode="&#x110;" horiz-adv-x="700" 
d="M45 302v65h61v299h235c197 0 304 -108 304 -333s-107 -333 -304 -333h-235v302h-61zM559 333c0 160 -51 260 -226 260h-144v-226h129v-65h-129v-229h144c175 0 226 100 226 260z" />
    <glyph glyph-name="Eth" unicode="&#xd0;" horiz-adv-x="700" 
d="M45 302v65h61v299h235c197 0 304 -108 304 -333s-107 -333 -304 -333h-235v302h-61zM559 333c0 160 -51 260 -226 260h-144v-226h129v-65h-129v-229h144c175 0 226 100 226 260z" />
    <glyph glyph-name="Ebreve" unicode="&#x114;" horiz-adv-x="599" 
d="M95 0v666h426v-73h-343v-214h298v-72h-298v-234h351v-73h-434zM313 707c-72 0 -139 40 -149 143l63 8c7 -48 32 -86 86 -86s79 38 86 86l63 -8c-10 -103 -77 -143 -149 -143z" />
    <glyph glyph-name="Ecaron" unicode="&#x11a;" horiz-adv-x="599" 
d="M95 0v666h426v-73h-343v-214h298v-72h-298v-234h351v-73h-434zM459 866v-20l-104 -143h-84l-104 143v20h58l78 -85h20l78 85h58z" />
    <glyph glyph-name="Edotaccent" unicode="&#x116;" horiz-adv-x="599" 
d="M95 0v666h426v-73h-343v-214h298v-72h-298v-234h351v-73h-434zM251 799c0 34 26 61 60 61s61 -27 61 -61s-27 -60 -61 -60s-60 26 -60 60z" />
    <glyph glyph-name="Emacron" unicode="&#x112;" horiz-adv-x="599" 
d="M95 0v666h426v-73h-343v-214h298v-72h-298v-234h351v-73h-434zM180 738v67h266v-67h-266z" />
    <glyph glyph-name="Eogonek" unicode="&#x118;" horiz-adv-x="599" 
d="M440 -20v20h-345v666h426v-73h-343v-214h298v-72h-298v-234h351v-73c-61 -32 -95 -70 -95 -111c0 -27 23 -41 48 -41c20 0 44 8 57 18l27 -44c-19 -14 -59 -29 -93 -29c-58 0 -106 31 -106 82c0 45 33 82 73 105z" />
    <glyph glyph-name="Gcircumflex" unicode="&#x11c;" horiz-adv-x="689" 
d="M336 283v71h272v-354h-83v98h-20c-23 -61 -69 -107 -179 -107c-166 0 -271 127 -271 342c0 224 111 343 294 343c126 0 237 -48 265 -173l-80 -20c-21 89 -100 120 -188 120c-140 0 -204 -95 -204 -270c0 -168 53 -272 203 -272c82 0 180 38 180 182v40h-189zM498 723
v-20h-58l-78 85h-20l-78 -85h-58v20l104 143h84z" />
    <glyph glyph-name="Gbreve" unicode="&#x11e;" horiz-adv-x="689" 
d="M336 283v71h272v-354h-83v98h-20c-23 -61 -69 -107 -179 -107c-166 0 -271 127 -271 342c0 224 111 343 294 343c126 0 237 -48 265 -173l-80 -20c-21 89 -100 120 -188 120c-140 0 -204 -95 -204 -270c0 -168 53 -272 203 -272c82 0 180 38 180 182v40h-189zM352 707
c-72 0 -139 40 -149 143l63 8c7 -48 32 -86 86 -86s79 38 86 86l63 -8c-10 -103 -77 -143 -149 -143z" />
    <glyph glyph-name="Gcommaaccent" unicode="&#x122;" horiz-adv-x="689" 
d="M336 283v71h272v-354h-83v98h-20c-23 -61 -69 -107 -179 -107c-166 0 -271 127 -271 342c0 224 111 343 294 343c126 0 237 -48 265 -173l-80 -20c-21 89 -100 120 -188 120c-140 0 -204 -95 -204 -270c0 -168 53 -272 203 -272c82 0 180 38 180 182v40h-189zM330 -291
l-43 23l42 74v20c-35 0 -58 27 -58 61c0 35 27 62 62 62c34 0 64 -27 64 -76c0 -60 -31 -103 -67 -164z" />
    <glyph glyph-name="Gdotaccent" unicode="&#x120;" horiz-adv-x="689" 
d="M336 283v71h272v-354h-83v98h-20c-23 -61 -69 -107 -179 -107c-166 0 -271 127 -271 342c0 224 111 343 294 343c126 0 237 -48 265 -173l-80 -20c-21 89 -100 120 -188 120c-140 0 -204 -95 -204 -270c0 -168 53 -272 203 -272c82 0 180 38 180 182v40h-189zM291 799
c0 34 26 61 60 61s61 -27 61 -61s-27 -60 -61 -60s-60 26 -60 60z" />
    <glyph glyph-name="Hcircumflex" unicode="&#x124;" horiz-adv-x="690" 
d="M95 0v666h83v-290h334v290h83v-666h-83v302h-334v-302h-83zM491 723v-20h-58l-78 85h-20l-78 -85h-58v20l104 143h84z" />
    <glyph glyph-name="Hbar" unicode="&#x126;" horiz-adv-x="710" 
d="M45 450v65h60v151h83v-151h334v151h83v-151h60v-65h-60v-450h-83v262h-334v-262h-83v450h-60zM188 335h334v115h-334v-115z" />
    <glyph glyph-name="Ibreve" unicode="&#x12c;" horiz-adv-x="273" 
d="M95 0v666h83v-666h-83zM137 707c-72 0 -139 40 -149 143l63 8c7 -48 32 -86 86 -86s79 38 86 86l63 -8c-10 -103 -77 -143 -149 -143z" />
    <glyph glyph-name="Idotaccent" unicode="&#x130;" horiz-adv-x="273" 
d="M95 0v666h83v-666h-83zM75 799c0 34 26 61 60 61s61 -27 61 -61s-27 -60 -61 -60s-60 26 -60 60z" />
    <glyph glyph-name="Imacron" unicode="&#x12a;" horiz-adv-x="273" 
d="M95 0v666h83v-666h-83zM4 738v67h266v-67h-266z" />
    <glyph glyph-name="Iogonek" unicode="&#x12e;" horiz-adv-x="273" 
d="M188 -134l27 -44c-19 -14 -59 -29 -93 -29c-58 0 -106 31 -106 82c0 50 41 87 79 110v681h83v-666c-61 -32 -95 -70 -95 -111c0 -27 23 -41 48 -41c20 0 44 8 57 18z" />
    <glyph glyph-name="Itilde" unicode="&#x128;" horiz-adv-x="273" 
d="M95 0v666h83v-666h-83zM204 713c-58 0 -95 62 -132 62c-22 0 -30 -27 -36 -57l-62 10c10 69 39 115 95 115c58 0 95 -62 132 -62c22 0 30 27 36 57l62 -10c-10 -69 -39 -115 -95 -115z" />
    <glyph glyph-name="Jacute" horiz-adv-x="531" 
d="M25 146l75 24c16 -62 60 -109 132 -109c85 0 130 48 130 152v453h83v-454c0 -145 -79 -222 -209 -222c-116 0 -186 54 -211 156zM365 703v20l61 143h100v-20l-105 -143h-56z" />
    <glyph glyph-name="IJ" unicode="&#x132;" horiz-adv-x="804" 
d="M95 0v666h83v-666h-83zM298 146l75 24c16 -62 60 -109 132 -109c85 0 130 48 130 152v453h83v-454c0 -145 -79 -222 -209 -222c-116 0 -186 54 -211 156z" />
    <glyph glyph-name="Jcircumflex" unicode="&#x134;" horiz-adv-x="531" 
d="M25 146l75 24c16 -62 60 -109 132 -109c85 0 130 48 130 152v453h83v-454c0 -145 -79 -222 -209 -222c-116 0 -186 54 -211 156zM550 723v-20h-58l-78 85h-20l-78 -85h-58v20l104 143h84z" />
    <glyph glyph-name="Kcommaaccent" unicode="&#x136;" horiz-adv-x="626" 
d="M596 20v-20h-88l-238 313l-92 -100v-213h-83v666h83v-321h20l294 321h90v-20l-257 -274zM320 -291l-43 23l42 74v20c-35 0 -58 27 -58 61c0 35 27 62 62 62c34 0 64 -27 64 -76c0 -60 -31 -103 -67 -164z" />
    <glyph glyph-name="Lacute" unicode="&#x139;" horiz-adv-x="554" 
d="M95 0v666h83v-593h331v-73h-414zM98 703v20l61 143h100v-20l-105 -143h-56z" />
    <glyph glyph-name="Lcaron" unicode="&#x13d;" horiz-adv-x="554" 
d="M95 0v666h83v-593h331v-73h-414zM393 666v-20l-61 -163h-40v183h101z" />
    <glyph glyph-name="Lslash" unicode="&#x141;" horiz-adv-x="572" 
d="M65 216h-20v65l68 37v348h83v-302l106 59h20v-65l-126 -70v-215h331v-73h-414v242z" />
    <glyph glyph-name="Lcommaaccent" unicode="&#x13b;" horiz-adv-x="554" 
d="M95 0v666h83v-593h331v-73h-414zM295 -291l-43 23l42 74v20c-35 0 -58 27 -58 61c0 35 27 62 62 62c34 0 64 -27 64 -76c0 -60 -31 -103 -67 -164z" />
    <glyph glyph-name="Ldot" unicode="&#x13f;" horiz-adv-x="554" 
d="M95 0v666h83v-593h331v-73h-414zM322 382c0 38 30 68 68 68s68 -30 68 -68s-30 -68 -68 -68s-68 30 -68 68z" />
    <glyph glyph-name="Nacute" unicode="&#x143;" horiz-adv-x="712" 
d="M523 128h14v538h80v-666h-101l-327 538h-14v-538h-80v666h101zM335 703v20l61 143h100v-20l-105 -143h-56z" />
    <glyph glyph-name="Ncaron" unicode="&#x147;" horiz-adv-x="712" 
d="M523 128h14v538h80v-666h-101l-327 538h-14v-538h-80v666h101zM512 866v-20l-104 -143h-84l-104 143v20h58l78 -85h20l78 85h58z" />
    <glyph glyph-name="Ncommaaccent" unicode="&#x145;" horiz-adv-x="712" 
d="M523 128h14v538h80v-666h-101l-327 538h-14v-538h-80v666h101zM350 -291l-43 23l42 74v20c-35 0 -58 27 -58 61c0 35 27 62 62 62c34 0 64 -27 64 -76c0 -60 -31 -103 -67 -164z" />
    <glyph glyph-name="Ntilde" unicode="&#xd1;" horiz-adv-x="712" 
d="M523 128h14v538h80v-666h-101l-327 538h-14v-538h-80v666h101zM433 713c-58 0 -95 62 -132 62c-22 0 -30 -27 -36 -57l-62 10c10 69 39 115 95 115c58 0 95 -62 132 -62c22 0 30 27 36 57l62 -10c-10 -69 -39 -115 -95 -115z" />
    <glyph glyph-name="Eng" unicode="&#x14a;" horiz-adv-x="712" 
d="M523 128h13v538h81v-684c0 -121 -66 -192 -165 -192c-34 0 -59 6 -75 12l19 66c12 -4 31 -8 53 -8c54 0 84 45 87 111l-347 567h-14v-538h-80v666h101z" />
    <glyph glyph-name="Obreve" unicode="&#x14e;" horiz-adv-x="700" 
d="M557 333c0 145 -48 270 -209 270c-157 0 -205 -125 -205 -270s48 -270 205 -270c161 0 209 125 209 270zM55 333c0 224 110 343 295 343s295 -119 295 -343s-110 -343 -295 -343s-295 119 -295 343zM350 707c-72 0 -139 40 -149 143l63 8c7 -48 32 -86 86 -86
s79 38 86 86l63 -8c-10 -103 -77 -143 -149 -143z" />
    <glyph glyph-name="Ohungarumlaut" unicode="&#x150;" horiz-adv-x="700" 
d="M557 333c0 145 -48 270 -209 270c-157 0 -205 -125 -205 -270s48 -270 205 -270c161 0 209 125 209 270zM55 333c0 224 110 343 295 343s295 -119 295 -343s-110 -343 -295 -343s-295 119 -295 343zM250 703v20l61 143h86v-20l-93 -143h-54zM383 703v20l61 143h86v-20
l-93 -143h-54z" />
    <glyph glyph-name="Omacron" unicode="&#x14c;" horiz-adv-x="700" 
d="M557 333c0 145 -48 270 -209 270c-157 0 -205 -125 -205 -270s48 -270 205 -270c161 0 209 125 209 270zM55 333c0 224 110 343 295 343s295 -119 295 -343s-110 -343 -295 -343s-295 119 -295 343zM217 738v67h266v-67h-266z" />
    <glyph glyph-name="Oslashacute" unicode="&#x1fe;" horiz-adv-x="706" 
d="M58 333c0 224 110 343 295 343c68 0 125 -16 171 -48l58 78h74v-20l-79 -106c46 -57 71 -140 71 -247c0 -224 -110 -343 -295 -343c-71 0 -131 17 -178 52l-54 -72h-75v20l77 103c-42 57 -65 137 -65 240zM564 333c0 68 -11 131 -38 180l-307 -411c32 -27 75 -43 132 -43
c165 0 213 127 213 274zM142 333c0 -64 9 -124 32 -172l305 407c-31 25 -73 39 -128 39c-161 0 -209 -127 -209 -274zM322 703v20l61 143h100v-20l-105 -143h-56z" />
    <glyph glyph-name="Thorn" unicode="&#xde;" horiz-adv-x="589" 
d="M178 666v-119h147c147 0 224 -82 224 -212s-77 -212 -224 -212h-147v-123h-83v666h83zM326 474h-148v-278h148c107 0 136 57 136 139c0 81 -29 139 -136 139z" />
    <glyph glyph-name="Racute" unicode="&#x154;" horiz-adv-x="646" 
d="M352 593h-169v-248h159c75 0 127 45 127 134c0 75 -48 114 -117 114zM441 326v-20c69 -3 106 -58 106 -131v-59c0 -37 8 -73 30 -95v-21h-78c-30 27 -37 66 -37 107v64c0 72 -34 103 -126 103h-153v-274h-83v666h252c139 0 205 -77 205 -187c0 -80 -45 -149 -116 -153z
M272 703v20l61 143h100v-20l-105 -143h-56z" />
    <glyph glyph-name="Rcaron" unicode="&#x158;" horiz-adv-x="646" 
d="M352 593h-169v-248h159c75 0 127 45 127 134c0 75 -48 114 -117 114zM441 326v-20c69 -3 106 -58 106 -131v-59c0 -37 8 -73 30 -95v-21h-78c-30 27 -37 66 -37 107v64c0 72 -34 103 -126 103h-153v-274h-83v666h252c139 0 205 -77 205 -187c0 -80 -45 -149 -116 -153z
M449 866v-20l-104 -143h-84l-104 143v20h58l78 -85h20l78 85h58z" />
    <glyph glyph-name="Rcommaaccent" unicode="&#x156;" horiz-adv-x="646" 
d="M352 593h-169v-248h159c75 0 127 45 127 134c0 75 -48 114 -117 114zM441 326v-20c69 -3 106 -58 106 -131v-59c0 -37 8 -73 30 -95v-21h-78c-30 27 -37 66 -37 107v64c0 72 -34 103 -126 103h-153v-274h-83v666h252c139 0 205 -77 205 -187c0 -80 -45 -149 -116 -153z
M330 -291l-43 23l42 74v20c-35 0 -58 27 -58 61c0 35 27 62 62 62c34 0 64 -27 64 -76c0 -60 -31 -103 -67 -164z" />
    <glyph glyph-name="Sacute" unicode="&#x15a;" horiz-adv-x="609" 
d="M58 153l80 23c21 -82 86 -115 172 -115c101 0 155 42 155 115c0 60 -33 90 -96 107l-138 36c-87 23 -146 75 -146 177c0 108 91 180 225 180c111 0 195 -59 217 -153l-80 -22c-16 67 -69 104 -142 104c-82 0 -139 -44 -139 -106c0 -51 24 -90 92 -108l140 -36
c84 -22 149 -72 149 -176c0 -117 -83 -189 -239 -189c-130 0 -223 54 -250 163zM282 703v20l61 143h100v-20l-105 -143h-56z" />
    <glyph glyph-name="Scedilla" unicode="&#x15e;" horiz-adv-x="609" 
d="M58 153l80 23c21 -82 86 -115 172 -115c101 0 155 42 155 115c0 60 -33 90 -96 107l-138 36c-87 23 -146 75 -146 177c0 108 91 180 225 180c111 0 195 -59 217 -153l-80 -22c-16 67 -69 104 -142 104c-82 0 -139 -44 -139 -106c0 -51 24 -90 92 -108l140 -36
c84 -22 149 -72 149 -176c0 -115 -81 -186 -232 -189l-31 -49c20 9 31 9 46 9c49 0 84 -26 84 -72c0 -52 -42 -85 -112 -85c-49 0 -92 19 -110 32l27 44c19 -12 47 -25 84 -25c30 0 50 11 50 34c0 20 -18 31 -45 31c-14 0 -36 -6 -52 -22l-40 29l48 76
c-107 11 -182 64 -206 161z" />
    <glyph glyph-name="Scircumflex" unicode="&#x15c;" horiz-adv-x="609" 
d="M58 153l80 23c21 -82 86 -115 172 -115c101 0 155 42 155 115c0 60 -33 90 -96 107l-138 36c-87 23 -146 75 -146 177c0 108 91 180 225 180c111 0 195 -59 217 -153l-80 -22c-16 67 -69 104 -142 104c-82 0 -139 -44 -139 -106c0 -51 24 -90 92 -108l140 -36
c84 -22 149 -72 149 -176c0 -117 -83 -189 -239 -189c-130 0 -223 54 -250 163zM459 723v-20h-58l-78 85h-20l-78 -85h-58v20l104 143h84z" />
    <glyph glyph-name="Scaron" unicode="&#x160;" horiz-adv-x="609" 
d="M58 153l80 23c21 -82 86 -115 172 -115c101 0 155 42 155 115c0 60 -33 90 -96 107l-138 36c-87 23 -146 75 -146 177c0 108 91 180 225 180c111 0 195 -59 217 -153l-80 -22c-16 67 -69 104 -142 104c-82 0 -139 -44 -139 -106c0 -51 24 -90 92 -108l140 -36
c84 -22 149 -72 149 -176c0 -117 -83 -189 -239 -189c-130 0 -223 54 -250 163zM459 866v-20l-104 -143h-84l-104 143v20h58l78 -85h20l78 85h58z" />
    <glyph glyph-name="Scommaaccent" unicode="&#x218;" horiz-adv-x="609" 
d="M58 153l80 23c21 -82 86 -115 172 -115c101 0 155 42 155 115c0 60 -33 90 -96 107l-138 36c-87 23 -146 75 -146 177c0 108 91 180 225 180c111 0 195 -59 217 -153l-80 -22c-16 67 -69 104 -142 104c-82 0 -139 -44 -139 -106c0 -51 24 -90 92 -108l140 -36
c84 -22 149 -72 149 -176c0 -117 -83 -189 -239 -189c-130 0 -223 54 -250 163zM308 -291l-43 23l42 74v20c-35 0 -58 27 -58 61c0 35 27 62 62 62c34 0 64 -27 64 -76c0 -60 -31 -103 -67 -164z" />
    <glyph glyph-name="Tbar" unicode="&#x166;" horiz-adv-x="598" 
d="M30 593v73h538v-73h-228v-226h125v-65h-125v-302h-83v302h-124v65h124v226h-227z" />
    <glyph glyph-name="Tcaron" unicode="&#x164;" horiz-adv-x="598" 
d="M30 593v73h538v-73h-228v-593h-83v593h-227zM445 866v-20l-104 -143h-84l-104 143v20h58l78 -85h20l78 85h58z" />
    <glyph glyph-name="Tcommaaccent" unicode="&#x162;" horiz-adv-x="598" 
d="M30 593v73h538v-73h-228v-566l-54 -86c20 9 31 9 46 9c49 0 84 -26 84 -72c0 -52 -42 -85 -112 -85c-49 0 -92 19 -110 32l27 44c19 -12 47 -25 84 -25c30 0 50 11 50 34c0 20 -18 31 -45 31c-14 0 -36 -6 -52 -22l-40 29l39 62v615h-227z" />
    <glyph glyph-name="uni021A" unicode="&#x21a;" horiz-adv-x="598" 
d="M30 593v73h538v-73h-228v-593h-83v593h-227zM296 -291l-43 23l42 74v20c-35 0 -58 27 -58 61c0 35 27 62 62 62c34 0 64 -27 64 -76c0 -60 -31 -103 -67 -164z" />
    <glyph glyph-name="Ubreve" unicode="&#x16c;" horiz-adv-x="672" 
d="M336 64c128 0 173 63 173 183v419h83v-423c0 -159 -82 -252 -256 -252s-256 93 -256 252v423h83v-419c0 -120 45 -183 173 -183zM336 707c-72 0 -139 40 -149 143l63 8c7 -48 32 -86 86 -86s79 38 86 86l63 -8c-10 -103 -77 -143 -149 -143z" />
    <glyph glyph-name="Uhungarumlaut" unicode="&#x170;" horiz-adv-x="672" 
d="M336 64c128 0 173 63 173 183v419h83v-423c0 -159 -82 -252 -256 -252s-256 93 -256 252v423h83v-419c0 -120 45 -183 173 -183zM246 703v20l61 143h86v-20l-93 -143h-54zM379 703v20l61 143h86v-20l-93 -143h-54z" />
    <glyph glyph-name="Umacron" unicode="&#x16a;" horiz-adv-x="672" 
d="M336 64c128 0 173 63 173 183v419h83v-423c0 -159 -82 -252 -256 -252s-256 93 -256 252v423h83v-419c0 -120 45 -183 173 -183zM203 738v67h266v-67h-266z" />
    <glyph glyph-name="Uring" unicode="&#x16e;" horiz-adv-x="672" 
d="M336 64c128 0 173 63 173 183v419h83v-423c0 -159 -82 -252 -256 -252s-256 93 -256 252v423h83v-419c0 -120 45 -183 173 -183zM225 809c0 62 47 107 111 107s111 -45 111 -107s-47 -107 -111 -107s-111 45 -111 107zM279 809c0 -34 25 -61 57 -61s57 27 57 61
c0 35 -25 61 -57 61s-57 -26 -57 -61z" />
    <glyph glyph-name="Uogonek" unicode="&#x172;" horiz-adv-x="672" 
d="M421 -134l27 -44c-19 -14 -59 -29 -93 -29c-58 0 -106 31 -106 82c0 45 31 77 59 96v20c-146 11 -228 93 -228 252v423h83v-419c0 -120 45 -183 173 -183s173 63 173 183v419h83v-423c0 -136 -57 -213 -180 -253c-62 -20 -96 -61 -96 -101c0 -27 23 -41 48 -41
c20 0 44 8 57 18z" />
    <glyph glyph-name="Utilde" unicode="&#x168;" horiz-adv-x="672" 
d="M336 64c128 0 173 63 173 183v419h83v-423c0 -159 -82 -252 -256 -252s-256 93 -256 252v423h83v-419c0 -120 45 -183 173 -183zM403 713c-58 0 -95 62 -132 62c-22 0 -30 -27 -36 -57l-62 10c10 69 39 115 95 115c58 0 95 -62 132 -62c22 0 30 27 36 57l62 -10
c-10 -69 -39 -115 -95 -115z" />
    <glyph glyph-name="Uacute" unicode="&#xda;" horiz-adv-x="672" 
d="M336 64c128 0 173 63 173 183v419h83v-423c0 -159 -82 -252 -256 -252s-256 93 -256 252v423h83v-419c0 -120 45 -183 173 -183zM295 703v20l61 143h100v-20l-105 -143h-56z" />
    <glyph glyph-name="Udieresis" unicode="&#xdc;" horiz-adv-x="672" 
d="M336 64c128 0 173 63 173 183v419h83v-423c0 -159 -82 -252 -256 -252s-256 93 -256 252v423h83v-419c0 -120 45 -183 173 -183zM176 782c0 33 26 59 59 59s59 -26 59 -59s-26 -59 -59 -59s-59 26 -59 59zM378 782c0 33 26 59 59 59s59 -26 59 -59s-26 -59 -59 -59
s-59 26 -59 59z" />
    <glyph glyph-name="Ucircumflex" unicode="&#xdb;" horiz-adv-x="672" 
d="M336 64c128 0 173 63 173 183v419h83v-423c0 -159 -82 -252 -256 -252s-256 93 -256 252v423h83v-419c0 -120 45 -183 173 -183zM482 723v-20h-58l-78 85h-20l-78 -85h-58v20l104 143h84z" />
    <glyph glyph-name="Ugrave" unicode="&#xd9;" horiz-adv-x="672" 
d="M336 64c128 0 173 63 173 183v419h83v-423c0 -159 -82 -252 -256 -252s-256 93 -256 252v423h83v-419c0 -120 45 -183 173 -183zM376 723v-20h-56l-105 143v20h100z" />
    <glyph glyph-name="Wacute" unicode="&#x1e82;" horiz-adv-x="930" 
d="M875 666v-15l-138 -651h-110l-152 560h-15l-155 -560h-109l-141 651v15h78l118 -558h15l154 558h101l150 -558h15l112 558h77zM432 703v20l61 143h100v-20l-105 -143h-56z" />
    <glyph glyph-name="Wcircumflex" unicode="&#x174;" horiz-adv-x="930" 
d="M875 666v-15l-138 -651h-110l-152 560h-15l-155 -560h-109l-141 651v15h78l118 -558h15l154 558h101l150 -558h15l112 558h77zM609 723v-20h-58l-78 85h-20l-78 -85h-58v20l104 143h84z" />
    <glyph glyph-name="Wdieresis" unicode="&#x1e84;" horiz-adv-x="930" 
d="M875 666v-15l-138 -651h-110l-152 560h-15l-155 -560h-109l-141 651v15h78l118 -558h15l154 558h101l150 -558h15l112 558h77zM303 782c0 33 26 59 59 59s59 -26 59 -59s-26 -59 -59 -59s-59 26 -59 59zM505 782c0 33 26 59 59 59s59 -26 59 -59s-26 -59 -59 -59
s-59 26 -59 59z" />
    <glyph glyph-name="Wgrave" unicode="&#x1e80;" horiz-adv-x="930" 
d="M875 666v-15l-138 -651h-110l-152 560h-15l-155 -560h-109l-141 651v15h78l118 -558h15l154 558h101l150 -558h15l112 558h77zM503 723v-20h-56l-105 143v20h100z" />
    <glyph glyph-name="uni1E8A" unicode="&#x1e8a;" horiz-adv-x="643" 
d="M331 260h-18l-186 -260h-82v20l230 315l-230 311v20h82l185 -249h20l185 249h81v-20l-230 -311l230 -315v-20h-82zM260 799c0 34 26 61 60 61s61 -27 61 -61s-27 -60 -61 -60s-60 26 -60 60z" />
    <glyph glyph-name="Ycircumflex" unicode="&#x176;" horiz-adv-x="611" 
d="M583 666v-20l-237 -390v-256h-83v257l-235 389v20h78l191 -318h18l190 318h78zM451 723v-20h-58l-78 85h-20l-78 -85h-58v20l104 143h84z" />
    <glyph glyph-name="Ygrave" unicode="&#x1ef2;" horiz-adv-x="611" 
d="M583 666v-20l-237 -390v-256h-83v257l-235 389v20h78l191 -318h18l190 318h78zM346 723v-20h-56l-105 143v20h100z" />
    <glyph glyph-name="Yacute" unicode="&#xdd;" horiz-adv-x="611" 
d="M583 666v-20l-237 -390v-256h-83v257l-235 389v20h78l191 -318h18l190 318h78zM265 703v20l61 143h100v-20l-105 -143h-56z" />
    <glyph glyph-name="Ydieresis" unicode="&#x178;" horiz-adv-x="611" 
d="M583 666v-20l-237 -390v-256h-83v257l-235 389v20h78l191 -318h18l190 318h78zM145 782c0 33 26 59 59 59s59 -26 59 -59s-26 -59 -59 -59s-59 26 -59 59zM347 782c0 33 26 59 59 59s59 -26 59 -59s-26 -59 -59 -59s-59 26 -59 59z" />
    <glyph glyph-name="Zacute" unicode="&#x179;" horiz-adv-x="605" 
d="M163 93v-19h387v-74h-495v70l379 503v20h-361v73h467v-73zM272 703v20l61 143h100v-20l-105 -143h-56z" />
    <glyph glyph-name="Zdotaccent" unicode="&#x17b;" horiz-adv-x="605" 
d="M163 93v-19h387v-74h-495v70l379 503v20h-361v73h467v-73zM251 799c0 34 26 61 60 61s61 -27 61 -61s-27 -60 -61 -60s-60 26 -60 60z" />
    <glyph glyph-name="uni01B5" unicode="&#x1b5;" horiz-adv-x="605" 
d="M128 302v65h151l155 206v20h-361v73h467v-73l-171 -226h122v-65h-171l-157 -209v-19h387v-74h-495v70l175 232h-102z" />
    <glyph glyph-name="Zcaron" unicode="&#x17d;" horiz-adv-x="605" 
d="M163 93v-19h387v-74h-495v70l379 503v20h-361v73h467v-73zM459 866v-20l-104 -143h-84l-104 143v20h58l78 -85h20l78 85h58z" />
    <glyph glyph-name="aeacute" unicode="&#x1fd;" horiz-adv-x="874" 
d="M737 133l70 -36c-39 -79 -121 -107 -205 -107c-72 0 -138 28 -176 99c-44 -76 -120 -99 -196 -99c-103 0 -164 59 -164 155c0 109 85 159 230 168l95 6v14c0 81 -47 114 -112 114c-72 0 -104 -44 -121 -79l-73 31c26 69 89 117 194 117c75 0 134 -22 164 -75
c40 53 98 75 160 75c120 0 216 -64 216 -243v-43h-352v-15c9 -95 53 -156 137 -156c68 0 110 34 133 74zM391 212v43l-87 -5c-102 -6 -158 -38 -158 -105c0 -58 33 -88 99 -88c96 0 146 76 146 155zM604 447c-85 0 -127 -61 -136 -153h266c0 115 -52 153 -130 153zM414 583
v20l61 143h100v-20l-105 -143h-56z" />
    <glyph glyph-name="ae" unicode="&#xe6;" horiz-adv-x="874" 
d="M737 133l70 -36c-39 -79 -121 -107 -205 -107c-72 0 -138 28 -176 99c-44 -76 -120 -99 -196 -99c-103 0 -164 59 -164 155c0 109 85 159 230 168l95 6v14c0 81 -47 114 -112 114c-72 0 -104 -44 -121 -79l-73 31c26 69 89 117 194 117c75 0 134 -22 164 -75
c40 53 98 75 160 75c120 0 216 -64 216 -243v-43h-352v-15c9 -95 53 -156 137 -156c68 0 110 34 133 74zM391 212v43l-87 -5c-102 -6 -158 -38 -158 -105c0 -58 33 -88 99 -88c96 0 146 76 146 155zM604 447c-85 0 -127 -61 -136 -153h266c0 115 -52 153 -130 153z" />
    <glyph glyph-name="abreve" unicode="&#x103;" horiz-adv-x="546" 
d="M391 212v43l-87 -5c-102 -6 -158 -38 -158 -105c0 -58 33 -88 99 -88c96 0 146 76 146 155zM158 368l-73 31c26 69 89 117 194 117c114 0 188 -48 188 -181v-335h-71v85h-20c-16 -55 -64 -95 -146 -95c-103 0 -164 59 -164 155c0 109 85 159 230 168l95 6v14
c0 81 -47 114 -112 114c-72 0 -104 -44 -121 -79zM279 587c-72 0 -139 40 -149 143l63 8c7 -48 32 -86 86 -86s79 38 86 86l63 -8c-10 -103 -77 -143 -149 -143z" />
    <glyph glyph-name="amacron" unicode="&#x101;" horiz-adv-x="546" 
d="M391 212v43l-87 -5c-102 -6 -158 -38 -158 -105c0 -58 33 -88 99 -88c96 0 146 76 146 155zM158 368l-73 31c26 69 89 117 194 117c114 0 188 -48 188 -181v-335h-71v85h-20c-16 -55 -64 -95 -146 -95c-103 0 -164 59 -164 155c0 109 85 159 230 168l95 6v14
c0 81 -47 114 -112 114c-72 0 -104 -44 -121 -79zM151 618v67h266v-67h-266z" />
    <glyph glyph-name="aogonek" unicode="&#x105;" horiz-adv-x="546" 
d="M477 -134l27 -44c-19 -14 -59 -29 -93 -29c-58 0 -106 31 -106 82c0 55 50 94 91 117v93h-20c-16 -55 -64 -95 -146 -95c-103 0 -164 59 -164 155c0 109 85 159 230 168l95 6v14c0 81 -47 114 -112 114c-72 0 -104 -44 -121 -79l-73 31c26 69 89 117 194 117
c114 0 188 -48 188 -181v-335c-61 -32 -95 -70 -95 -111c0 -27 23 -41 48 -41c20 0 44 8 57 18zM391 212v43l-87 -5c-102 -6 -158 -38 -158 -105c0 -58 33 -88 99 -88c96 0 146 76 146 155z" />
    <glyph glyph-name="aacute" unicode="&#xe1;" horiz-adv-x="546" 
d="M391 212v43l-87 -5c-102 -6 -158 -38 -158 -105c0 -58 33 -88 99 -88c96 0 146 76 146 155zM158 368l-73 31c26 69 89 117 194 117c114 0 188 -48 188 -181v-335h-71v85h-20c-16 -55 -64 -95 -146 -95c-103 0 -164 59 -164 155c0 109 85 159 230 168l95 6v14
c0 81 -47 114 -112 114c-72 0 -104 -44 -121 -79zM248 583v20l61 143h100v-20l-105 -143h-56z" />
    <glyph glyph-name="agrave" unicode="&#xe0;" horiz-adv-x="546" 
d="M391 212v43l-87 -5c-102 -6 -158 -38 -158 -105c0 -58 33 -88 99 -88c96 0 146 76 146 155zM158 368l-73 31c26 69 89 117 194 117c114 0 188 -48 188 -181v-335h-71v85h-20c-16 -55 -64 -95 -146 -95c-103 0 -164 59 -164 155c0 109 85 159 230 168l95 6v14
c0 81 -47 114 -112 114c-72 0 -104 -44 -121 -79zM310 603v-20h-56l-105 143v20h100z" />
    <glyph glyph-name="acircumflex" unicode="&#xe2;" horiz-adv-x="546" 
d="M391 212v43l-87 -5c-102 -6 -158 -38 -158 -105c0 -58 33 -88 99 -88c96 0 146 76 146 155zM158 368l-73 31c26 69 89 117 194 117c114 0 188 -48 188 -181v-335h-71v85h-20c-16 -55 -64 -95 -146 -95c-103 0 -164 59 -164 155c0 109 85 159 230 168l95 6v14
c0 81 -47 114 -112 114c-72 0 -104 -44 -121 -79zM424 603v-20h-58l-78 85h-20l-78 -85h-58v20l104 143h84z" />
    <glyph glyph-name="adieresis" unicode="&#xe4;" horiz-adv-x="546" 
d="M391 212v43l-87 -5c-102 -6 -158 -38 -158 -105c0 -58 33 -88 99 -88c96 0 146 76 146 155zM158 368l-73 31c26 69 89 117 194 117c114 0 188 -48 188 -181v-335h-71v85h-20c-16 -55 -64 -95 -146 -95c-103 0 -164 59 -164 155c0 109 85 159 230 168l95 6v14
c0 81 -47 114 -112 114c-72 0 -104 -44 -121 -79zM119 662c0 33 26 59 59 59s59 -26 59 -59s-26 -59 -59 -59s-59 26 -59 59zM321 662c0 33 26 59 59 59s59 -26 59 -59s-26 -59 -59 -59s-59 26 -59 59z" />
    <glyph glyph-name="atilde" unicode="&#xe3;" horiz-adv-x="546" 
d="M391 212v43l-87 -5c-102 -6 -158 -38 -158 -105c0 -58 33 -88 99 -88c96 0 146 76 146 155zM158 368l-73 31c26 69 89 117 194 117c114 0 188 -48 188 -181v-335h-71v85h-20c-16 -55 -64 -95 -146 -95c-103 0 -164 59 -164 155c0 109 85 159 230 168l95 6v14
c0 81 -47 114 -112 114c-72 0 -104 -44 -121 -79zM349 593c-58 0 -95 62 -132 62c-22 0 -30 -27 -36 -57l-62 10c10 69 39 115 95 115c58 0 95 -62 132 -62c22 0 30 27 36 57l62 -10c-10 -69 -39 -115 -95 -115z" />
    <glyph glyph-name="aring" unicode="&#xe5;" horiz-adv-x="546" 
d="M391 212v43l-87 -5c-102 -6 -158 -38 -158 -105c0 -58 33 -88 99 -88c96 0 146 76 146 155zM158 368l-73 31c26 69 89 117 194 117c114 0 188 -48 188 -181v-335h-71v85h-20c-16 -55 -64 -95 -146 -95c-103 0 -164 59 -164 155c0 109 85 159 230 168l95 6v14
c0 81 -47 114 -112 114c-72 0 -104 -44 -121 -79zM168 689c0 62 47 107 111 107s111 -45 111 -107s-47 -107 -111 -107s-111 45 -111 107zM222 689c0 -34 25 -61 57 -61s57 27 57 61c0 35 -25 61 -57 61s-57 -26 -57 -61z" />
    <glyph glyph-name="aringacute" unicode="&#x1fb;" horiz-adv-x="546" 
d="M391 212v43l-87 -5c-102 -6 -158 -38 -158 -105c0 -58 33 -88 99 -88c96 0 146 76 146 155zM158 368l-73 31c26 69 89 117 194 117c114 0 188 -48 188 -181v-335h-71v85h-20c-16 -55 -64 -95 -146 -95c-103 0 -164 59 -164 155c0 109 85 159 230 168l95 6v14
c0 81 -47 114 -112 114c-72 0 -104 -44 -121 -79zM383 872v-20l-78 -39v-20c51 -9 85 -53 85 -104c0 -62 -47 -107 -111 -107s-111 45 -111 107c0 27 10 50 25 69l86 114h104zM222 689c0 -34 25 -61 57 -61s57 27 57 61c0 35 -25 61 -57 61s-57 -26 -57 -61z" />
    <glyph glyph-name="ccaron" unicode="&#x10d;" horiz-adv-x="523" 
d="M282 516c95 0 171 -41 196 -142l-78 -21c-18 67 -64 93 -118 93c-100 0 -142 -78 -142 -193s42 -193 142 -193c54 0 100 27 118 93l78 -21c-25 -101 -101 -142 -196 -142c-119 0 -227 71 -227 263s108 263 227 263zM428 746v-20l-104 -143h-84l-104 143v20h58l78 -85h20
l78 85h58z" />
    <glyph glyph-name="cacute" unicode="&#x107;" horiz-adv-x="523" 
d="M282 516c95 0 171 -41 196 -142l-78 -21c-18 67 -64 93 -118 93c-100 0 -142 -78 -142 -193s42 -193 142 -193c54 0 100 27 118 93l78 -21c-25 -101 -101 -142 -196 -142c-119 0 -227 71 -227 263s108 263 227 263zM251 583v20l61 143h100v-20l-105 -143h-56z" />
    <glyph glyph-name="ccircumflex" unicode="&#x109;" horiz-adv-x="523" 
d="M282 516c95 0 171 -41 196 -142l-78 -21c-18 67 -64 93 -118 93c-100 0 -142 -78 -142 -193s42 -193 142 -193c54 0 100 27 118 93l78 -21c-25 -101 -101 -142 -196 -142c-119 0 -227 71 -227 263s108 263 227 263zM427 603v-20h-58l-78 85h-20l-78 -85h-58v20l104 143
h84z" />
    <glyph glyph-name="cdotaccent" unicode="&#x10b;" horiz-adv-x="523" 
d="M282 516c95 0 171 -41 196 -142l-78 -21c-18 67 -64 93 -118 93c-100 0 -142 -78 -142 -193s42 -193 142 -193c54 0 100 27 118 93l78 -21c-25 -101 -101 -142 -196 -142c-119 0 -227 71 -227 263s108 263 227 263zM222 679c0 34 26 61 60 61s61 -27 61 -61
s-27 -60 -61 -60s-60 26 -60 60z" />
    <glyph glyph-name="ccedilla" unicode="&#xe7;" horiz-adv-x="523" 
d="M282 516c95 0 171 -41 196 -142l-78 -21c-18 67 -64 93 -118 93c-100 0 -142 -78 -142 -193s42 -193 142 -193c54 0 100 27 118 93l78 -21c-24 -97 -96 -139 -186 -142l-31 -49c20 9 31 9 46 9c49 0 84 -26 84 -72c0 -52 -42 -85 -112 -85c-49 0 -92 19 -110 32l27 44
c19 -12 47 -25 84 -25c30 0 50 11 50 34c0 20 -18 31 -45 31c-14 0 -36 -6 -52 -22l-40 29l48 77c-102 15 -186 90 -186 260c0 192 108 263 227 263z" />
    <glyph glyph-name="dcaron" unicode="&#x10f;" horiz-adv-x="720" 
d="M718 730v-20l-61 -163h-40v183h101zM57 253c0 170 80 263 202 263c80 0 127 -33 152 -96h20v310h80v-730h-80v86h-20c-25 -63 -72 -96 -152 -96c-122 0 -202 93 -202 263zM284 60c100 0 142 78 142 193s-42 193 -142 193s-142 -78 -142 -193s42 -193 142 -193z" />
    <glyph glyph-name="dcroat" unicode="&#x111;" horiz-adv-x="601" 
d="M57 253c0 170 80 263 202 263c80 0 127 -33 152 -96h20v152h-131v63h131v95h80v-95h69v-63h-69v-572h-80v86h-20c-25 -63 -72 -96 -152 -96c-122 0 -202 93 -202 263zM284 60c100 0 142 78 142 193s-42 193 -142 193s-142 -78 -142 -193s42 -193 142 -193z" />
    <glyph glyph-name="eth" unicode="&#xf0;" horiz-adv-x="570" 
d="M194 539l-32 53l81 47c-28 18 -58 33 -89 44l26 67c50 -18 94 -42 132 -71l99 58l32 -53l-80 -47c102 -98 152 -231 152 -343c0 -218 -90 -304 -234 -304c-138 0 -226 96 -226 264s97 263 207 263c43 0 89 -14 117 -66h22c-13 45 -52 101 -105 147zM284 60
c103 0 146 82 146 194s-44 192 -147 192s-143 -80 -143 -192c0 -117 41 -194 144 -194z" />
    <glyph glyph-name="ebreve" unicode="&#x115;" horiz-adv-x="546" 
d="M409 133l70 -36c-39 -79 -121 -107 -205 -107c-112 0 -219 70 -219 262c0 193 109 264 220 264c120 0 216 -64 216 -243v-43h-353c6 -103 50 -171 138 -171c68 0 110 34 133 74zM276 447c-85 0 -127 -61 -136 -153h266c0 115 -52 153 -130 153zM275 587
c-72 0 -139 40 -149 143l63 8c7 -48 32 -86 86 -86s79 38 86 86l63 -8c-10 -103 -77 -143 -149 -143z" />
    <glyph glyph-name="ecaron" unicode="&#x11b;" horiz-adv-x="546" 
d="M409 133l70 -36c-39 -79 -121 -107 -205 -107c-112 0 -219 70 -219 262c0 193 109 264 220 264c120 0 216 -64 216 -243v-43h-353c6 -103 50 -171 138 -171c68 0 110 34 133 74zM276 447c-85 0 -127 -61 -136 -153h266c0 115 -52 153 -130 153zM421 746v-20l-104 -143
h-84l-104 143v20h58l78 -85h20l78 85h58z" />
    <glyph glyph-name="edotaccent" unicode="&#x117;" horiz-adv-x="546" 
d="M409 133l70 -36c-39 -79 -121 -107 -205 -107c-112 0 -219 70 -219 262c0 193 109 264 220 264c120 0 216 -64 216 -243v-43h-353c6 -103 50 -171 138 -171c68 0 110 34 133 74zM276 447c-85 0 -127 -61 -136 -153h266c0 115 -52 153 -130 153zM215 679c0 34 26 61 60 61
s61 -27 61 -61s-27 -60 -61 -60s-60 26 -60 60z" />
    <glyph glyph-name="emacron" unicode="&#x113;" horiz-adv-x="546" 
d="M409 133l70 -36c-39 -79 -121 -107 -205 -107c-112 0 -219 70 -219 262c0 193 109 264 220 264c120 0 216 -64 216 -243v-43h-353c6 -103 50 -171 138 -171c68 0 110 34 133 74zM276 447c-85 0 -127 -61 -136 -153h266c0 115 -52 153 -130 153zM147 618v67h266v-67h-266z
" />
    <glyph glyph-name="eacute" unicode="&#xe9;" horiz-adv-x="546" 
d="M409 133l70 -36c-39 -79 -121 -107 -205 -107c-112 0 -219 70 -219 262c0 193 109 264 220 264c120 0 216 -64 216 -243v-43h-353c6 -103 50 -171 138 -171c68 0 110 34 133 74zM276 447c-85 0 -127 -61 -136 -153h266c0 115 -52 153 -130 153zM244 583v20l61 143h100
v-20l-105 -143h-56z" />
    <glyph glyph-name="egrave" unicode="&#xe8;" horiz-adv-x="546" 
d="M409 133l70 -36c-39 -79 -121 -107 -205 -107c-112 0 -219 70 -219 262c0 193 109 264 220 264c120 0 216 -64 216 -243v-43h-353c6 -103 50 -171 138 -171c68 0 110 34 133 74zM276 447c-85 0 -127 -61 -136 -153h266c0 115 -52 153 -130 153zM306 603v-20h-56l-105 143
v20h100z" />
    <glyph glyph-name="ecircumflex" unicode="&#xea;" horiz-adv-x="546" 
d="M409 133l70 -36c-39 -79 -121 -107 -205 -107c-112 0 -219 70 -219 262c0 193 109 264 220 264c120 0 216 -64 216 -243v-43h-353c6 -103 50 -171 138 -171c68 0 110 34 133 74zM276 447c-85 0 -127 -61 -136 -153h266c0 115 -52 153 -130 153zM420 603v-20h-58l-78 85
h-20l-78 -85h-58v20l104 143h84z" />
    <glyph glyph-name="edieresis" unicode="&#xeb;" horiz-adv-x="546" 
d="M409 133l70 -36c-39 -79 -121 -107 -205 -107c-112 0 -219 70 -219 262c0 193 109 264 220 264c120 0 216 -64 216 -243v-43h-353c6 -103 50 -171 138 -171c68 0 110 34 133 74zM276 447c-85 0 -127 -61 -136 -153h266c0 115 -52 153 -130 153zM115 662c0 33 26 59 59 59
s59 -26 59 -59s-26 -59 -59 -59s-59 26 -59 59zM317 662c0 33 26 59 59 59s59 -26 59 -59s-26 -59 -59 -59s-59 26 -59 59z" />
    <glyph glyph-name="eogonek" unicode="&#x119;" horiz-adv-x="546" 
d="M385 -134l27 -44c-19 -14 -59 -29 -93 -29c-58 0 -106 31 -106 82c0 35 20 68 57 95v20c-107 0 -215 70 -215 262c0 193 109 264 220 264c120 0 216 -64 216 -243v-43h-353c6 -103 50 -171 138 -171c68 0 110 34 133 74l70 -36c-26 -53 -76 -80 -107 -95
c-62 -30 -92 -72 -92 -113c0 -27 23 -41 48 -41c20 0 44 8 57 18zM276 447c-85 0 -127 -61 -136 -153h266c0 115 -52 153 -130 153z" />
    <glyph glyph-name="gbreve" unicode="&#x11f;" horiz-adv-x="603" 
d="M307 -148c135 0 185 42 185 92c0 38 -28 69 -124 69h-107c-108 0 -139 -34 -139 -78c0 -49 38 -83 185 -83zM79 116c0 52 37 83 84 85v20c-46 21 -75 73 -75 125c0 82 51 170 205 170c43 0 87 -10 112 -23h20c0 70 49 105 99 105h51v-76h-64c-41 0 -58 -28 -58 -61
c20 -16 46 -61 46 -102c0 -115 -82 -172 -187 -172h-82c-53 0 -76 -22 -76 -54c0 -29 23 -48 76 -48h138c136 0 202 -48 202 -135c0 -95 -89 -160 -266 -160c-178 0 -259 48 -259 130c0 64 59 101 118 103v20c-47 2 -84 27 -84 73zM419 351c0 65 -51 100 -125 100
s-124 -35 -124 -100s50 -99 124 -99s125 34 125 99zM293 587c-72 0 -139 40 -149 143l63 8c7 -48 32 -86 86 -86s79 38 86 86l63 -8c-10 -103 -77 -143 -149 -143z" />
    <glyph glyph-name="gcircumflex" unicode="&#x11d;" horiz-adv-x="603" 
d="M307 -148c135 0 185 42 185 92c0 38 -28 69 -124 69h-107c-108 0 -139 -34 -139 -78c0 -49 38 -83 185 -83zM79 116c0 52 37 83 84 85v20c-46 21 -75 73 -75 125c0 82 51 170 205 170c43 0 87 -10 112 -23h20c0 70 49 105 99 105h51v-76h-64c-41 0 -58 -28 -58 -61
c20 -16 46 -61 46 -102c0 -115 -82 -172 -187 -172h-82c-53 0 -76 -22 -76 -54c0 -29 23 -48 76 -48h138c136 0 202 -48 202 -135c0 -95 -89 -160 -266 -160c-178 0 -259 48 -259 130c0 64 59 101 118 103v20c-47 2 -84 27 -84 73zM419 351c0 65 -51 100 -125 100
s-124 -35 -124 -100s50 -99 124 -99s125 34 125 99zM438 603v-20h-58l-78 85h-20l-78 -85h-58v20l104 143h84z" />
    <glyph glyph-name="gcommaaccent" unicode="&#x123;" horiz-adv-x="603" 
d="M307 -148c135 0 185 42 185 92c0 38 -28 69 -124 69h-107c-108 0 -139 -34 -139 -78c0 -49 38 -83 185 -83zM79 116c0 52 37 83 84 85v20c-46 21 -75 73 -75 125c0 82 51 170 205 170c43 0 87 -10 112 -23h20c0 70 49 105 99 105h51v-76h-64c-41 0 -58 -28 -58 -61
c20 -16 46 -61 46 -102c0 -115 -82 -172 -187 -172h-82c-53 0 -76 -22 -76 -54c0 -29 23 -48 76 -48h138c136 0 202 -48 202 -135c0 -95 -89 -160 -266 -160c-178 0 -259 48 -259 130c0 64 59 101 118 103v20c-47 2 -84 27 -84 73zM419 351c0 65 -51 100 -125 100
s-124 -35 -124 -100s50 -99 124 -99s125 34 125 99zM296 812l43 -23l-42 -74v-20c35 0 58 -27 58 -61c0 -35 -27 -62 -62 -62c-34 0 -64 27 -64 76c0 60 31 103 67 164z" />
    <glyph glyph-name="gdotaccent" unicode="&#x121;" horiz-adv-x="603" 
d="M307 -148c135 0 185 42 185 92c0 38 -28 69 -124 69h-107c-108 0 -139 -34 -139 -78c0 -49 38 -83 185 -83zM79 116c0 52 37 83 84 85v20c-46 21 -75 73 -75 125c0 82 51 170 205 170c43 0 87 -10 112 -23h20c0 70 49 105 99 105h51v-76h-64c-41 0 -58 -28 -58 -61
c20 -16 46 -61 46 -102c0 -115 -82 -172 -187 -172h-82c-53 0 -76 -22 -76 -54c0 -29 23 -48 76 -48h138c136 0 202 -48 202 -135c0 -95 -89 -160 -266 -160c-178 0 -259 48 -259 130c0 64 59 101 118 103v20c-47 2 -84 27 -84 73zM419 351c0 65 -51 100 -125 100
s-124 -35 -124 -100s50 -99 124 -99s125 34 125 99zM233 679c0 34 26 61 60 61s61 -27 61 -61s-27 -60 -61 -60s-60 26 -60 60z" />
    <glyph glyph-name="hbar" unicode="&#x127;" horiz-adv-x="582" 
d="M20 572v63h70v95h80v-95h130v-63h-130v-145h20c16 48 62 89 147 89c87 0 165 -38 165 -197v-319h-81v300c0 95 -31 146 -114 146c-77 0 -137 -60 -137 -165v-281h-80v572h-70z" />
    <glyph glyph-name="hcircumflex" unicode="&#x125;" horiz-adv-x="582" 
d="M90 0v730h80v-303h20c16 48 62 89 147 89c87 0 165 -38 165 -197v-319h-81v300c0 95 -31 146 -114 146c-77 0 -137 -60 -137 -165v-281h-80zM276 752v-20h-58l-78 85h-20l-78 -85h-58v20l104 143h84z" />
    <glyph glyph-name="dotlessi" unicode="&#x131;" horiz-adv-x="260" 
d="M170 0h-80v506h80v-506z" />
    <glyph glyph-name="ibreve" unicode="&#x12d;" horiz-adv-x="260" 
d="M170 0h-80v506h80v-506zM129 587c-72 0 -139 40 -149 143l63 8c7 -48 32 -86 86 -86s79 38 86 86l63 -8c-10 -103 -77 -143 -149 -143z" />
    <glyph glyph-name="imacron" unicode="&#x12b;" horiz-adv-x="260" 
d="M170 0h-80v506h80v-506zM1 618v67h266v-67h-266z" />
    <glyph glyph-name="iogonek" unicode="&#x12f;" horiz-adv-x="260" 
d="M180 -134l27 -44c-19 -14 -59 -29 -93 -29c-58 0 -106 31 -106 82s43 89 82 112v519h80v-506c-61 -32 -95 -70 -95 -111c0 -27 23 -41 48 -41c20 0 44 8 57 18zM70 679c0 34 26 61 60 61s60 -27 60 -61s-26 -61 -60 -61s-60 27 -60 61z" />
    <glyph glyph-name="itilde" unicode="&#x129;" horiz-adv-x="260" 
d="M170 0h-80v506h80v-506zM199 593c-58 0 -95 62 -132 62c-22 0 -30 -27 -36 -57l-62 10c10 69 39 115 95 115c58 0 95 -62 132 -62c22 0 30 27 36 57l62 -10c-10 -69 -39 -115 -95 -115z" />
    <glyph glyph-name="i.trk" horiz-adv-x="260" 
d="M170 0h-80v506h80v-506zM70 679c0 34 26 61 60 61s60 -27 60 -61s-26 -61 -60 -61s-60 27 -60 61z" />
    <glyph glyph-name="dotlessj" unicode="&#x237;" horiz-adv-x="260" 
d="M-70 -198l19 66c12 -4 31 -8 53 -8c57 0 88 50 88 121v525h80v-524c0 -121 -66 -192 -165 -192c-34 0 -59 6 -75 12z" />
    <glyph glyph-name="jacute" horiz-adv-x="260" 
d="M-70 -198l19 66c12 -4 31 -8 53 -8c57 0 88 50 88 121v525h80v-524c0 -121 -66 -192 -165 -192c-34 0 -59 6 -75 12zM98 583v20l61 143h100v-20l-105 -143h-56z" />
    <glyph glyph-name="jcircumflex" unicode="&#x135;" horiz-adv-x="260" 
d="M-70 -198l19 66c12 -4 31 -8 53 -8c57 0 88 50 88 121v525h80v-524c0 -121 -66 -192 -165 -192c-34 0 -59 6 -75 12zM274 603v-20h-58l-78 85h-20l-78 -85h-58v20l104 143h84z" />
    <glyph glyph-name="iacute" unicode="&#xed;" horiz-adv-x="260" 
d="M170 0h-80v506h80v-506zM98 583v20l61 143h100v-20l-105 -143h-56z" />
    <glyph glyph-name="igrave" unicode="&#xec;" horiz-adv-x="260" 
d="M170 0h-80v506h80v-506zM160 603v-20h-56l-105 143v20h100z" />
    <glyph glyph-name="icircumflex" unicode="&#xee;" horiz-adv-x="260" 
d="M170 0h-80v506h80v-506zM274 603v-20h-58l-78 85h-20l-78 -85h-58v20l104 143h84z" />
    <glyph glyph-name="idieresis" unicode="&#xef;" horiz-adv-x="260" 
d="M170 0h-80v506h80v-506zM-31 662c0 33 26 59 59 59s59 -26 59 -59s-26 -59 -59 -59s-59 26 -59 59zM171 662c0 33 26 59 59 59s59 -26 59 -59s-26 -59 -59 -59s-59 26 -59 59z" />
    <glyph glyph-name="kcommaaccent" unicode="&#x137;" horiz-adv-x="533" 
d="M90 0v730h80v-445h20l234 221h80v-20l-179 -173l180 -293v-20h-82l-157 265l-96 -88v-177h-80zM291 -291l-43 23l42 74v20c-35 0 -58 27 -58 61c0 35 27 62 62 62c34 0 64 -27 64 -76c0 -60 -31 -103 -67 -164z" />
    <glyph glyph-name="kgreenlandic" unicode="&#x138;" horiz-adv-x="540" 
d="M90 0v506h80v-221h20l234 221h80v-20l-179 -173l180 -293v-20h-82l-157 265l-96 -88v-177h-80z" />
    <glyph glyph-name="lacute" unicode="&#x13a;" horiz-adv-x="260" 
d="M170 0h-80v730h80v-730zM90 750v20l61 143h100v-20l-105 -143h-56z" />
    <glyph glyph-name="lcaron" unicode="&#x13e;" horiz-adv-x="379" 
d="M170 0h-80v730h80v-730zM377 730v-20l-61 -163h-40v183h101z" />
    <glyph glyph-name="lslash" unicode="&#x142;" horiz-adv-x="290" 
d="M35 208h-20v61l90 49v412h80v-369l70 39h20v-61l-90 -49v-290h-80v246z" />
    <glyph glyph-name="lcommaaccent" unicode="&#x13c;" horiz-adv-x="260" 
d="M170 0h-80v730h80v-730zM129 -291l-43 23l42 74v20c-35 0 -58 27 -58 61c0 35 27 62 62 62c34 0 64 -27 64 -76c0 -60 -31 -103 -67 -164z" />
    <glyph glyph-name="ldot" unicode="&#x140;" horiz-adv-x="396" 
d="M170 0h-80v730h80v-730zM260 285c0 38 30 68 68 68s68 -30 68 -68s-30 -68 -68 -68s-68 30 -68 68z" />
    <glyph glyph-name="napostrophe" unicode="&#x149;" horiz-adv-x="697" 
d="M205 0v506h80v-79h20c16 48 62 89 147 89c87 0 165 -38 165 -197v-319h-81v300c0 95 -31 146 -114 146c-77 0 -137 -60 -137 -165v-281h-80zM30 665c0 37 29 67 66 67c39 0 69 -30 69 -82c0 -53 -24 -104 -81 -195l-45 27l57 99v19c-37 0 -66 29 -66 65z" />
    <glyph glyph-name="ntilde" unicode="&#xf1;" horiz-adv-x="582" 
d="M90 0v506h80v-79h20c16 48 62 89 147 89c87 0 165 -38 165 -197v-319h-81v300c0 95 -31 146 -114 146c-77 0 -137 -60 -137 -165v-281h-80zM374 593c-58 0 -95 62 -132 62c-22 0 -30 -27 -36 -57l-62 10c10 69 39 115 95 115c58 0 95 -62 132 -62c22 0 30 27 36 57
l62 -10c-10 -69 -39 -115 -95 -115z" />
    <glyph glyph-name="nacute" unicode="&#x144;" horiz-adv-x="582" 
d="M90 0v506h80v-79h20c16 48 62 89 147 89c87 0 165 -38 165 -197v-319h-81v300c0 95 -31 146 -114 146c-77 0 -137 -60 -137 -165v-281h-80zM273 583v20l61 143h100v-20l-105 -143h-56z" />
    <glyph glyph-name="ncaron" unicode="&#x148;" horiz-adv-x="582" 
d="M90 0v506h80v-79h20c16 48 62 89 147 89c87 0 165 -38 165 -197v-319h-81v300c0 95 -31 146 -114 146c-77 0 -137 -60 -137 -165v-281h-80zM450 746v-20l-104 -143h-84l-104 143v20h58l78 -85h20l78 85h58z" />
    <glyph glyph-name="eng" unicode="&#x14b;" horiz-adv-x="582" 
d="M261 -217l19 66c12 -4 31 -8 53 -8c57 0 88 50 88 121v338c0 95 -31 146 -114 146c-77 0 -137 -60 -137 -165v-281h-80v506h80v-79h20c16 48 62 89 147 89c87 0 165 -38 165 -197v-356c0 -121 -67 -192 -166 -192c-34 0 -59 6 -75 12z" />
    <glyph glyph-name="ncommaaccent" unicode="&#x146;" horiz-adv-x="582" 
d="M90 0v506h80v-79h20c16 48 62 89 147 89c87 0 165 -38 165 -197v-319h-81v300c0 95 -31 146 -114 146c-77 0 -137 -60 -137 -165v-281h-80zM292 -291l-43 23l42 74v20c-35 0 -58 27 -58 61c0 35 27 62 62 62c34 0 64 -27 64 -76c0 -60 -31 -103 -67 -164z" />
    <glyph glyph-name="obreve" unicode="&#x14f;" horiz-adv-x="564" 
d="M282 60c100 0 142 78 142 193s-42 193 -142 193s-142 -78 -142 -193s42 -193 142 -193zM282 516c119 0 227 -71 227 -263s-108 -263 -227 -263s-227 71 -227 263s108 263 227 263zM282 587c-72 0 -139 40 -149 143l63 8c7 -48 32 -86 86 -86s79 38 86 86l63 -8
c-10 -103 -77 -143 -149 -143z" />
    <glyph glyph-name="ohungarumlaut" unicode="&#x151;" horiz-adv-x="564" 
d="M282 60c100 0 142 78 142 193s-42 193 -142 193s-142 -78 -142 -193s42 -193 142 -193zM282 516c119 0 227 -71 227 -263s-108 -263 -227 -263s-227 71 -227 263s108 263 227 263zM186 583v20l61 143h86v-20l-93 -143h-54zM319 583v20l61 143h86v-20l-93 -143h-54z" />
    <glyph glyph-name="omacron" unicode="&#x14d;" horiz-adv-x="564" 
d="M282 60c100 0 142 78 142 193s-42 193 -142 193s-142 -78 -142 -193s42 -193 142 -193zM282 516c119 0 227 -71 227 -263s-108 -263 -227 -263s-227 71 -227 263s108 263 227 263zM154 618v67h266v-67h-266z" />
    <glyph glyph-name="oslashacute" unicode="&#x1ff;" horiz-adv-x="564" 
d="M64 -10l49 71c-36 42 -58 104 -58 192c0 192 108 263 227 263c44 0 87 -10 123 -32l36 52h59v-20l-49 -72c35 -42 58 -104 58 -191c0 -192 -108 -263 -227 -263c-44 0 -87 10 -123 31l-35 -51h-60v20zM134 253c0 -50 8 -93 25 -126l207 300c-22 16 -50 25 -84 25
c-103 0 -148 -81 -148 -199zM282 54c103 0 148 81 148 199c0 49 -8 92 -25 125l-206 -300c22 -16 49 -24 83 -24zM251 583v20l61 143h100v-20l-105 -143h-56z" />
    <glyph glyph-name="oslash" unicode="&#xf8;" horiz-adv-x="564" 
d="M64 -10l49 71c-36 42 -58 104 -58 192c0 192 108 263 227 263c44 0 87 -10 123 -32l36 52h59v-20l-49 -72c35 -42 58 -104 58 -191c0 -192 -108 -263 -227 -263c-44 0 -87 10 -123 31l-35 -51h-60v20zM134 253c0 -50 8 -93 25 -126l207 300c-22 16 -50 25 -84 25
c-103 0 -148 -81 -148 -199zM282 54c103 0 148 81 148 199c0 49 -8 92 -25 125l-206 -300c22 -16 49 -24 83 -24z" />
    <glyph glyph-name="oacute" unicode="&#xf3;" horiz-adv-x="564" 
d="M282 60c100 0 142 78 142 193s-42 193 -142 193s-142 -78 -142 -193s42 -193 142 -193zM282 516c119 0 227 -71 227 -263s-108 -263 -227 -263s-227 71 -227 263s108 263 227 263zM251 583v20l61 143h100v-20l-105 -143h-56z" />
    <glyph glyph-name="ograve" unicode="&#xf2;" horiz-adv-x="564" 
d="M282 60c100 0 142 78 142 193s-42 193 -142 193s-142 -78 -142 -193s42 -193 142 -193zM282 516c119 0 227 -71 227 -263s-108 -263 -227 -263s-227 71 -227 263s108 263 227 263zM313 603v-20h-56l-105 143v20h100z" />
    <glyph glyph-name="ocircumflex" unicode="&#xf4;" horiz-adv-x="564" 
d="M282 60c100 0 142 78 142 193s-42 193 -142 193s-142 -78 -142 -193s42 -193 142 -193zM282 516c119 0 227 -71 227 -263s-108 -263 -227 -263s-227 71 -227 263s108 263 227 263zM427 603v-20h-58l-78 85h-20l-78 -85h-58v20l104 143h84z" />
    <glyph glyph-name="odieresis" unicode="&#xf6;" horiz-adv-x="564" 
d="M282 60c100 0 142 78 142 193s-42 193 -142 193s-142 -78 -142 -193s42 -193 142 -193zM282 516c119 0 227 -71 227 -263s-108 -263 -227 -263s-227 71 -227 263s108 263 227 263zM122 662c0 33 26 59 59 59s59 -26 59 -59s-26 -59 -59 -59s-59 26 -59 59zM324 662
c0 33 26 59 59 59s59 -26 59 -59s-26 -59 -59 -59s-59 26 -59 59z" />
    <glyph glyph-name="otilde" unicode="&#xf5;" horiz-adv-x="564" 
d="M282 60c100 0 142 78 142 193s-42 193 -142 193s-142 -78 -142 -193s42 -193 142 -193zM282 516c119 0 227 -71 227 -263s-108 -263 -227 -263s-227 71 -227 263s108 263 227 263zM352 593c-58 0 -95 62 -132 62c-22 0 -30 -27 -36 -57l-62 10c10 69 39 115 95 115
c58 0 95 -62 132 -62c22 0 30 27 36 57l62 -10c-10 -69 -39 -115 -95 -115z" />
    <glyph glyph-name="oe" unicode="&#x153;" horiz-adv-x="915" 
d="M778 133l70 -36c-39 -79 -121 -107 -205 -107c-73 0 -140 29 -177 103c-39 -74 -107 -103 -184 -103c-119 0 -227 71 -227 263s108 263 227 263c77 0 146 -30 184 -104c38 74 106 104 178 104c120 0 216 -64 216 -243v-43h-353c6 -103 50 -171 138 -171
c68 0 110 34 133 74zM282 60c100 0 142 78 142 193s-42 193 -142 193s-142 -78 -142 -193s42 -193 142 -193zM645 447c-85 0 -127 -61 -136 -153h266c0 115 -52 153 -130 153z" />
    <glyph glyph-name="thorn" unicode="&#xfe;" horiz-adv-x="601" 
d="M544 253c0 -170 -80 -263 -202 -263c-80 0 -127 33 -152 96h-20v-286h-80v930h80v-310h20c25 63 72 96 152 96c122 0 202 -93 202 -263zM317 60c100 0 142 78 142 193s-42 193 -142 193s-142 -78 -142 -193s42 -193 142 -193z" />
    <glyph glyph-name="rcaron" unicode="&#x159;" horiz-adv-x="447" 
d="M436 422c-4 -1 -64 -30 -76 -35c-14 38 -40 56 -80 56c-64 0 -110 -72 -110 -182v-261h-80v506h80v-79h20c12 43 48 89 115 89c66 0 111 -31 131 -94zM378 746v-20l-104 -143h-84l-104 143v20h58l78 -85h20l78 85h58z" />
    <glyph glyph-name="racute" unicode="&#x155;" horiz-adv-x="447" 
d="M436 422c-4 -1 -64 -30 -76 -35c-14 38 -40 56 -80 56c-64 0 -110 -72 -110 -182v-261h-80v506h80v-79h20c12 43 48 89 115 89c66 0 111 -31 131 -94zM201 583v20l61 143h100v-20l-105 -143h-56z" />
    <glyph glyph-name="rcommaaccent" unicode="&#x157;" horiz-adv-x="447" 
d="M436 422c-4 -1 -64 -30 -76 -35c-14 38 -40 56 -80 56c-64 0 -110 -72 -110 -182v-261h-80v506h80v-79h20c12 43 48 89 115 89c66 0 111 -31 131 -94zM131 -291l-43 23l42 74v20c-35 0 -58 27 -58 61c0 35 27 62 62 62c34 0 64 -27 64 -76c0 -60 -31 -103 -67 -164z" />
    <glyph glyph-name="sacute" unicode="&#x15b;" horiz-adv-x="516" 
d="M55 119l74 29c14 -53 61 -92 130 -92c82 0 124 35 124 86c0 40 -32 59 -86 69l-88 17c-97 19 -138 64 -138 136c0 93 80 152 192 152c97 0 161 -39 187 -114l-72 -31c-11 41 -50 79 -114 79c-71 0 -115 -31 -115 -80c0 -32 26 -58 85 -69l88 -17c85 -17 139 -53 139 -135
c0 -95 -74 -159 -202 -159c-110 0 -187 50 -204 129zM232 583v20l61 143h100v-20l-105 -143h-56z" />
    <glyph glyph-name="scedilla" unicode="&#x15f;" horiz-adv-x="516" 
d="M55 119l74 29c14 -53 61 -92 130 -92c82 0 124 35 124 86c0 40 -32 59 -86 69l-88 17c-97 19 -138 64 -138 136c0 93 80 152 192 152c97 0 161 -39 187 -114l-72 -31c-11 41 -50 79 -114 79c-71 0 -115 -31 -115 -80c0 -32 26 -58 85 -69l88 -17c85 -17 139 -53 139 -135
c0 -93 -70 -155 -192 -159l-31 -49c20 9 31 9 46 9c49 0 84 -26 84 -72c0 -52 -42 -85 -112 -85c-49 0 -92 19 -110 32l27 44c19 -12 47 -25 84 -25c30 0 50 11 50 34c0 20 -18 31 -45 31c-14 0 -36 -6 -52 -22l-40 29l48 77c-88 10 -148 57 -163 126z" />
    <glyph glyph-name="scaron" unicode="&#x161;" horiz-adv-x="516" 
d="M55 119l74 29c14 -53 61 -92 130 -92c82 0 124 35 124 86c0 40 -32 59 -86 69l-88 17c-97 19 -138 64 -138 136c0 93 80 152 192 152c97 0 161 -39 187 -114l-72 -31c-11 41 -50 79 -114 79c-71 0 -115 -31 -115 -80c0 -32 26 -58 85 -69l88 -17c85 -17 139 -53 139 -135
c0 -95 -74 -159 -202 -159c-110 0 -187 50 -204 129zM409 746v-20l-104 -143h-84l-104 143v20h58l78 -85h20l78 85h58z" />
    <glyph glyph-name="scircumflex" unicode="&#x15d;" horiz-adv-x="516" 
d="M55 119l74 29c14 -53 61 -92 130 -92c82 0 124 35 124 86c0 40 -32 59 -86 69l-88 17c-97 19 -138 64 -138 136c0 93 80 152 192 152c97 0 161 -39 187 -114l-72 -31c-11 41 -50 79 -114 79c-71 0 -115 -31 -115 -80c0 -32 26 -58 85 -69l88 -17c85 -17 139 -53 139 -135
c0 -95 -74 -159 -202 -159c-110 0 -187 50 -204 129zM408 603v-20h-58l-78 85h-20l-78 -85h-58v20l104 143h84z" />
    <glyph glyph-name="scommaaccent" unicode="&#x219;" horiz-adv-x="516" 
d="M55 119l74 29c14 -53 61 -92 130 -92c82 0 124 35 124 86c0 40 -32 59 -86 69l-88 17c-97 19 -138 64 -138 136c0 93 80 152 192 152c97 0 161 -39 187 -114l-72 -31c-11 41 -50 79 -114 79c-71 0 -115 -31 -115 -80c0 -32 26 -58 85 -69l88 -17c85 -17 139 -53 139 -135
c0 -95 -74 -159 -202 -159c-110 0 -187 50 -204 129zM259 -291l-43 23l42 74v20c-35 0 -58 27 -58 61c0 35 27 62 62 62c34 0 64 -27 64 -76c0 -60 -31 -103 -67 -164z" />
    <glyph glyph-name="tbar" unicode="&#x167;" horiz-adv-x="431" 
d="M40 264v64h99v112h-99v66h99v194h80v-194h172v-66h-172v-112h172v-64h-172v-111c0 -60 23 -92 74 -92c33 0 56 10 78 24l32 -61c-27 -18 -69 -33 -120 -33c-103 0 -144 61 -144 161v112h-99z" />
    <glyph glyph-name="tcaron" unicode="&#x165;" horiz-adv-x="416" 
d="M131 700h80v-194h172v-66h-172v-287c0 -60 23 -92 74 -92c33 0 56 10 78 24l32 -61c-27 -18 -69 -33 -120 -33c-103 0 -144 61 -144 161v288h-99v66h99v194zM378 750v-20l-61 -163h-40v183h101z" />
    <glyph glyph-name="tcommaaccent" unicode="&#x163;" horiz-adv-x="416" 
d="M131 700h80v-194h172v-66h-172v-287c0 -60 23 -92 74 -92c33 0 56 10 78 24l32 -61c-27 -18 -69 -33 -120 -33c-6 0 -11 0 -17 1l-32 -51c20 9 31 9 46 9c49 0 84 -26 84 -72c0 -52 -42 -85 -112 -85c-49 0 -92 19 -110 32l27 44c19 -12 47 -25 84 -25c30 0 50 11 50 34
c0 20 -18 31 -45 31c-14 0 -36 -6 -52 -22l-40 29l53 85c-57 21 -80 75 -80 151v288h-99v66h99v194z" />
    <glyph glyph-name="uni021B" unicode="&#x21b;" horiz-adv-x="416" 
d="M131 700h80v-194h172v-66h-172v-287c0 -60 23 -92 74 -92c33 0 56 10 78 24l32 -61c-27 -18 -69 -33 -120 -33c-103 0 -144 61 -144 161v288h-99v66h99v194zM233 -291l-43 23l42 74v20c-35 0 -58 27 -58 61c0 35 27 62 62 62c34 0 64 -27 64 -76c0 -60 -31 -103 -67 -164
z" />
    <glyph glyph-name="uhungarumlaut" unicode="&#x171;" horiz-adv-x="572" 
d="M482 506v-506h-80v79h-20c-15 -48 -60 -89 -142 -89c-84 0 -160 38 -160 197v319h81v-300c0 -95 30 -146 109 -146c74 0 132 60 132 165v281h80zM184 583v20l61 143h86v-20l-93 -143h-54zM317 583v20l61 143h86v-20l-93 -143h-54z" />
    <glyph glyph-name="ubreve" unicode="&#x16d;" horiz-adv-x="572" 
d="M482 506v-506h-80v79h-20c-15 -48 -60 -89 -142 -89c-84 0 -160 38 -160 197v319h81v-300c0 -95 30 -146 109 -146c74 0 132 60 132 165v281h80zM280 587c-72 0 -139 40 -149 143l63 8c7 -48 32 -86 86 -86s79 38 86 86l63 -8c-10 -103 -77 -143 -149 -143z" />
    <glyph glyph-name="umacron" unicode="&#x16b;" horiz-adv-x="572" 
d="M482 506v-506h-80v79h-20c-15 -48 -60 -89 -142 -89c-84 0 -160 38 -160 197v319h81v-300c0 -95 30 -146 109 -146c74 0 132 60 132 165v281h80zM152 618v67h266v-67h-266z" />
    <glyph glyph-name="uogonek" unicode="&#x173;" horiz-adv-x="572" 
d="M492 -134l27 -44c-19 -14 -59 -29 -93 -29c-58 0 -106 31 -106 82s43 89 82 112v92h-20c-15 -48 -60 -89 -142 -89c-84 0 -160 38 -160 197v319h81v-300c0 -95 30 -146 109 -146c74 0 132 60 132 165v281h80v-506c-61 -32 -95 -70 -95 -111c0 -27 23 -41 48 -41
c20 0 44 8 57 18z" />
    <glyph glyph-name="uring" unicode="&#x16f;" horiz-adv-x="572" 
d="M482 506v-506h-80v79h-20c-15 -48 -60 -89 -142 -89c-84 0 -160 38 -160 197v319h81v-300c0 -95 30 -146 109 -146c74 0 132 60 132 165v281h80zM169 689c0 62 47 107 111 107s111 -45 111 -107s-47 -107 -111 -107s-111 45 -111 107zM223 689c0 -34 25 -61 57 -61
s57 27 57 61c0 35 -25 61 -57 61s-57 -26 -57 -61z" />
    <glyph glyph-name="utilde" unicode="&#x169;" horiz-adv-x="572" 
d="M482 506v-506h-80v79h-20c-15 -48 -60 -89 -142 -89c-84 0 -160 38 -160 197v319h81v-300c0 -95 30 -146 109 -146c74 0 132 60 132 165v281h80zM350 593c-58 0 -95 62 -132 62c-22 0 -30 -27 -36 -57l-62 10c10 69 39 115 95 115c58 0 95 -62 132 -62c22 0 30 27 36 57
l62 -10c-10 -69 -39 -115 -95 -115z" />
    <glyph glyph-name="uacute" unicode="&#xfa;" horiz-adv-x="572" 
d="M482 506v-506h-80v79h-20c-15 -48 -60 -89 -142 -89c-84 0 -160 38 -160 197v319h81v-300c0 -95 30 -146 109 -146c74 0 132 60 132 165v281h80zM249 583v20l61 143h100v-20l-105 -143h-56z" />
    <glyph glyph-name="ugrave" unicode="&#xf9;" horiz-adv-x="572" 
d="M482 506v-506h-80v79h-20c-15 -48 -60 -89 -142 -89c-84 0 -160 38 -160 197v319h81v-300c0 -95 30 -146 109 -146c74 0 132 60 132 165v281h80zM311 603v-20h-56l-105 143v20h100z" />
    <glyph glyph-name="ucircumflex" unicode="&#xfb;" horiz-adv-x="572" 
d="M482 506v-506h-80v79h-20c-15 -48 -60 -89 -142 -89c-84 0 -160 38 -160 197v319h81v-300c0 -95 30 -146 109 -146c74 0 132 60 132 165v281h80zM425 603v-20h-58l-78 85h-20l-78 -85h-58v20l104 143h84z" />
    <glyph glyph-name="udieresis" unicode="&#xfc;" horiz-adv-x="572" 
d="M482 506v-506h-80v79h-20c-15 -48 -60 -89 -142 -89c-84 0 -160 38 -160 197v319h81v-300c0 -95 30 -146 109 -146c74 0 132 60 132 165v281h80zM120 662c0 33 26 59 59 59s59 -26 59 -59s-26 -59 -59 -59s-59 26 -59 59zM322 662c0 33 26 59 59 59s59 -26 59 -59
s-26 -59 -59 -59s-59 26 -59 59z" />
    <glyph glyph-name="wacute" unicode="&#x1e83;" horiz-adv-x="767" 
d="M727 506v-20l-136 -486h-89l-107 384h-20l-108 -384h-90l-137 486v20h70l104 -389h20l109 389h82l114 -389h20l98 389h70zM355 583v20l61 143h100v-20l-105 -143h-56z" />
    <glyph glyph-name="wcircumflex" unicode="&#x175;" horiz-adv-x="767" 
d="M727 506v-20l-136 -486h-89l-107 384h-20l-108 -384h-90l-137 486v20h70l104 -389h20l109 389h82l114 -389h20l98 389h70zM531 603v-20h-58l-78 85h-20l-78 -85h-58v20l104 143h84z" />
    <glyph glyph-name="wdieresis" unicode="&#x1e85;" horiz-adv-x="767" 
d="M727 506v-20l-136 -486h-89l-107 384h-20l-108 -384h-90l-137 486v20h70l104 -389h20l109 389h82l114 -389h20l98 389h70zM226 662c0 33 26 59 59 59s59 -26 59 -59s-26 -59 -59 -59s-59 26 -59 59zM428 662c0 33 26 59 59 59s59 -26 59 -59s-26 -59 -59 -59
s-59 26 -59 59z" />
    <glyph glyph-name="wgrave" unicode="&#x1e81;" horiz-adv-x="767" 
d="M727 506v-20l-136 -486h-89l-107 384h-20l-108 -384h-90l-137 486v20h70l104 -389h20l109 389h82l114 -389h20l98 389h70zM417 603v-20h-56l-105 143v20h100z" />
    <glyph glyph-name="uni1E8B" unicode="&#x1e8b;" horiz-adv-x="531" 
d="M45 0v20l174 241l-160 225v20h75l123 -177h20l120 177h73v-20l-157 -224l173 -242v-20h-77l-133 194h-20l-135 -194h-76zM204 679c0 34 26 61 60 61s61 -27 61 -61s-27 -60 -61 -60s-60 26 -60 60z" />
    <glyph glyph-name="ycircumflex" unicode="&#x177;" horiz-adv-x="531" 
d="M226 -10l-191 496v20h76l146 -399h20l145 399h74v-20l-201 -522c-47 -122 -116 -174 -203 -174c-49 0 -91 13 -114 29l34 66c18 -13 49 -25 79 -25c63 0 109 63 135 130zM411 603v-20h-58l-78 85h-20l-78 -85h-58v20l104 143h84z" />
    <glyph glyph-name="ydieresis" unicode="&#xff;" horiz-adv-x="531" 
d="M226 -10l-191 496v20h76l146 -399h20l145 399h74v-20l-201 -522c-47 -122 -116 -174 -203 -174c-49 0 -91 13 -114 29l34 66c18 -13 49 -25 79 -25c63 0 109 63 135 130zM106 662c0 33 26 59 59 59s59 -26 59 -59s-26 -59 -59 -59s-59 26 -59 59zM308 662
c0 33 26 59 59 59s59 -26 59 -59s-26 -59 -59 -59s-59 26 -59 59z" />
    <glyph glyph-name="yacute" unicode="&#xfd;" horiz-adv-x="531" 
d="M226 -10l-191 496v20h76l146 -399h20l145 399h74v-20l-201 -522c-47 -122 -116 -174 -203 -174c-49 0 -91 13 -114 29l34 66c18 -13 49 -25 79 -25c63 0 109 63 135 130zM235 583v20l61 143h100v-20l-105 -143h-56z" />
    <glyph glyph-name="ygrave" unicode="&#x1ef3;" horiz-adv-x="531" 
d="M226 -10l-191 496v20h76l146 -399h20l145 399h74v-20l-201 -522c-47 -122 -116 -174 -203 -174c-49 0 -91 13 -114 29l34 66c18 -13 49 -25 79 -25c63 0 109 63 135 130zM297 603v-20h-56l-105 143v20h100z" />
    <glyph glyph-name="zacute" unicode="&#x17a;" horiz-adv-x="498" 
d="M165 94v-25h273v-69h-378v89l272 323v25h-264v69h365v-93zM224 583v20l61 143h100v-20l-105 -143h-56z" />
    <glyph glyph-name="zdotaccent" unicode="&#x17c;" horiz-adv-x="498" 
d="M165 94v-25h273v-69h-378v89l272 323v25h-264v69h365v-93zM195 679c0 34 26 61 60 61s61 -27 61 -61s-27 -60 -61 -60s-60 26 -60 60z" />
    <glyph glyph-name="zcaron" unicode="&#x17e;" horiz-adv-x="498" 
d="M165 94v-25h273v-69h-378v89l272 323v25h-264v69h365v-93zM401 746v-20l-104 -143h-84l-104 143v20h58l78 -85h20l78 85h58z" />
    <glyph glyph-name="uni01B6" unicode="&#x1b6;" horiz-adv-x="498" 
d="M93 221v63h131l108 128v25h-264v69h365v-93l-109 -129h82v-63h-135l-106 -127v-25h273v-69h-378v89l111 132h-78z" />
    <glyph glyph-name="infinity" unicode="&#x221e;" 
d="M314 252h-20c-28 -38 -67 -68 -122 -68c-86 0 -138 58 -138 136c0 77 52 135 138 135c57 0 94 -31 122 -69h20c28 37 66 69 123 69c86 0 138 -58 138 -135c0 -78 -52 -136 -138 -136c-58 0 -95 30 -123 68zM435 398c-43 0 -73 -36 -97 -79c24 -42 54 -78 97 -78
c48 0 75 37 75 79c0 41 -27 78 -75 78zM174 241c42 0 72 36 96 79c-24 42 -54 78 -96 78c-47 0 -75 -37 -75 -78s28 -79 75 -79z" />
    <glyph glyph-name="ringacute" 
d="M409 872v-20l-78 -39v-20c51 -9 85 -53 85 -104c0 -62 -47 -107 -111 -107s-111 45 -111 107c0 27 10 50 25 69l86 114h104zM248 689c0 -34 25 -61 57 -61s57 27 57 61c0 35 -25 61 -57 61s-57 -26 -57 -61z" />
    <glyph glyph-name="commaaccent" unicode="&#xf6c3;" 
d="M300 -291l-43 23l42 74v20c-35 0 -58 27 -58 61c0 35 27 62 62 62c34 0 64 -27 64 -76c0 -60 -31 -103 -67 -164z" />
    <glyph glyph-name="commatop" 
d="M308 812l43 -23l-42 -74v-20c35 0 58 -27 58 -61c0 -35 -27 -62 -62 -62c-34 0 -64 27 -64 76c0 60 31 103 67 164z" />
    <glyph glyph-name="caron.slovak" 
d="M366 666v-20l-61 -163h-40v183h101z" />
    <glyph glyph-name="lozenge" unicode="&#x25ca;" 
d="M580 345v-25l-228 -320h-98l-224 320v25l224 321h98zM311 83l175 249l-175 251h-20l-173 -251l173 -249h20z" />
    <glyph glyph-name="logicalnot" unicode="&#xac;" 
d="M106 257v71h397v-224h-71v153h-326z" />
    <glyph glyph-name="radical" unicode="&#x221a;" 
d="M589 666v-20l-258 -646h-92l-195 486v20h77l155 -402h21l217 562h75z" />
    <glyph glyph-name="AEacute" unicode="&#x1fc;" horiz-adv-x="974" 
d="M470 0v162h-301l-59 -162h-70v25l237 641h619v-73h-343v-214h298v-72h-298v-234h351v-73h-434zM328 593l-132 -359h274v359h-142zM490 703v20l61 143h100v-20l-105 -143h-56z" />
    <glyph glyph-name="florin" unicode="&#x192;" horiz-adv-x="439" 
d="M40 367h120v175c0 138 56 198 162 198c43 0 82 -10 117 -33l-33 -62c-23 17 -48 25 -75 25c-64 0 -91 -27 -91 -128v-175h133v-68h-133v-336c0 -121 -66 -192 -165 -192c-34 0 -59 6 -75 12l19 66c12 -4 31 -8 53 -8c57 0 88 50 88 121v337h-120v68z" />
    <glyph glyph-name="currency" unicode="&#xa4;" 
d="M465 107l-64 63c-28 -16 -62 -25 -97 -25c-33 0 -65 8 -92 23l-61 -61l-42 42l56 56c-25 30 -40 70 -40 119c0 48 15 87 39 117l-55 56l42 42l58 -59c28 16 61 25 95 25c36 0 71 -9 100 -27l61 61l42 -42l-59 -59c22 -30 36 -68 36 -114c0 -47 -14 -86 -37 -115l60 -60z
M304 206c67 0 113 47 113 119c0 71 -47 119 -112 119c-66 0 -112 -48 -112 -119c0 -72 47 -119 111 -119z" />
    <glyph glyph-name="uni00AD" unicode="&#xad;" horiz-adv-x="343" 
d="M55 245v89h233v-89h-233z" />
    <glyph glyph-name="uni00A0" unicode="&#xa0;" horiz-adv-x="250" 
 />
    <glyph glyph-name="mu" unicode="&#xb5;" horiz-adv-x="582" 
d="M90 -200v706h81v-300c0 -95 30 -146 109 -146c74 0 132 60 132 165v281h80v-506h-80v79h-20c-16 -47 -63 -89 -142 -89c-29 0 -56 5 -80 16v-206h-80z" />
    <glyph glyph-name="product" unicode="&#x220f;" horiz-adv-x="680" 
d="M90 0v666h500v-666h-83v593h-334v-593h-83z" />
    <glyph glyph-name="pi" unicode="&#x3c0;" 
d="M470 435v-435h-80v435h-171v-435h-80v435h-84v71h499v-71h-84z" />
    <glyph glyph-name="Omega" unicode="&#x2126;" horiz-adv-x="718" 
d="M359 603c-140 0 -205 -103 -205 -270c0 -131 38 -236 153 -267v-66h-257v66h122v20c-70 48 -106 121 -106 247c0 224 114 343 293 343s293 -119 293 -343c0 -126 -36 -199 -106 -247v-20h122v-66h-257v66c115 31 153 136 153 267c0 167 -65 270 -205 270z" />
    <glyph glyph-name="integral" unicode="&#x222b;" 
d="M326 542v-579c0 -121 -66 -192 -165 -192c-34 0 -59 6 -75 12l19 66c12 -4 31 -8 53 -8c57 0 88 50 88 121v580c0 138 56 198 162 198c43 0 82 -10 117 -33l-33 -62c-23 17 -48 25 -75 25c-64 0 -91 -27 -91 -128z" />
    <glyph glyph-name="ordfeminine" unicode="&#xaa;" horiz-adv-x="470" 
d="M334 434v31l-65 -4c-79 -5 -122 -29 -122 -80c0 -44 24 -66 75 -66c74 0 112 59 112 119zM157 558l-63 25c21 55 71 93 155 93c91 0 149 -38 149 -144v-266h-60v58h-20c-13 -34 -45 -66 -108 -66c-82 0 -131 47 -131 123c0 87 68 127 183 134l72 5v11c0 62 -35 86 -85 86
c-55 0 -79 -33 -92 -59z" />
    <glyph glyph-name="ordmasculine" unicode="&#xba;" horiz-adv-x="470" 
d="M125 468c0 -89 30 -149 110 -149c77 0 110 60 110 149s-33 149 -110 149c-80 0 -110 -60 -110 -149zM54 468c0 152 87 208 181 208s181 -56 181 -208s-87 -208 -181 -208s-181 56 -181 208z" />
    <glyph glyph-name="uni2070" unicode="&#x2070;" horiz-adv-x="390" 
d="M195 617c-42 0 -69 -36 -69 -143c0 -105 27 -141 69 -141c44 0 70 36 70 141c0 107 -26 143 -70 143zM195 277c-79 0 -142 50 -142 197c0 149 63 199 142 199s142 -50 142 -199c0 -147 -63 -197 -142 -197z" />
    <glyph glyph-name="onesuperior" unicode="&#xb9;" horiz-adv-x="390" 
d="M259 285h-69v276h-20l-50 -42l-39 45l115 102h63v-381z" />
    <glyph glyph-name="twosuperior" unicode="&#xb2;" horiz-adv-x="390" 
d="M177 347h141v-62h-243v56l131 143c25 28 41 53 41 80c0 32 -19 53 -51 53c-35 0 -55 -30 -63 -63l-63 20c8 42 44 99 128 99c76 0 118 -46 118 -104c0 -45 -28 -86 -59 -118l-80 -84v-20z" />
    <glyph glyph-name="threesuperior" unicode="&#xb3;" horiz-adv-x="390" 
d="M196 277c-97 0 -129 57 -137 99l66 20c8 -33 26 -63 69 -63c35 0 59 25 59 63c0 39 -24 58 -67 58h-23v52h20c45 0 62 27 62 58c0 33 -20 53 -51 53c-35 0 -54 -30 -62 -63l-63 20c8 42 43 99 127 99c79 0 119 -49 119 -105c0 -35 -20 -68 -53 -75v-20
c33 -2 64 -34 64 -81c0 -63 -45 -115 -130 -115z" />
    <glyph glyph-name="uni2074" unicode="&#x2074;" horiz-adv-x="390" 
d="M53 418l127 248h108v-251h49v-56h-49v-74h-62v74h-173v59zM226 599h-20l-77 -164v-20h97v184z" />
    <glyph glyph-name="uni2075" unicode="&#x2075;" horiz-adv-x="390" 
d="M196 277c-97 0 -129 57 -137 99l66 20c8 -33 28 -62 71 -62c37 0 59 32 59 76c0 40 -19 73 -57 73c-32 0 -51 -18 -62 -41h-61l20 224h206v-59h-150l-10 -94h20c15 14 32 23 56 23c51 0 108 -33 108 -126c0 -76 -49 -133 -129 -133z" />
    <glyph glyph-name="uni2077" unicode="&#x2077;" horiz-adv-x="390" 
d="M63 552v114h263v-72c-53 -27 -118 -122 -118 -309h-76c0 165 67 269 114 299v20h-123v-52h-60z" />
    <glyph glyph-name="uni2076" unicode="&#x2076;" horiz-adv-x="390" 
d="M259 409c0 44 -23 72 -60 72c-36 0 -64 -26 -64 -73c0 -43 28 -75 64 -75c37 0 60 33 60 76zM126 500h20c13 19 37 37 72 37c63 0 112 -43 112 -127c0 -83 -58 -133 -131 -133c-84 0 -140 60 -140 198c0 137 56 198 144 198c68 0 106 -40 117 -75l-58 -28
c-12 32 -31 47 -61 47c-39 0 -75 -42 -75 -117z" />
    <glyph glyph-name="uni2078" unicode="&#x2078;" horiz-adv-x="390" 
d="M195 329c42 0 66 25 66 64c0 38 -25 64 -66 64s-66 -26 -66 -64c0 -39 24 -64 66 -64zM195 507c35 0 57 26 57 57c0 33 -22 56 -57 56s-57 -23 -57 -56c0 -31 22 -57 57 -57zM195 276c-87 0 -135 47 -135 113c0 41 28 79 64 84v19c-33 7 -53 43 -53 76
c0 58 47 105 124 105s124 -47 124 -105c0 -33 -20 -69 -53 -76v-19c36 -5 64 -43 64 -84c0 -66 -48 -113 -135 -113z" />
    <glyph glyph-name="uni2079" unicode="&#x2079;" horiz-adv-x="390" 
d="M130 541c0 -44 23 -72 60 -72c36 0 64 26 64 73c0 43 -28 75 -64 75c-37 0 -60 -33 -60 -76zM263 450h-20c-13 -19 -37 -37 -72 -37c-63 0 -112 43 -112 127c0 83 58 133 131 133c84 0 140 -60 140 -198c0 -137 -56 -198 -144 -198c-68 0 -106 40 -117 75l58 28
c12 -32 31 -47 61 -47c39 0 75 42 75 117z" />
    <glyph glyph-name="parenleft.subs" horiz-adv-x="390" 
d="M190 190c0 -88 31 -153 88 -158v-52c-93 0 -166 75 -166 210s73 211 166 211v-52c-57 -4 -88 -67 -88 -159z" />
    <glyph glyph-name="parenright.subs" horiz-adv-x="390" 
d="M200 190c0 92 -31 155 -88 159v52c93 0 166 -76 166 -211s-73 -210 -166 -210v52c57 5 88 70 88 158z" />
    <glyph glyph-name="uni2080" unicode="&#x2080;" horiz-adv-x="390" 
d="M195 332c-42 0 -69 -36 -69 -143c0 -105 27 -141 69 -141c44 0 70 36 70 141c0 107 -26 143 -70 143zM195 -8c-79 0 -142 50 -142 197c0 149 63 199 142 199s142 -50 142 -199c0 -147 -63 -197 -142 -197z" />
    <glyph glyph-name="uni2081" unicode="&#x2081;" horiz-adv-x="390" 
d="M259 0h-69v276h-20l-50 -42l-39 45l115 102h63v-381z" />
    <glyph glyph-name="uni2082" unicode="&#x2082;" horiz-adv-x="390" 
d="M177 62h141v-62h-243v56l131 143c25 28 41 53 41 80c0 32 -19 53 -51 53c-35 0 -55 -30 -63 -63l-63 20c8 42 44 99 128 99c76 0 118 -46 118 -104c0 -45 -28 -86 -59 -118l-80 -84v-20z" />
    <glyph glyph-name="uni2083" unicode="&#x2083;" horiz-adv-x="390" 
d="M196 -8c-97 0 -129 57 -137 99l66 20c8 -33 26 -63 69 -63c35 0 59 25 59 63c0 39 -24 58 -67 58h-23v52h20c45 0 62 27 62 58c0 33 -20 53 -51 53c-35 0 -54 -30 -62 -63l-63 20c8 42 43 99 127 99c79 0 119 -49 119 -105c0 -35 -20 -68 -53 -75v-20
c33 -2 64 -34 64 -81c0 -63 -45 -115 -130 -115z" />
    <glyph glyph-name="uni2084" unicode="&#x2084;" horiz-adv-x="390" 
d="M53 133l127 248h108v-251h49v-56h-49v-74h-62v74h-173v59zM226 314h-20l-77 -164v-20h97v184z" />
    <glyph glyph-name="uni2085" unicode="&#x2085;" horiz-adv-x="390" 
d="M196 -8c-97 0 -129 57 -137 99l66 20c8 -33 28 -62 71 -62c37 0 59 32 59 76c0 40 -19 73 -57 73c-32 0 -51 -18 -62 -41h-61l20 224h206v-59h-150l-10 -94h20c15 14 32 23 56 23c51 0 108 -33 108 -126c0 -76 -49 -133 -129 -133z" />
    <glyph glyph-name="uni2086" unicode="&#x2086;" horiz-adv-x="390" 
d="M259 124c0 44 -23 72 -60 72c-36 0 -64 -26 -64 -73c0 -43 28 -75 64 -75c37 0 60 33 60 76zM126 215h20c13 19 37 37 72 37c63 0 112 -43 112 -127c0 -83 -58 -133 -131 -133c-84 0 -140 60 -140 198c0 137 56 198 144 198c68 0 106 -40 117 -75l-58 -28
c-12 32 -31 47 -61 47c-39 0 -75 -42 -75 -117z" />
    <glyph glyph-name="uni2087" unicode="&#x2087;" horiz-adv-x="390" 
d="M63 267v114h263v-72c-53 -27 -118 -122 -118 -309h-76c0 165 67 269 114 299v20h-123v-52h-60z" />
    <glyph glyph-name="uni2088" unicode="&#x2088;" horiz-adv-x="390" 
d="M195 45c42 0 66 25 66 64c0 38 -25 64 -66 64s-66 -26 -66 -64c0 -39 24 -64 66 -64zM195 223c35 0 57 26 57 57c0 33 -22 56 -57 56s-57 -23 -57 -56c0 -31 22 -57 57 -57zM195 -8c-87 0 -135 47 -135 113c0 41 28 79 64 84v19c-33 7 -53 43 -53 76c0 58 47 105 124 105
s124 -47 124 -105c0 -33 -20 -69 -53 -76v-19c36 -5 64 -43 64 -84c0 -66 -48 -113 -135 -113z" />
    <glyph glyph-name="uni2089" unicode="&#x2089;" horiz-adv-x="390" 
d="M130 256c0 -44 23 -72 60 -72c36 0 64 26 64 73c0 43 -28 75 -64 75c-37 0 -60 -33 -60 -76zM263 165h-20c-13 -19 -37 -37 -72 -37c-63 0 -112 43 -112 127c0 83 58 133 131 133c84 0 140 -60 140 -198c0 -137 -56 -198 -144 -198c-68 0 -106 40 -117 75l58 28
c12 -32 31 -47 61 -47c39 0 75 42 75 117z" />
    <glyph glyph-name="parenleft.sups" unicode="&#x207d;" horiz-adv-x="390" 
d="M190 475c0 -88 31 -153 88 -158v-52c-93 0 -166 75 -166 210s73 211 166 211v-52c-57 -4 -88 -67 -88 -159z" />
    <glyph glyph-name="parenright.sups" unicode="&#x207e;" horiz-adv-x="390" 
d="M200 475c0 92 -31 155 -88 159v52c93 0 166 -76 166 -211s-73 -210 -166 -210v52c57 5 88 70 88 158z" />
    <glyph glyph-name="fraction" unicode="&#x2044;" horiz-adv-x="315" 
d="M-36 0h-64v20l451 646h64v-20z" />
    <glyph glyph-name="onehalf" unicode="&#xbd;" horiz-adv-x="860" 
d="M240 0h-64v20l451 646h64v-20zM653 62h141v-62h-243v56l131 143c25 28 41 53 41 80c0 32 -19 53 -51 53c-35 0 -55 -30 -63 -63l-63 20c8 42 44 99 128 99c76 0 118 -46 118 -104c0 -45 -28 -86 -59 -118l-80 -84v-20zM244 285h-69v276h-20l-50 -42l-39 45l115 102h63
v-381z" />
    <glyph glyph-name="onequarter" unicode="&#xbc;" horiz-adv-x="860" 
d="M240 0h-64v20l451 646h64v-20zM244 285h-69v276h-20l-50 -42l-39 45l115 102h63v-381zM507 133l127 248h108v-251h49v-56h-49v-74h-62v74h-173v59zM680 314h-20l-77 -164v-20h97v184z" />
    <glyph glyph-name="threequarters" unicode="&#xbe;" horiz-adv-x="860" 
d="M191 277c-97 0 -129 57 -137 99l66 20c8 -33 26 -63 69 -63c35 0 59 25 59 63c0 39 -24 58 -67 58h-23v52h20c45 0 62 27 62 58c0 33 -20 53 -51 53c-35 0 -54 -30 -62 -63l-63 20c8 42 43 99 127 99c79 0 119 -49 119 -105c0 -35 -20 -68 -53 -75v-20
c33 -2 64 -34 64 -81c0 -63 -45 -115 -130 -115zM240 0h-64v20l451 646h64v-20zM507 133l127 248h108v-251h49v-56h-49v-74h-62v74h-173v59zM680 314h-20l-77 -164v-20h97v184z" />
    <glyph glyph-name="uni2153" unicode="&#x2153;" horiz-adv-x="860" 
d="M677 -8c-97 0 -129 57 -137 99l66 20c8 -33 26 -63 69 -63c35 0 59 25 59 63c0 39 -24 58 -67 58h-23v52h20c45 0 62 27 62 58c0 33 -20 53 -51 53c-35 0 -54 -30 -62 -63l-63 20c8 42 43 99 127 99c79 0 119 -49 119 -105c0 -35 -20 -68 -53 -75v-20
c33 -2 64 -34 64 -81c0 -63 -45 -115 -130 -115zM244 285h-69v276h-20l-50 -42l-39 45l115 102h63v-381zM240 0h-64v20l451 646h64v-20z" />
    <glyph glyph-name="uni2155" unicode="&#x2155;" horiz-adv-x="860" 
d="M677 -8c-97 0 -129 57 -137 99l66 20c8 -33 26 -63 69 -63c35 0 59 25 59 63c0 39 -24 58 -67 58h-23v52h20c45 0 62 27 62 58c0 33 -20 53 -51 53c-35 0 -54 -30 -62 -63l-63 20c8 42 43 99 127 99c79 0 119 -49 119 -105c0 -35 -20 -68 -53 -75v-20
c33 -2 64 -34 64 -81c0 -63 -45 -115 -130 -115zM160 347h141v-62h-243v56l131 143c25 28 41 53 41 80c0 32 -19 53 -51 53c-35 0 -55 -30 -63 -63l-63 20c8 42 44 99 128 99c76 0 118 -46 118 -104c0 -45 -28 -86 -59 -118l-80 -84v-20zM240 0h-64v20l451 646h64v-20z" />
    <glyph glyph-name="uni2154" unicode="&#x2154;" horiz-adv-x="860" 
d="M244 285h-69v276h-20l-50 -42l-39 45l115 102h63v-381zM240 0h-64v20l451 646h64v-20zM682 -8c-97 0 -129 57 -137 99l66 20c8 -33 28 -62 71 -62c37 0 59 32 59 76c0 40 -19 73 -57 73c-32 0 -51 -18 -62 -41h-61l20 224h206v-59h-150l-10 -94h20c15 14 32 23 56 23
c51 0 108 -33 108 -126c0 -76 -49 -133 -129 -133z" />
    <glyph glyph-name="uni2156" unicode="&#x2156;" horiz-adv-x="860" 
d="M240 0h-64v20l451 646h64v-20zM160 347h141v-62h-243v56l131 143c25 28 41 53 41 80c0 32 -19 53 -51 53c-35 0 -55 -30 -63 -63l-63 20c8 42 44 99 128 99c76 0 118 -46 118 -104c0 -45 -28 -86 -59 -118l-80 -84v-20zM682 -8c-97 0 -129 57 -137 99l66 20
c8 -33 28 -62 71 -62c37 0 59 32 59 76c0 40 -19 73 -57 73c-32 0 -51 -18 -62 -41h-61l20 224h206v-59h-150l-10 -94h20c15 14 32 23 56 23c51 0 108 -33 108 -126c0 -76 -49 -133 -129 -133z" />
    <glyph glyph-name="uni2157" unicode="&#x2157;" horiz-adv-x="860" 
d="M186 277c-97 0 -129 57 -137 99l66 20c8 -33 26 -63 69 -63c35 0 59 25 59 63c0 39 -24 58 -67 58h-23v52h20c45 0 62 27 62 58c0 33 -20 53 -51 53c-35 0 -54 -30 -62 -63l-63 20c8 42 43 99 127 99c79 0 119 -49 119 -105c0 -35 -20 -68 -53 -75v-20
c33 -2 64 -34 64 -81c0 -63 -45 -115 -130 -115zM240 0h-64v20l451 646h64v-20zM682 -8c-97 0 -129 57 -137 99l66 20c8 -33 28 -62 71 -62c37 0 59 32 59 76c0 40 -19 73 -57 73c-32 0 -51 -18 -62 -41h-61l20 224h206v-59h-150l-10 -94h20c15 14 32 23 56 23
c51 0 108 -33 108 -126c0 -76 -49 -133 -129 -133z" />
    <glyph glyph-name="uni2158" unicode="&#x2158;" horiz-adv-x="860" 
d="M240 0h-64v20l451 646h64v-20zM682 -8c-97 0 -129 57 -137 99l66 20c8 -33 28 -62 71 -62c37 0 59 32 59 76c0 40 -19 73 -57 73c-32 0 -51 -18 -62 -41h-61l20 224h206v-59h-150l-10 -94h20c15 14 32 23 56 23c51 0 108 -33 108 -126c0 -76 -49 -133 -129 -133zM38 418
l127 248h108v-251h49v-56h-49v-74h-62v74h-173v59zM211 599h-20l-77 -164v-20h97v184z" />
    <glyph glyph-name="uni2159" unicode="&#x2159;" horiz-adv-x="860" 
d="M240 0h-64v20l451 646h64v-20zM244 285h-69v276h-20l-50 -42l-39 45l115 102h63v-381zM742 124c0 44 -23 72 -60 72c-36 0 -64 -26 -64 -73c0 -43 28 -75 64 -75c37 0 60 33 60 76zM609 215h20c13 19 37 37 72 37c63 0 112 -43 112 -127c0 -83 -58 -133 -131 -133
c-84 0 -140 60 -140 198c0 137 56 198 144 198c68 0 106 -40 117 -75l-58 -28c-12 32 -31 47 -61 47c-39 0 -75 -42 -75 -117z" />
    <glyph glyph-name="uni215A" unicode="&#x215a;" horiz-adv-x="860" 
d="M240 0h-64v20l451 646h64v-20zM742 124c0 44 -23 72 -60 72c-36 0 -64 -26 -64 -73c0 -43 28 -75 64 -75c37 0 60 33 60 76zM609 215h20c13 19 37 37 72 37c63 0 112 -43 112 -127c0 -83 -58 -133 -131 -133c-84 0 -140 60 -140 198c0 137 56 198 144 198
c68 0 106 -40 117 -75l-58 -28c-12 32 -31 47 -61 47c-39 0 -75 -42 -75 -117zM196 277c-97 0 -129 57 -137 99l66 20c8 -33 28 -62 71 -62c37 0 59 32 59 76c0 40 -19 73 -57 73c-32 0 -51 -18 -62 -41h-61l20 224h206v-59h-150l-10 -94h20c15 14 32 23 56 23
c51 0 108 -33 108 -126c0 -76 -49 -133 -129 -133z" />
    <glyph glyph-name="uni215B" unicode="&#x215b;" horiz-adv-x="860" 
d="M240 0h-64v20l451 646h64v-20zM244 285h-69v276h-20l-50 -42l-39 45l115 102h63v-381zM685 45c42 0 66 25 66 64c0 38 -25 64 -66 64s-66 -26 -66 -64c0 -39 24 -64 66 -64zM685 223c35 0 57 26 57 57c0 33 -22 56 -57 56s-57 -23 -57 -56c0 -31 22 -57 57 -57zM685 -8
c-87 0 -135 47 -135 113c0 41 28 79 64 84v19c-33 7 -53 43 -53 76c0 58 47 105 124 105s124 -47 124 -105c0 -33 -20 -69 -53 -76v-19c36 -5 64 -43 64 -84c0 -66 -48 -113 -135 -113z" />
    <glyph glyph-name="uni215D" unicode="&#x215d;" horiz-adv-x="860" 
d="M240 0h-64v20l451 646h64v-20zM186 277c-97 0 -129 57 -137 99l66 20c8 -33 26 -63 69 -63c35 0 59 25 59 63c0 39 -24 58 -67 58h-23v52h20c45 0 62 27 62 58c0 33 -20 53 -51 53c-35 0 -54 -30 -62 -63l-63 20c8 42 43 99 127 99c79 0 119 -49 119 -105
c0 -35 -20 -68 -53 -75v-20c33 -2 64 -34 64 -81c0 -63 -45 -115 -130 -115zM685 45c42 0 66 25 66 64c0 38 -25 64 -66 64s-66 -26 -66 -64c0 -39 24 -64 66 -64zM685 223c35 0 57 26 57 57c0 33 -22 56 -57 56s-57 -23 -57 -56c0 -31 22 -57 57 -57zM685 -8
c-87 0 -135 47 -135 113c0 41 28 79 64 84v19c-33 7 -53 43 -53 76c0 58 47 105 124 105s124 -47 124 -105c0 -33 -20 -69 -53 -76v-19c36 -5 64 -43 64 -84c0 -66 -48 -113 -135 -113z" />
    <glyph glyph-name="uni215C" unicode="&#x215c;" horiz-adv-x="860" 
d="M240 0h-64v20l451 646h64v-20zM685 45c42 0 66 25 66 64c0 38 -25 64 -66 64s-66 -26 -66 -64c0 -39 24 -64 66 -64zM685 223c35 0 57 26 57 57c0 33 -22 56 -57 56s-57 -23 -57 -56c0 -31 22 -57 57 -57zM685 -8c-87 0 -135 47 -135 113c0 41 28 79 64 84v19
c-33 7 -53 43 -53 76c0 58 47 105 124 105s124 -47 124 -105c0 -33 -20 -69 -53 -76v-19c36 -5 64 -43 64 -84c0 -66 -48 -113 -135 -113zM196 277c-97 0 -129 57 -137 99l66 20c8 -33 28 -62 71 -62c37 0 59 32 59 76c0 40 -19 73 -57 73c-32 0 -51 -18 -62 -41h-61l20 224
h206v-59h-150l-10 -94h20c15 14 32 23 56 23c51 0 108 -33 108 -126c0 -76 -49 -133 -129 -133z" />
    <glyph glyph-name="uni215E" unicode="&#x215e;" horiz-adv-x="860" 
d="M240 0h-64v20l451 646h64v-20zM685 45c42 0 66 25 66 64c0 38 -25 64 -66 64s-66 -26 -66 -64c0 -39 24 -64 66 -64zM685 223c35 0 57 26 57 57c0 33 -22 56 -57 56s-57 -23 -57 -56c0 -31 22 -57 57 -57zM685 -8c-87 0 -135 47 -135 113c0 41 28 79 64 84v19
c-33 7 -53 43 -53 76c0 58 47 105 124 105s124 -47 124 -105c0 -33 -20 -69 -53 -76v-19c36 -5 64 -43 64 -84c0 -66 -48 -113 -135 -113zM95 552v114h263v-72c-53 -27 -118 -122 -118 -309h-76c0 165 67 269 114 299v20h-123v-52h-60z" />
    <glyph glyph-name="uni2190" unicode="&#x2190;" horiz-adv-x="630" 
d="M38 301v20l225 223h70v-20l-160 -158v-20h429v-70h-429v-20l160 -158v-20h-70z" />
    <glyph glyph-name="uni2191" unicode="&#x2191;" horiz-adv-x="630" 
d="M305 588h20l223 -225v-70h-20l-158 160h-20v-429h-70v429h-20l-158 -160h-20v70z" />
    <glyph glyph-name="uni2192" unicode="&#x2192;" horiz-adv-x="630" 
d="M592 321v-20l-225 -223h-70v20l160 158v20h-429v70h429v20l-160 158v20h70z" />
    <glyph glyph-name="uni2193" unicode="&#x2193;" horiz-adv-x="630" 
d="M325 34h-20l-223 225v70h20l158 -160h20v429h70v-429h20l158 160h20v-70z" />
    <glyph glyph-name="uni2196" unicode="&#x2196;" horiz-adv-x="630" 
d="M163 141h-20l-44 44v331h331l44 -44v-20h-242v-20l298 -297l-50 -50l-297 298h-20v-242z" />
    <glyph glyph-name="uni2197" unicode="&#x2197;" horiz-adv-x="630" 
d="M483 141h-20v242h-20l-297 -298l-50 50l298 297v20h-242v20l44 44h331v-331z" />
    <glyph glyph-name="uni2198" unicode="&#x2198;" horiz-adv-x="630" 
d="M466 452h20l44 -44v-331h-331l-44 44v20h242v20l-298 297l50 50l297 -298h20v242z" />
    <glyph glyph-name="uni2199" unicode="&#x2199;" horiz-adv-x="630" 
d="M143 452h20v-242h20l297 298l50 -50l-298 -297v-20h242v-20l-44 -44h-331v331z" />
    <glyph glyph-name="bbox" horiz-adv-x="80" 
d="M25 -311v1247h30v-1247h-30z" />
    </font>
</defs>
</svg>
